<svg width="350" height="220" viewBox="0 0 350 220" fill="none" xmlns="http://www.w3.org/2000/svg">
<g filter="url(#filter0_b_1327_2056)">
<rect width="350" height="220" rx="16" fill="#171528"/>
<g opacity="0.5">
<path d="M310.694 163.042C309.475 163.042 308.406 163.633 307.431 164.726C306.466 165.816 305.659 167.4 305.125 169.191C304.319 171.862 304.15 174.984 304.675 177.516L310.844 176.634L316.741 177.328C317.228 174.834 317.05 171.797 316.263 169.191C315.728 167.4 314.922 165.816 313.956 164.726C312.981 163.633 311.913 163.042 310.694 163.042ZM324.194 166.331C323.106 166.331 322.141 166.866 321.259 167.878C320.388 168.891 319.647 170.372 319.159 172.041C318.981 172.659 318.831 173.297 318.719 173.944C318.756 175.116 318.672 176.269 318.475 177.356C318.475 177.412 318.475 177.469 318.484 177.534L321.288 177.862L315.484 178.884L310.863 178.341L295.071 180.591L302.903 183.403L313.141 181.659L303.203 186.731L292.358 180.984L289.646 181.369L290.434 184.312L287.69 183.197L291.244 187.341L291.688 189L295.797 190.959L301.713 189.412L296.388 193.341L292.434 191.794L293.452 195.6L295.703 196.256L291.767 197.869L300.897 197.906L295.947 199.959L305.988 199.247C312.869 201.666 314.453 201.347 322.234 202.069L315.841 199.678L318.119 198.497L312.691 194.784C319.994 197.044 322.806 196.331 329.903 195L325.947 194.419L330.803 191.887L330.841 190.697L333.419 185.297L330.953 187.041L331.047 184.284L325.122 189.112L314.528 185.887L325.422 186.628L331.056 183.919L331.103 182.597L332.613 178.762L329.744 180.553L326.266 180.15L319.009 180.966C319.009 180.966 321.081 180.319 323.031 179.728L325.056 178.303L329.791 178.856C330.072 176.7 329.866 174.206 329.228 172.041C328.741 170.372 328 168.891 327.128 167.878C326.247 166.866 325.281 166.331 324.194 166.331ZM299.088 167.344C297.953 167.344 296.969 167.859 296.078 168.787C295.189 169.725 294.448 171.094 293.955 172.631C293.287 174.703 293.094 177.084 293.418 179.119L302.988 177.759C302.491 175.378 302.584 172.687 303.128 170.175C302.819 169.65 302.472 169.181 302.097 168.787C301.206 167.859 300.222 167.344 299.088 167.344ZM305.481 190.256L312.344 191.55L319.656 190.706L312.194 193.594L305.481 190.256Z" fill="#1FAD72"/>
</g>
</g>
<defs>
<filter id="filter0_b_1327_2056" x="-250" y="-250" width="850" height="720" filterUnits="userSpaceOnUse" color-interpolation-filters="sRGB">
<feFlood flood-opacity="0" result="BackgroundImageFix"/>
<feGaussianBlur in="BackgroundImageFix" stdDeviation="125"/>
<feComposite in2="SourceAlpha" operator="in" result="effect1_backgroundBlur_1327_2056"/>
<feBlend mode="normal" in="SourceGraphic" in2="effect1_backgroundBlur_1327_2056" result="shape"/>
</filter>
</defs>
</svg>
