<svg width="542" height="516" viewBox="0 0 542 516" fill="none" xmlns="http://www.w3.org/2000/svg">
<path d="M488.063 320.99L323.621 463.068" stroke="white" stroke-opacity="0.8" stroke-width="5.26214" stroke-linecap="round" stroke-dasharray="10.52 10.52"/>
<path d="M221.01 469.646L56.5679 323.621" stroke="white" stroke-opacity="0.8" stroke-width="5.26214" stroke-linecap="round" stroke-dasharray="10.52 10.52"/>
<path d="M442.019 261.791L334.146 248.636" stroke="white" stroke-opacity="0.8" stroke-width="5.26214" stroke-linecap="round" stroke-dasharray="10.52 10.52"/>
<path d="M223.641 202.592L121.029 89.4564" stroke="white" stroke-opacity="0.8" stroke-width="5.26214" stroke-linecap="round" stroke-dasharray="10.52 10.52"/>
<path d="M406.5 42.0972L136.816 42.0972" stroke="white" stroke-opacity="0.8" stroke-width="5.26214" stroke-linecap="round" stroke-dasharray="10.52 10.52"/>
<path d="M56.568 218.379L76.301 101.296" stroke="white" stroke-opacity="0.8" stroke-width="5.26214" stroke-linecap="round" stroke-dasharray="10.52 10.52"/>
<path d="M486.748 218.379L460.437 102.612" stroke="white" stroke-opacity="0.8" stroke-width="5.26214" stroke-linecap="round" stroke-dasharray="10.52 10.52"/>
<path d="M210.485 251.267L101.296 268.369" stroke="white" stroke-opacity="0.8" stroke-width="5.26214" stroke-linecap="round" stroke-dasharray="10.52 10.52"/>
<path d="M311.237 196.785L419.655 88.1409" stroke="white" stroke-opacity="0.8" stroke-width="5.26214" stroke-linecap="round" stroke-dasharray="10.52 10.52"/>
<path d="M271 414.393L271 307.835" stroke="white" stroke-opacity="0.8" stroke-width="5.26214" stroke-linecap="round" stroke-dasharray="10.52 10.52"/>
<circle cx="455.175" cy="52.6214" r="49.9903" stroke="white" stroke-opacity="0.8" stroke-width="5.26214"/>
<path d="M439.059 54.4631V38.2966L442.639 38.0204C445.758 37.7798 448.819 37.0441 451.706 35.841L455.635 34.2039L459.564 35.841C462.452 37.0441 465.512 37.7798 468.631 38.0204L472.211 38.2966V54.4631C472.211 63.6177 464.79 71.0388 455.635 71.0388C446.481 71.0388 439.059 63.6177 439.059 54.4631Z" stroke="white" stroke-opacity="0.8" stroke-width="1.9733" stroke-linecap="round" stroke-linejoin="round"/>
<path d="M448.268 52.6214L452.872 57.2258L463.002 47.0962" stroke="white" stroke-opacity="0.8" stroke-width="1.9733" stroke-linecap="round" stroke-linejoin="round"/>
<circle cx="489.379" cy="271" r="49.9903" stroke="white" stroke-opacity="0.8" stroke-width="5.26214"/>
<path d="M511.825 283.087V282.562C511.825 281.763 511.732 280.968 511.549 280.19L506.327 257.997C505.926 256.293 504.961 254.774 503.588 253.686C502.216 252.599 500.516 252.007 498.765 252.007H479.993C478.241 252.007 476.542 252.599 475.169 253.686C473.796 254.774 472.831 256.293 472.43 257.997L467.209 280.19C467.025 280.968 466.933 281.763 466.932 282.562V283.087M511.825 283.087C511.825 284.918 511.097 286.675 509.802 287.97C508.507 289.265 506.75 289.993 504.918 289.993H473.839C472.007 289.993 470.25 289.265 468.955 287.97C467.66 286.675 466.932 284.918 466.932 283.087M511.825 283.087C511.825 281.255 511.097 279.498 509.802 278.203C508.507 276.908 506.75 276.18 504.918 276.18H473.839C472.007 276.18 470.25 276.908 468.955 278.203C467.66 279.498 466.932 281.255 466.932 283.087M504.918 283.087H504.937V283.105H504.918V283.087ZM498.012 283.087H498.03V283.105H498.012V283.087Z" stroke="white" stroke-opacity="0.8" stroke-width="1.9733" stroke-linecap="round" stroke-linejoin="round"/>
<circle cx="271" cy="463.068" r="49.9903" stroke="white" stroke-opacity="0.8" stroke-width="5.26214"/>
<path opacity="0.2" d="M288.266 454.435H276.18V442.348L288.266 454.435Z" fill="white" fill-opacity="0.8"/>
<path d="M289.488 453.213L277.401 441.127C277.241 440.966 277.051 440.839 276.841 440.753C276.631 440.666 276.407 440.621 276.18 440.622H255.46C254.544 440.622 253.666 440.985 253.018 441.633C252.371 442.281 252.007 443.159 252.007 444.075V482.061C252.007 482.977 252.371 483.855 253.018 484.503C253.666 485.15 254.544 485.514 255.46 485.514H286.54C287.456 485.514 288.334 485.15 288.982 484.503C289.629 483.855 289.993 482.977 289.993 482.061V454.435C289.993 454.208 289.949 453.983 289.862 453.774C289.775 453.564 289.648 453.374 289.488 453.213ZM277.907 446.516L284.099 452.708H277.907V446.516ZM286.54 482.061H255.46V444.075H274.453V454.435C274.453 454.893 274.635 455.332 274.959 455.656C275.283 455.979 275.722 456.161 276.18 456.161H286.54V482.061Z" fill="white" fill-opacity="0.8"/>
<circle cx="52.6214" cy="271" r="49.9903" stroke="white" stroke-opacity="0.8" stroke-width="5.26214"/>
<path d="M67.8157 258.614C74.6763 258.614 80.2475 264.093 80.2475 271C80.2475 277.814 74.6763 283.363 67.8157 283.363C64.4776 283.363 61.3696 282.074 59.0214 279.748L52.6213 274.085L46.1061 279.863C43.873 282.097 40.7421 283.386 37.4269 283.386C30.5664 283.386 24.9951 277.814 24.9951 271C24.9951 264.186 30.5664 258.614 37.4269 258.614C40.7421 258.614 43.873 259.903 46.2213 262.252L52.6213 267.915L59.1365 262.137C61.3696 259.903 64.5006 258.614 67.8157 258.614ZM42.9522 276.502L49.1681 271L43.0442 265.59C41.4788 264.024 39.5219 263.219 37.4269 263.219C33.1218 263.219 29.5995 266.695 29.5995 271C29.5995 275.305 33.1218 278.781 37.4269 278.781C39.5219 278.781 41.4788 277.976 42.9522 276.502ZM62.2905 265.498L56.0746 271L62.1984 276.41C63.7639 277.976 65.7438 278.781 67.8157 278.781C72.1208 278.781 75.6432 275.305 75.6432 271C75.6432 266.695 72.1208 263.219 67.8157 263.219C65.7208 263.219 63.7639 264.024 62.2905 265.498Z" fill="white" fill-opacity="0.8"/>
<circle cx="271" cy="244.689" r="65.7767" fill="#1FAD72"/>
<path d="M280.209 260.037C279.602 260.037 279.008 260.217 278.503 260.554C277.999 260.892 277.605 261.371 277.373 261.932C277.14 262.493 277.08 263.11 277.198 263.706C277.317 264.301 277.609 264.848 278.038 265.277C278.467 265.706 279.014 265.999 279.61 266.117C280.205 266.236 280.823 266.175 281.383 265.943C281.944 265.71 282.424 265.317 282.761 264.812C283.098 264.307 283.278 263.714 283.278 263.107C283.278 262.293 282.955 261.512 282.379 260.936C281.804 260.36 281.023 260.037 280.209 260.037ZM261.791 260.037H252.583C251.768 260.037 250.988 260.36 250.412 260.936C249.836 261.512 249.513 262.293 249.513 263.107C249.513 263.921 249.836 264.702 250.412 265.277C250.988 265.853 251.768 266.176 252.583 266.176H261.791C262.605 266.176 263.386 265.853 263.962 265.277C264.537 264.702 264.861 263.921 264.861 263.107C264.861 262.293 264.537 261.512 263.962 260.936C263.386 260.36 262.605 260.037 261.791 260.037ZM289.417 260.037C288.81 260.037 288.217 260.217 287.712 260.554C287.207 260.892 286.814 261.371 286.582 261.932C286.349 262.493 286.288 263.11 286.407 263.706C286.525 264.301 286.818 264.848 287.247 265.277C287.676 265.706 288.223 265.999 288.819 266.117C289.414 266.236 290.031 266.175 290.592 265.943C291.153 265.71 291.632 265.317 291.97 264.812C292.307 264.307 292.487 263.714 292.487 263.107C292.487 262.293 292.164 261.512 291.588 260.936C291.012 260.36 290.232 260.037 289.417 260.037ZM280.209 241.62C279.602 241.62 279.008 241.8 278.503 242.137C277.999 242.474 277.605 242.954 277.373 243.515C277.14 244.075 277.08 244.693 277.198 245.288C277.317 245.883 277.609 246.43 278.038 246.86C278.467 247.289 279.014 247.581 279.61 247.7C280.205 247.818 280.823 247.757 281.383 247.525C281.944 247.293 282.424 246.899 282.761 246.395C283.098 245.89 283.278 245.296 283.278 244.689C283.278 243.875 282.955 243.094 282.379 242.519C281.804 241.943 281.023 241.62 280.209 241.62ZM261.791 241.62H252.583C251.768 241.62 250.988 241.943 250.412 242.519C249.836 243.094 249.513 243.875 249.513 244.689C249.513 245.503 249.836 246.284 250.412 246.86C250.988 247.435 251.768 247.759 252.583 247.759H261.791C262.605 247.759 263.386 247.435 263.962 246.86C264.537 246.284 264.861 245.503 264.861 244.689C264.861 243.875 264.537 243.094 263.962 242.519C263.386 241.943 262.605 241.62 261.791 241.62ZM289.417 223.202C288.81 223.202 288.217 223.382 287.712 223.719C287.207 224.057 286.814 224.536 286.582 225.097C286.349 225.658 286.288 226.275 286.407 226.871C286.525 227.466 286.818 228.013 287.247 228.442C287.676 228.872 288.223 229.164 288.819 229.282C289.414 229.401 290.031 229.34 290.592 229.108C291.153 228.875 291.632 228.482 291.97 227.977C292.307 227.472 292.487 226.879 292.487 226.272C292.487 225.458 292.164 224.677 291.588 224.101C291.012 223.526 290.232 223.202 289.417 223.202ZM289.417 241.62C288.81 241.62 288.217 241.8 287.712 242.137C287.207 242.474 286.814 242.954 286.582 243.515C286.349 244.075 286.288 244.693 286.407 245.288C286.525 245.883 286.818 246.43 287.247 246.86C287.676 247.289 288.223 247.581 288.819 247.7C289.414 247.818 290.031 247.757 290.592 247.525C291.153 247.293 291.632 246.899 291.97 246.395C292.307 245.89 292.487 245.296 292.487 244.689C292.487 243.875 292.164 243.094 291.588 242.519C291.012 241.943 290.232 241.62 289.417 241.62ZM301.696 223.202C301.696 220.76 300.726 218.418 298.999 216.691C297.272 214.964 294.929 213.993 292.487 213.993H249.513C247.071 213.993 244.728 214.964 243.001 216.691C241.274 218.418 240.304 220.76 240.304 223.202V229.341C240.318 231.613 241.17 233.799 242.698 235.48C241.17 237.161 240.318 239.348 240.304 241.62V247.759C240.318 250.03 241.17 252.217 242.698 253.898C241.17 255.579 240.318 257.765 240.304 260.037V266.176C240.304 268.619 241.274 270.961 243.001 272.688C244.728 274.415 247.071 275.385 249.513 275.385H292.487C294.929 275.385 297.272 274.415 298.999 272.688C300.726 270.961 301.696 268.619 301.696 266.176V260.037C301.682 257.765 300.83 255.579 299.302 253.898C300.83 252.217 301.682 250.03 301.696 247.759V241.62C301.682 239.348 300.83 237.161 299.302 235.48C300.83 233.799 301.682 231.613 301.696 229.341V223.202ZM295.557 266.176C295.557 266.99 295.233 267.771 294.658 268.347C294.082 268.922 293.301 269.246 292.487 269.246H249.513C248.699 269.246 247.918 268.922 247.342 268.347C246.767 267.771 246.443 266.99 246.443 266.176V260.037C246.443 259.223 246.767 258.442 247.342 257.867C247.918 257.291 248.699 256.968 249.513 256.968H292.487C293.301 256.968 294.082 257.291 294.658 257.867C295.233 258.442 295.557 259.223 295.557 260.037V266.176ZM295.557 247.759C295.557 248.573 295.233 249.354 294.658 249.929C294.082 250.505 293.301 250.828 292.487 250.828H249.513C248.699 250.828 247.918 250.505 247.342 249.929C246.767 249.354 246.443 248.573 246.443 247.759V241.62C246.443 240.806 246.767 240.025 247.342 239.449C247.918 238.873 248.699 238.55 249.513 238.55H292.487C293.301 238.55 294.082 238.873 294.658 239.449C295.233 240.025 295.557 240.806 295.557 241.62V247.759ZM295.557 229.341C295.557 230.155 295.233 230.936 294.658 231.512C294.082 232.087 293.301 232.411 292.487 232.411H249.513C248.699 232.411 247.918 232.087 247.342 231.512C246.767 230.936 246.443 230.155 246.443 229.341V223.202C246.443 222.388 246.767 221.607 247.342 221.032C247.918 220.456 248.699 220.133 249.513 220.133H292.487C293.301 220.133 294.082 220.456 294.658 221.032C295.233 221.607 295.557 222.388 295.557 223.202V229.341ZM280.209 223.202C279.602 223.202 279.008 223.382 278.503 223.719C277.999 224.057 277.605 224.536 277.373 225.097C277.14 225.658 277.08 226.275 277.198 226.871C277.317 227.466 277.609 228.013 278.038 228.442C278.467 228.872 279.014 229.164 279.61 229.282C280.205 229.401 280.823 229.34 281.383 229.108C281.944 228.875 282.424 228.482 282.761 227.977C283.098 227.472 283.278 226.879 283.278 226.272C283.278 225.458 282.955 224.677 282.379 224.101C281.804 223.526 281.023 223.202 280.209 223.202ZM261.791 223.202H252.583C251.768 223.202 250.988 223.526 250.412 224.101C249.836 224.677 249.513 225.458 249.513 226.272C249.513 227.086 249.836 227.867 250.412 228.442C250.988 229.018 251.768 229.341 252.583 229.341H261.791C262.605 229.341 263.386 229.018 263.962 228.442C264.537 227.867 264.861 227.086 264.861 226.272C264.861 225.458 264.537 224.677 263.962 224.101C263.386 223.526 262.605 223.202 261.791 223.202Z" fill="#000400"/>
<circle cx="86.8252" cy="52.6214" r="49.9903" stroke="white" stroke-opacity="0.8" stroke-width="5.26214"/>
<path fill-rule="evenodd" clip-rule="evenodd" d="M62.0768 36.506C62.0768 34.2163 62.9864 32.0204 64.6054 30.4014C66.2244 28.7824 68.4203 27.8728 70.71 27.8728H102.941C104.753 27.8728 106.519 28.4429 107.988 29.5024C109.458 30.5619 110.558 32.057 111.131 33.7759C111.704 35.4949 111.721 37.3506 111.181 39.0801C110.641 40.8097 109.57 42.3254 108.12 43.4125C109.57 44.4997 110.641 46.0154 111.181 47.745C111.721 49.4745 111.704 51.3302 111.131 53.0492C110.558 54.7681 109.458 56.2632 107.988 57.3227C106.519 58.3822 104.753 58.9523 102.941 58.9523H88.5519V62.645C90.6607 63.2413 92.3206 64.9011 92.9168 67.0099H109.847C110.305 67.0099 110.744 67.1919 111.068 67.5157C111.392 67.8395 111.574 68.2786 111.574 68.7366C111.574 69.1945 111.392 69.6337 111.068 69.9575C110.744 70.2813 110.305 70.4632 109.847 70.4632H92.9168C92.5399 71.7882 91.7413 72.9541 90.642 73.7842C89.5427 74.6144 88.2028 75.0635 86.8253 75.0635C85.4478 75.0635 84.1078 74.6144 83.0085 73.7842C81.9093 72.9541 81.1106 71.7882 80.7337 70.4632H63.8034C63.3455 70.4632 62.9063 70.2813 62.5825 69.9575C62.2587 69.6337 62.0768 69.1945 62.0768 68.7366C62.0768 68.2786 62.2587 67.8395 62.5825 67.5157C62.9063 67.1919 63.3455 67.0099 63.8034 67.0099H80.7337C81.0295 65.971 81.5857 65.0247 82.3495 64.2608C83.1134 63.497 84.0597 62.9408 85.0986 62.645V58.9523H70.71C68.898 58.9523 67.132 58.3822 65.6621 57.3227C64.1921 56.2632 63.0928 54.7681 62.5198 53.0492C61.9468 51.3302 61.9292 49.4745 62.4695 47.745C63.0097 46.0154 64.0805 44.4997 65.5301 43.4125C64.4571 42.6091 63.5862 41.5665 62.9868 40.3676C62.3873 39.1687 62.0757 37.8464 62.0768 36.506ZM70.71 41.6859C69.3362 41.6859 68.0186 41.1402 67.0472 40.1687C66.0758 39.1973 65.5301 37.8798 65.5301 36.506C65.5301 35.1322 66.0758 33.8147 67.0472 32.8432C68.0186 31.8718 69.3362 31.3261 70.71 31.3261H102.941C104.314 31.3261 105.632 31.8718 106.603 32.8432C107.575 33.8147 108.12 35.1322 108.12 36.506C108.12 37.8798 107.575 39.1973 106.603 40.1687C105.632 41.1402 104.314 41.6859 102.941 41.6859H70.71ZM102.941 45.1392H70.71C69.3362 45.1392 68.0186 45.6849 67.0472 46.6563C66.0758 47.6278 65.5301 48.9453 65.5301 50.3191C65.5301 51.6929 66.0758 53.0104 67.0472 53.9819C68.0186 54.9533 69.3362 55.499 70.71 55.499H102.941C104.314 55.499 105.632 54.9533 106.603 53.9819C107.575 53.0104 108.12 51.6929 108.12 50.3191C108.12 48.9453 107.575 47.6278 106.603 46.6563C105.632 45.6849 104.314 45.1392 102.941 45.1392ZM87.4008 36.506C87.4008 36.0481 87.5827 35.6089 87.9065 35.2851C88.2303 34.9613 88.6695 34.7794 89.1275 34.7794H102.941C103.398 34.7794 103.838 34.9613 104.161 35.2851C104.485 35.6089 104.667 36.0481 104.667 36.506C104.667 36.9639 104.485 37.4031 104.161 37.7269C103.838 38.0507 103.398 38.2326 102.941 38.2326H89.1275C88.6695 38.2326 88.2303 38.0507 87.9065 37.7269C87.5827 37.4031 87.4008 36.9639 87.4008 36.506ZM87.4008 50.3191C87.4008 49.8612 87.5827 49.422 87.9065 49.0982C88.2303 48.7744 88.6695 48.5925 89.1275 48.5925H102.941C103.398 48.5925 103.838 48.7744 104.161 49.0982C104.485 49.422 104.667 49.8612 104.667 50.3191C104.667 50.777 104.485 51.2162 104.161 51.54C103.838 51.8638 103.398 52.0457 102.941 52.0457H89.1275C88.6695 52.0457 88.2303 51.8638 87.9065 51.54C87.5827 51.2162 87.4008 50.777 87.4008 50.3191ZM86.8253 65.8588C86.4474 65.8588 86.0732 65.9333 85.724 66.0779C85.3749 66.2225 85.0576 66.4345 84.7904 66.7017C84.5232 66.9689 84.3112 67.2862 84.1666 67.6353C84.022 67.9845 83.9475 68.3587 83.9475 68.7366C83.9475 69.1145 84.022 69.4887 84.1666 69.8378C84.3112 70.187 84.5232 70.5042 84.7904 70.7714C85.0576 71.0387 85.3749 71.2506 85.724 71.3953C86.0732 71.5399 86.4474 71.6143 86.8253 71.6143C87.5885 71.6143 88.3205 71.3111 88.8601 70.7714C89.3998 70.2318 89.703 69.4998 89.703 68.7366C89.703 67.9734 89.3998 67.2414 88.8601 66.7017C88.3205 66.162 87.5885 65.8588 86.8253 65.8588Z" fill="white" fill-opacity="0.8"/>
<path d="M75.3143 36.506C75.3143 37.1166 75.0718 37.7022 74.64 38.1339C74.2083 38.5657 73.6227 38.8082 73.0121 38.8082C72.4016 38.8082 71.816 38.5657 71.3843 38.1339C70.9525 37.7022 70.71 37.1166 70.71 36.506C70.71 35.8955 70.9525 35.3099 71.3843 34.8782C71.816 34.4464 72.4016 34.2039 73.0121 34.2039C73.6227 34.2039 74.2083 34.4464 74.64 34.8782C75.0718 35.3099 75.3143 35.8955 75.3143 36.506ZM75.3143 50.3191C75.3143 50.9297 75.0718 51.5153 74.64 51.947C74.2083 52.3788 73.6227 52.6213 73.0121 52.6213C72.4016 52.6213 71.816 52.3788 71.3843 51.947C70.9525 51.5153 70.71 50.9297 70.71 50.3191C70.71 49.7086 70.9525 49.123 71.3843 48.6913C71.816 48.2595 72.4016 48.017 73.0121 48.017C73.6227 48.017 74.2083 48.2595 74.64 48.6913C75.0718 49.123 75.3143 49.7086 75.3143 50.3191Z" fill="white" fill-opacity="0.8"/>
</svg>
