<svg width="360" height="320" viewBox="0 0 360 320" fill="none" xmlns="http://www.w3.org/2000/svg">
<g clip-path="url(#clip0_351_156)">
<rect width="360" height="320" rx="8" fill="#171528"/>
<path d="M261 24C261 19.5817 264.582 16 269 16H360.179V48H269C264.582 48 261 44.4183 261 40V24Z" fill="#1FAD72"/>
<path d="M274.221 26L273 32.4585H276.115L275.068 38L279.179 29.9468H276.214L276.937 26H274.221Z" fill="#000400"/>
<path d="M288.236 36V27.2727H291.287C291.895 27.2727 292.397 27.3778 292.792 27.5881C293.187 27.7955 293.481 28.0753 293.674 28.4276C293.867 28.777 293.964 29.1648 293.964 29.5909C293.964 29.9659 293.897 30.2756 293.763 30.5199C293.633 30.7642 293.459 30.9574 293.243 31.0994C293.03 31.2415 292.799 31.3466 292.549 31.4148V31.5C292.816 31.517 293.084 31.6108 293.354 31.7812C293.624 31.9517 293.85 32.196 294.032 32.5142C294.214 32.8324 294.304 33.2216 294.304 33.6818C294.304 34.1193 294.205 34.5128 294.006 34.8622C293.807 35.2116 293.493 35.4886 293.064 35.6932C292.635 35.8977 292.077 36 291.39 36H288.236ZM289.293 35.0625H291.39C292.08 35.0625 292.57 34.929 292.86 34.6619C293.152 34.392 293.299 34.0653 293.299 33.6818C293.299 33.3864 293.223 33.1136 293.073 32.8636C292.922 32.6108 292.708 32.4091 292.429 32.2585C292.151 32.1051 291.821 32.0284 291.441 32.0284H289.293V35.0625ZM289.293 31.108H291.253C291.571 31.108 291.858 31.0455 292.114 30.9205C292.373 30.7955 292.577 30.6193 292.728 30.392C292.881 30.1648 292.958 29.8977 292.958 29.5909C292.958 29.2074 292.824 28.8821 292.557 28.6151C292.29 28.3452 291.867 28.2102 291.287 28.2102H289.293V31.108ZM298.649 36.1364C298.018 36.1364 297.474 35.9972 297.017 35.7188C296.562 35.4375 296.211 35.0455 295.964 34.5426C295.72 34.0369 295.598 33.4489 295.598 32.7784C295.598 32.108 295.72 31.517 295.964 31.0057C296.211 30.4915 296.555 30.0909 296.995 29.804C297.439 29.5142 297.956 29.3693 298.547 29.3693C298.888 29.3693 299.224 29.4261 299.557 29.5398C299.889 29.6534 300.191 29.8381 300.464 30.0938C300.737 30.3466 300.954 30.6818 301.116 31.0994C301.278 31.517 301.359 32.0312 301.359 32.642V33.0682H296.314V32.1989H300.336C300.336 31.8295 300.263 31.5 300.115 31.2102C299.97 30.9205 299.763 30.6918 299.493 30.5241C299.226 30.3565 298.91 30.2727 298.547 30.2727C298.146 30.2727 297.799 30.3722 297.507 30.571C297.217 30.767 296.994 31.0227 296.838 31.3381C296.682 31.6534 296.603 31.9915 296.603 32.3523V32.9318C296.603 33.4261 296.689 33.8452 296.859 34.1889C297.032 34.5298 297.272 34.7898 297.579 34.9688C297.886 35.1449 298.243 35.233 298.649 35.233C298.913 35.233 299.152 35.196 299.365 35.1222C299.581 35.0455 299.767 34.9318 299.923 34.7812C300.079 34.6278 300.2 34.4375 300.285 34.2102L301.257 34.483C301.155 34.8125 300.983 35.1023 300.741 35.3523C300.5 35.5994 300.201 35.7926 299.846 35.9318C299.491 36.0682 299.092 36.1364 298.649 36.1364ZM307.525 30.9205L306.622 31.1761C306.565 31.0256 306.481 30.8793 306.37 30.7372C306.263 30.5923 306.115 30.473 305.927 30.3793C305.74 30.2855 305.5 30.2386 305.207 30.2386C304.807 30.2386 304.473 30.331 304.206 30.5156C303.941 30.6974 303.809 30.929 303.809 31.2102C303.809 31.4602 303.9 31.6577 304.082 31.8026C304.264 31.9474 304.548 32.0682 304.934 32.1648L305.906 32.4034C306.491 32.5455 306.927 32.7628 307.214 33.0554C307.501 33.3452 307.645 33.7187 307.645 34.1761C307.645 34.5511 307.537 34.8864 307.321 35.1818C307.108 35.4773 306.809 35.7102 306.426 35.8807C306.042 36.0511 305.596 36.1364 305.088 36.1364C304.42 36.1364 303.868 35.9915 303.43 35.7017C302.993 35.4119 302.716 34.9886 302.599 34.4318L303.554 34.1932C303.645 34.5455 303.816 34.8097 304.069 34.9858C304.325 35.1619 304.659 35.25 305.071 35.25C305.539 35.25 305.912 35.1506 306.187 34.9517C306.466 34.75 306.605 34.5085 306.605 34.2273C306.605 34 306.525 33.8097 306.366 33.6562C306.207 33.5 305.963 33.3835 305.633 33.3068L304.542 33.0511C303.943 32.9091 303.503 32.6889 303.221 32.3906C302.943 32.0895 302.804 31.7131 302.804 31.2614C302.804 30.892 302.907 30.5653 303.115 30.2812C303.325 29.9972 303.611 29.7741 303.971 29.6122C304.335 29.4503 304.747 29.3693 305.207 29.3693C305.855 29.3693 306.363 29.5114 306.733 29.7955C307.105 30.0795 307.369 30.4545 307.525 30.9205ZM312.005 29.4545V30.3068H308.613V29.4545H312.005ZM309.602 27.8864H310.607V34.125C310.607 34.4091 310.649 34.6222 310.731 34.7642C310.816 34.9034 310.924 34.9972 311.055 35.0455C311.188 35.0909 311.329 35.1136 311.477 35.1136C311.587 35.1136 311.678 35.108 311.749 35.0966C311.82 35.0824 311.877 35.071 311.92 35.0625L312.124 35.9659C312.056 35.9915 311.961 36.017 311.839 36.0426C311.717 36.071 311.562 36.0852 311.374 36.0852C311.09 36.0852 310.812 36.0241 310.539 35.902C310.269 35.7798 310.045 35.5938 309.866 35.3438C309.69 35.0938 309.602 34.7784 309.602 34.3977V27.8864ZM321.802 29.4545C321.751 29.0227 321.543 28.6875 321.18 28.4489C320.816 28.2102 320.37 28.0909 319.842 28.0909C319.455 28.0909 319.117 28.1534 318.827 28.2784C318.541 28.4034 318.316 28.5753 318.154 28.794C317.995 29.0128 317.916 29.2614 317.916 29.5398C317.916 29.7727 317.971 29.973 318.082 30.1406C318.195 30.3054 318.34 30.4432 318.516 30.554C318.693 30.6619 318.877 30.7514 319.07 30.8224C319.264 30.8906 319.441 30.946 319.603 30.9886L320.489 31.2273C320.717 31.2869 320.97 31.3693 321.248 31.4744C321.529 31.5795 321.798 31.723 322.053 31.9048C322.312 32.0838 322.525 32.3139 322.693 32.5952C322.86 32.8764 322.944 33.2216 322.944 33.6307C322.944 34.1023 322.82 34.5284 322.573 34.9091C322.329 35.2898 321.971 35.5923 321.499 35.8168C321.031 36.0412 320.461 36.1534 319.791 36.1534C319.166 36.1534 318.624 36.0526 318.167 35.8509C317.712 35.6491 317.354 35.3679 317.093 35.0071C316.835 34.6463 316.688 34.2273 316.654 33.75H317.745C317.774 34.0795 317.884 34.3523 318.077 34.5682C318.274 34.7812 318.521 34.9403 318.819 35.0455C319.12 35.1477 319.444 35.1989 319.791 35.1989C320.194 35.1989 320.556 35.1335 320.877 35.0028C321.198 34.8693 321.452 34.6847 321.64 34.4489C321.827 34.2102 321.921 33.9318 321.921 33.6136C321.921 33.3239 321.84 33.0881 321.678 32.9062C321.516 32.7244 321.303 32.5767 321.039 32.4631C320.775 32.3494 320.489 32.25 320.183 32.1648L319.109 31.858C318.427 31.6619 317.887 31.3821 317.489 31.0185C317.092 30.6548 316.893 30.179 316.893 29.5909C316.893 29.1023 317.025 28.6761 317.289 28.3125C317.556 27.946 317.914 27.6619 318.363 27.4602C318.815 27.2557 319.319 27.1534 319.876 27.1534C320.438 27.1534 320.938 27.2543 321.376 27.456C321.813 27.6548 322.16 27.9276 322.416 28.2741C322.674 28.6207 322.81 29.0142 322.825 29.4545H321.802ZM327.289 36.1364C326.659 36.1364 326.115 35.9972 325.657 35.7188C325.203 35.4375 324.852 35.0455 324.605 34.5426C324.361 34.0369 324.238 33.4489 324.238 32.7784C324.238 32.108 324.361 31.517 324.605 31.0057C324.852 30.4915 325.196 30.0909 325.636 29.804C326.079 29.5142 326.596 29.3693 327.187 29.3693C327.528 29.3693 327.865 29.4261 328.197 29.5398C328.53 29.6534 328.832 29.8381 329.105 30.0938C329.378 30.3466 329.595 30.6818 329.757 31.0994C329.919 31.517 330 32.0312 330 32.642V33.0682H324.954V32.1989H328.977C328.977 31.8295 328.903 31.5 328.755 31.2102C328.611 30.9205 328.403 30.6918 328.133 30.5241C327.866 30.3565 327.551 30.2727 327.187 30.2727C326.787 30.2727 326.44 30.3722 326.147 30.571C325.858 30.767 325.635 31.0227 325.478 31.3381C325.322 31.6534 325.244 31.9915 325.244 32.3523V32.9318C325.244 33.4261 325.329 33.8452 325.5 34.1889C325.673 34.5298 325.913 34.7898 326.22 34.9688C326.527 35.1449 326.883 35.233 327.289 35.233C327.554 35.233 327.792 35.196 328.005 35.1222C328.221 35.0455 328.407 34.9318 328.564 34.7812C328.72 34.6278 328.841 34.4375 328.926 34.2102L329.897 34.483C329.795 34.8125 329.623 35.1023 329.382 35.3523C329.14 35.5994 328.842 35.7926 328.487 35.9318C328.132 36.0682 327.733 36.1364 327.289 36.1364ZM332.535 27.2727V36H331.53V27.2727H332.535ZM335.383 27.2727V36H334.377V27.2727H335.383ZM339.969 36.1364C339.339 36.1364 338.794 35.9972 338.337 35.7188C337.883 35.4375 337.532 35.0455 337.285 34.5426C337.04 34.0369 336.918 33.4489 336.918 32.7784C336.918 32.108 337.04 31.517 337.285 31.0057C337.532 30.4915 337.875 30.0909 338.316 29.804C338.759 29.5142 339.276 29.3693 339.867 29.3693C340.208 29.3693 340.544 29.4261 340.877 29.5398C341.209 29.6534 341.512 29.8381 341.785 30.0938C342.057 30.3466 342.275 30.6818 342.437 31.0994C342.598 31.517 342.679 32.0312 342.679 32.642V33.0682H337.634V32.1989H341.657C341.657 31.8295 341.583 31.5 341.435 31.2102C341.29 30.9205 341.083 30.6918 340.813 30.5241C340.546 30.3565 340.231 30.2727 339.867 30.2727C339.466 30.2727 339.12 30.3722 338.827 30.571C338.537 30.767 338.314 31.0227 338.158 31.3381C338.002 31.6534 337.924 31.9915 337.924 32.3523V32.9318C337.924 33.4261 338.009 33.8452 338.179 34.1889C338.353 34.5298 338.593 34.7898 338.9 34.9688C339.206 35.1449 339.563 35.233 339.969 35.233C340.233 35.233 340.472 35.196 340.685 35.1222C340.901 35.0455 341.087 34.9318 341.243 34.7812C341.4 34.6278 341.52 34.4375 341.606 34.2102L342.577 34.483C342.475 34.8125 342.303 35.1023 342.062 35.3523C341.82 35.5994 341.522 35.7926 341.167 35.9318C340.812 36.0682 340.412 36.1364 339.969 36.1364ZM344.209 36V29.4545H345.181V30.4432H345.249C345.368 30.1193 345.584 29.8565 345.897 29.6548C346.209 29.4531 346.562 29.3523 346.954 29.3523C347.027 29.3523 347.12 29.3537 347.231 29.3565C347.341 29.3594 347.425 29.3636 347.482 29.3693V30.392C347.448 30.3835 347.37 30.3707 347.248 30.3537C347.128 30.3338 347.002 30.3239 346.868 30.3239C346.55 30.3239 346.266 30.3906 346.016 30.5241C345.769 30.6548 345.573 30.8366 345.428 31.0696C345.286 31.2997 345.215 31.5625 345.215 31.858V36H344.209Z" fill="#000400"/>
<path d="M182.227 22.8342L114.268 62.0685C113.607 62.5001 113.057 63.0816 112.663 63.7657C112.269 64.4498 112.042 65.2172 112 66.0056V252.802C112.043 253.59 112.271 254.356 112.665 255.04C113.059 255.724 113.608 256.306 114.268 256.739L182.227 295.973C182.932 296.33 183.71 296.516 184.5 296.516C185.29 296.516 186.068 296.33 186.773 295.973L254.722 256.739C255.385 256.308 255.937 255.727 256.333 255.043C256.728 254.359 256.957 253.591 257 252.802V66.0056C256.959 65.2159 256.731 64.4473 256.335 63.7628C255.939 63.0784 255.386 62.4977 254.722 62.0685L186.826 22.8342C186.114 22.4686 185.326 22.2778 184.526 22.2778C183.726 22.2778 182.938 22.4686 182.227 22.8342Z" fill="#37474F"/>
<path d="M257 65.9949V252.801C256.957 253.589 256.729 254.356 256.335 255.04C255.941 255.724 255.392 256.306 254.732 256.738L186.826 295.973C186.13 296.348 185.348 296.537 184.558 296.519V104.463C185.346 104.481 186.126 104.3 186.826 103.938L254.785 64.7035L255.404 64.1891L256.213 63.5172C256.702 64.2529 256.975 65.1115 257 65.9949Z" fill="#263238"/>
<path d="M122.782 84.3891L173.681 113.786C174.34 114.219 174.889 114.801 175.283 115.485C175.677 116.169 175.905 116.935 175.949 117.723V137.104C175.949 138.553 174.899 139.141 173.671 138.416L122.782 109.019C122.119 108.589 121.568 108.008 121.172 107.324C120.776 106.64 120.547 105.872 120.504 105.082V85.7014C120.525 84.2526 121.544 83.6646 122.782 84.3891Z" fill="#455A64"/>
<path d="M124.788 92.925C124.845 93.6881 125.081 94.4269 125.476 95.0817C125.872 95.7366 126.417 96.2889 127.066 96.6941L169.429 121.157C170.689 121.881 171.707 121.366 171.707 120.012C171.652 119.247 171.416 118.506 171.021 117.85C170.625 117.193 170.079 116.639 169.429 116.233L127.066 91.7702C125.806 91.0457 124.788 91.5602 124.788 92.925Z" fill="#54BD95"/>
<path d="M124.788 102.773C124.845 103.536 125.081 104.275 125.476 104.929C125.872 105.584 126.417 106.137 127.066 106.542L169.429 131.004C170.689 131.729 171.707 131.214 171.707 129.86C171.652 129.095 171.416 128.354 171.021 127.697C170.625 127.04 170.079 126.486 169.429 126.08L127.066 101.618C125.806 100.893 124.788 101.408 124.788 102.773Z" fill="#263238"/>
<path d="M127.066 101.618L150.384 115.088V120.012L127.066 106.542C126.417 106.137 125.872 105.584 125.476 104.929C125.081 104.275 124.845 103.536 124.788 102.773C124.788 101.408 125.806 100.893 127.066 101.618Z" fill="#54BD95"/>
<path d="M122.782 118.857L173.681 148.254C174.341 148.686 174.89 149.268 175.284 149.952C175.678 150.636 175.905 151.403 175.949 152.191V171.551C175.949 172.999 174.899 173.587 173.671 172.863L122.782 143.466C122.119 143.036 121.568 142.455 121.172 141.77C120.776 141.086 120.547 140.318 120.504 139.529V120.169C120.525 118.72 121.544 118.132 122.782 118.857Z" fill="#455A64"/>
<path d="M124.788 127.393C124.843 128.158 125.078 128.899 125.474 129.555C125.87 130.212 126.415 130.766 127.066 131.172L169.429 155.624C170.689 156.349 171.707 155.834 171.707 154.48C171.652 153.715 171.416 152.974 171.021 152.317C170.625 151.661 170.079 151.107 169.429 150.7L127.066 126.248C125.806 125.524 124.788 126.039 124.788 127.393Z" fill="#54BD95"/>
<path d="M124.788 137.241C124.843 138.005 125.078 138.746 125.474 139.403C125.87 140.06 126.415 140.614 127.066 141.02L169.429 165.472C170.689 166.207 171.707 165.682 171.707 164.328C171.652 163.563 171.416 162.822 171.021 162.165C170.625 161.508 170.079 160.954 169.429 160.548L127.066 136.096C125.806 135.372 124.788 135.886 124.788 137.241Z" fill="#263238"/>
<path d="M127.066 136.096L163.171 156.936V161.86L127.066 141.02C126.415 140.614 125.87 140.06 125.474 139.403C125.078 138.746 124.843 138.005 124.788 137.241C124.788 135.886 125.806 135.372 127.066 136.096Z" fill="#54BD95"/>
<path d="M122.782 153.283L173.681 182.68C174.341 183.112 174.89 183.694 175.284 184.378C175.678 185.062 175.905 185.829 175.949 186.617V205.987C175.949 207.436 174.899 208.024 173.671 207.299L122.782 177.955C122.119 177.525 121.568 176.944 121.172 176.259C120.776 175.575 120.547 174.807 120.504 174.018V154.637C120.525 153.188 121.544 152.6 122.782 153.283Z" fill="#455A64"/>
<path d="M124.788 161.861C124.843 162.625 125.078 163.366 125.474 164.023C125.87 164.68 126.415 165.234 127.066 165.64L169.429 190.103C170.689 190.827 171.707 190.312 171.707 188.948C171.65 188.185 171.414 187.446 171.018 186.791C170.622 186.136 170.078 185.584 169.429 185.179L127.066 160.716C125.806 159.992 124.788 160.506 124.788 161.861Z" fill="#54BD95"/>
<path d="M124.788 171.719C124.845 172.482 125.081 173.221 125.476 173.876C125.872 174.53 126.417 175.083 127.066 175.488L169.429 199.95C170.689 200.675 171.707 200.16 171.707 198.796C171.65 198.033 171.414 197.294 171.018 196.639C170.622 195.984 170.078 195.432 169.429 195.026L127.066 170.564C125.806 169.84 124.788 170.354 124.788 171.719Z" fill="#263238"/>
<path d="M127.066 170.564L141.848 179.1V184.024L127.066 175.488C126.417 175.083 125.872 174.53 125.476 173.876C125.081 173.221 124.845 172.482 124.788 171.719C124.788 170.354 125.806 169.84 127.066 170.564Z" fill="#54BD95"/>
<path d="M122.782 187.803L173.681 217.2C174.341 217.633 174.89 218.214 175.284 218.898C175.678 219.582 175.905 220.349 175.949 221.137V240.518C175.949 241.967 174.899 242.555 173.671 241.83L122.782 212.433C122.119 212.003 121.568 211.422 121.172 210.738C120.776 210.054 120.547 209.286 120.504 208.496V189.115C120.525 187.666 121.544 187.079 122.782 187.803Z" fill="#455A64"/>
<path d="M124.788 196.328C124.845 197.091 125.081 197.83 125.476 198.485C125.872 199.14 126.417 199.692 127.066 200.097L169.429 224.56C170.689 225.284 171.707 224.77 171.707 223.405C171.65 222.642 171.414 221.903 171.018 221.248C170.622 220.593 170.078 220.041 169.429 219.636L127.066 195.173C125.806 194.459 124.788 194.974 124.788 196.328Z" fill="#54BD95"/>
<path d="M124.788 206.187C124.845 206.95 125.081 207.689 125.476 208.343C125.872 208.998 126.417 209.551 127.066 209.956L169.429 234.418C170.689 235.143 171.707 234.628 171.707 233.274C171.652 232.509 171.416 231.768 171.021 231.111C170.625 230.454 170.079 229.9 169.429 229.494L127.066 205.032C125.806 204.307 124.788 204.822 124.788 206.187Z" fill="#263238"/>
<path d="M127.066 205.032L150.384 218.491V223.415L127.066 209.977C126.417 209.571 125.872 209.019 125.476 208.364C125.081 207.709 124.845 206.971 124.788 206.208C124.788 204.822 125.806 204.307 127.066 205.032Z" fill="#54BD95"/>
<path d="M122.782 222.271L173.681 251.668C174.341 252.1 174.89 252.682 175.284 253.366C175.678 254.05 175.905 254.817 175.949 255.605V274.965C175.949 276.413 174.899 277.001 173.671 276.277L122.782 246.88C122.119 246.45 121.568 245.869 121.172 245.184C120.776 244.5 120.547 243.732 120.504 242.943V223.625C120.525 222.134 121.544 221.525 122.782 222.271Z" fill="#455A64"/>
<path d="M124.788 230.806C124.843 231.571 125.078 232.312 125.474 232.969C125.87 233.626 126.415 234.18 127.066 234.586L169.429 259.038C170.689 259.762 171.707 259.248 171.707 257.893C171.652 257.128 171.416 256.387 171.021 255.731C170.625 255.074 170.079 254.52 169.429 254.114L127.066 229.662C125.806 228.927 124.788 229.452 124.788 230.806Z" fill="#54BD95"/>
<path d="M124.788 240.654C124.843 241.419 125.078 242.16 125.474 242.817C125.87 243.474 126.415 244.028 127.066 244.434L169.429 268.886C170.689 269.61 171.707 269.096 171.707 267.742C171.652 266.977 171.416 266.236 171.021 265.579C170.625 264.922 170.079 264.368 169.429 263.962L127.066 239.51C125.806 238.786 124.788 239.3 124.788 240.654Z" fill="#263238"/>
<path d="M127.066 239.51L158.909 257.894V262.818L127.066 244.434C126.415 244.028 125.87 243.474 125.474 242.817C125.078 242.16 124.843 241.419 124.788 240.654C124.788 239.3 125.806 238.786 127.066 239.51Z" fill="#54BD95"/>
<path d="M195.162 116.326C197.513 114.962 199.424 116.2 199.424 119.098V231.72C199.368 233.251 198.953 234.748 198.212 236.09C197.472 237.432 196.427 238.582 195.162 239.447C192.81 240.812 190.899 239.562 190.899 236.665V124.043C190.955 122.513 191.371 121.017 192.111 119.677C192.851 118.337 193.896 117.189 195.162 116.326Z" fill="#37474F"/>
<path d="M195.162 236.948C195.789 236.516 196.306 235.942 196.671 235.272C197.036 234.603 197.238 233.857 197.261 233.095V120.159C197.261 118.71 196.306 118.059 195.162 118.763C194.534 119.197 194.017 119.774 193.652 120.445C193.287 121.116 193.085 121.863 193.062 122.626V235.563C193.03 237.011 193.986 237.631 195.162 236.948Z" fill="#263238"/>
<path d="M195.162 236.948C195.789 236.516 196.306 235.942 196.671 235.272C197.036 234.603 197.238 233.857 197.261 233.095V179.1L192.999 181.567V235.563C193.03 237.011 193.986 237.631 195.162 236.948Z" fill="#54BD95"/>
<path d="M207.949 108.935C210.311 107.571 212.222 108.82 212.222 111.718V224.339C212.166 225.869 211.751 227.365 211.01 228.705C210.27 230.046 209.225 231.193 207.96 232.056C205.598 233.421 203.687 232.182 203.687 229.284V116.663C203.743 115.131 204.158 113.634 204.898 112.292C205.639 110.95 206.684 109.8 207.949 108.935Z" fill="#37474F"/>
<path d="M207.96 229.567C208.586 229.134 209.103 228.559 209.467 227.89C209.832 227.221 210.035 226.476 210.06 225.714V112.778C210.06 111.319 209.104 110.678 207.96 111.382C207.334 111.815 206.817 112.39 206.453 113.059C206.088 113.728 205.885 114.473 205.86 115.235V228.171C205.818 229.62 206.774 230.25 207.96 229.567Z" fill="#54BD95"/>
<path d="M220.748 101.555C223.099 100.19 225.01 101.429 225.01 104.327V216.948C224.956 218.481 224.542 219.979 223.802 221.321C223.061 222.663 222.015 223.813 220.748 224.676C218.396 226.04 216.485 224.791 216.485 221.893V109.272C216.541 107.742 216.957 106.246 217.697 104.906C218.437 103.565 219.482 102.418 220.748 101.555Z" fill="#37474F"/>
<path d="M220.747 222.177C221.375 221.744 221.892 221.17 222.257 220.501C222.621 219.831 222.824 219.085 222.847 218.324V105.387C222.847 103.938 221.892 103.287 220.747 103.991C220.121 104.425 219.605 104.999 219.24 105.668C218.875 106.337 218.672 107.082 218.647 107.844V220.791C218.616 222.24 219.571 222.859 220.747 222.177Z" fill="#263238"/>
<path d="M220.747 222.176C221.375 221.744 221.892 221.169 222.257 220.5C222.621 219.831 222.824 219.085 222.847 218.323V131.088L218.584 133.545V220.79C218.616 222.239 219.571 222.859 220.747 222.176Z" fill="#54BD95"/>
<path d="M233.546 94.1636C235.897 92.7988 237.808 94.0376 237.808 96.9458V209.567C237.758 211.105 237.346 212.609 236.605 213.957C235.865 215.305 234.816 216.459 233.546 217.326C231.183 218.691 229.283 217.452 229.283 214.554V101.891C229.336 100.358 229.75 98.8601 230.49 97.5175C231.231 96.175 232.278 95.0259 233.546 94.1636Z" fill="#37474F"/>
<path d="M233.545 214.796C234.172 214.362 234.688 213.788 235.053 213.119C235.417 212.449 235.62 211.704 235.645 210.943V97.9958C235.645 96.547 234.69 95.8961 233.545 96.61C232.918 97.0426 232.401 97.6168 232.036 98.2861C231.671 98.9555 231.469 99.7012 231.446 100.463V213.4C231.414 214.848 232.37 215.478 233.545 214.796Z" fill="#263238"/>
<path d="M233.545 214.796C234.172 214.362 234.688 213.788 235.053 213.118C235.417 212.449 235.62 211.704 235.645 210.943V191.877L231.383 194.334V213.399C231.414 214.848 232.37 215.478 233.545 214.796Z" fill="#54BD95"/>
<path d="M246.333 86.7828C248.695 85.418 250.606 86.6569 250.606 89.5546V202.176C250.55 203.709 250.134 205.207 249.392 206.55C248.65 207.892 247.602 209.041 246.333 209.903C243.981 211.268 242.071 210.019 242.071 207.121V94.489C242.129 92.9606 242.544 91.4671 243.285 90.1287C244.025 88.7903 245.069 87.6443 246.333 86.7828Z" fill="#37474F"/>
<path d="M246.333 207.405C246.961 206.972 247.478 206.398 247.842 205.729C248.207 205.059 248.409 204.314 248.433 203.552V90.6154C248.433 89.1665 247.488 88.5156 246.333 89.219C245.707 89.6528 245.19 90.2273 244.826 90.8963C244.461 91.5654 244.258 92.3105 244.233 93.0721V206.019C244.202 207.468 245.157 208.087 246.333 207.405Z" fill="#263238"/>
<path d="M246.333 207.404C246.961 206.972 247.478 206.397 247.842 205.728C248.207 205.059 248.409 204.313 248.433 203.551V144.631L244.17 147.088V206.018C244.202 207.467 245.157 208.087 246.333 207.404Z" fill="#54BD95"/>
<path d="M192.715 253.148L248.769 220.78C249.819 220.192 250.596 220.665 250.596 221.83V242.251C250.56 242.882 250.376 243.497 250.059 244.044C249.742 244.591 249.3 245.056 248.769 245.4L192.705 277.768C191.655 278.346 190.888 277.884 190.888 276.718V256.298C190.923 255.666 191.106 255.051 191.424 254.504C191.741 253.956 192.184 253.492 192.715 253.148Z" fill="#37474F"/>
<path d="M195.015 259.206C195.015 260.56 196.065 261.074 197.293 260.35L244.202 233.263C244.852 232.857 245.398 232.303 245.794 231.646C246.19 230.989 246.425 230.248 246.48 229.483C246.48 228.129 245.43 227.614 244.202 228.339L197.325 255.426C196.668 255.829 196.117 256.381 195.715 257.038C195.314 257.695 195.074 258.438 195.015 259.206Z" fill="#263238"/>
<path d="M195.015 259.206C195.015 260.56 196.065 261.075 197.293 260.35L231.414 240.644V235.72L197.325 255.426C196.668 255.829 196.117 256.381 195.715 257.038C195.314 257.695 195.074 258.438 195.015 259.206Z" fill="#54BD95"/>
<path d="M195.015 269.054C195.015 270.408 196.065 270.923 197.293 270.198L244.202 243.111C244.852 242.705 245.398 242.151 245.794 241.494C246.19 240.837 246.425 240.096 246.48 239.331C246.48 237.977 245.43 237.463 244.202 238.187L197.325 265.274C196.668 265.677 196.117 266.229 195.715 266.886C195.314 267.543 195.074 268.286 195.015 269.054Z" fill="#263238"/>
<path d="M195.015 269.054C195.015 270.408 196.065 270.923 197.293 270.198L210.091 262.849V257.925L197.293 265.274C196.643 265.681 196.097 266.235 195.701 266.891C195.305 267.548 195.07 268.289 195.015 269.054Z" fill="#54BD95"/>
<path d="M254.722 62.0684L186.826 22.8341C186.121 22.4772 185.342 22.2911 184.553 22.2911C183.763 22.2911 182.984 22.4772 182.28 22.8341L114.268 62.0684C113.994 62.1615 113.755 62.3381 113.587 62.5735C113.418 62.8089 113.327 63.0912 113.327 63.3808C113.327 63.6704 113.418 63.9527 113.587 64.1881C113.755 64.4235 113.994 64.6001 114.268 64.6932L182.227 103.938C182.932 104.295 183.71 104.481 184.5 104.481C185.29 104.481 186.069 104.295 186.773 103.938L254.722 64.7142C255.004 64.6261 255.25 64.4503 255.425 64.2123C255.6 63.9743 255.695 63.6867 255.695 63.3913C255.695 63.0959 255.6 62.8083 255.425 62.5703C255.25 62.3323 255.004 62.1565 254.722 62.0684Z" fill="#455A64"/>
<path d="M183.13 94.5942L130.425 64.1475C130.029 63.8876 129.7 63.5386 129.463 63.1284C129.226 62.7182 129.088 62.2582 129.061 61.7852V60.0004C129.088 59.5275 129.226 59.0675 129.463 58.6573C129.7 58.2471 130.029 57.898 130.425 57.6382L183.13 27.1914C183.552 26.9741 184.02 26.8607 184.495 26.8607C184.969 26.8607 185.437 26.9741 185.86 27.1914L238.574 57.6382C238.972 57.8962 239.303 58.2448 239.541 58.6554C239.778 59.0659 239.914 59.5269 239.939 60.0004V61.7747C239.912 62.2477 239.774 62.7077 239.537 63.1179C239.3 63.5281 238.971 63.8771 238.574 64.137L185.86 94.5837C185.438 94.8027 184.971 94.9179 184.496 94.9197C184.021 94.9215 183.553 94.8099 183.13 94.5942Z" fill="#263238"/>
<path d="M130.426 59.2336L183.13 89.6804C183.552 89.8977 184.02 90.0111 184.495 90.0111C184.97 90.0111 185.438 89.8977 185.86 89.6804L238.575 59.2336C239.33 58.7927 239.33 58.0892 238.575 57.6588L185.86 28.2619C185.438 28.0446 184.97 27.9312 184.495 27.9312C184.02 27.9312 183.552 28.0446 183.13 28.2619L130.426 57.6588C129.67 58.0997 129.67 58.7927 130.426 59.2336Z" fill="#455A64"/>
<path d="M184.505 89.9954V94.9194C184.03 94.9302 183.56 94.8181 183.14 94.5939L130.425 64.1472C130.028 63.8892 129.696 63.5406 129.459 63.13C129.222 62.7194 129.085 62.2585 129.061 61.7849V60.0211C129.079 59.6029 129.183 59.193 129.368 58.8172C129.552 58.4414 129.812 58.1078 130.131 57.8373C129.638 58.2678 129.722 58.8872 130.383 59.2337L183.098 89.6804C183.531 89.9082 184.017 90.0169 184.505 89.9954Z" fill="#37474F"/>
<path d="M183.13 79.7907L147.434 59.2024C147.037 58.9431 146.707 58.5943 146.47 58.1839C146.233 57.7736 146.095 57.3133 146.069 56.8401V55.0973C146.098 54.6247 146.236 54.1653 146.473 53.7554C146.71 53.3454 147.039 52.9961 147.434 52.7351L170.342 39.538C171.221 38.9939 171.999 38.3012 172.641 37.4907L183.56 22.7923C183.824 22.4524 184.201 22.2181 184.623 22.1315C185.044 22.0449 185.483 22.1117 185.859 22.3198L221.556 42.8976C221.953 43.1562 222.284 43.505 222.521 43.9154C222.758 44.3259 222.895 44.7865 222.921 45.2599V56.8821C222.893 57.3551 222.756 57.8151 222.519 58.2253C222.282 58.6355 221.952 58.9845 221.556 59.2444L185.859 79.8222C185.435 80.0346 184.966 80.1426 184.491 80.1372C184.016 80.1317 183.549 80.0129 183.13 79.7907Z" fill="#263238"/>
<path d="M185.86 74.8981L208.726 61.701C209.607 61.1377 210.385 60.4275 211.025 59.6013L221.944 44.9028C222.075 44.7444 222.169 44.5586 222.219 44.359C222.269 44.1595 222.273 43.9513 222.232 43.7499C222.191 43.5484 222.105 43.3588 221.98 43.1949C221.856 43.031 221.697 42.8971 221.514 42.8031L185.818 22.2253C185.441 22.0171 185.002 21.9503 184.581 22.037C184.159 22.1236 183.783 22.3579 183.518 22.6977L172.6 37.3961C172.029 38.2141 171.318 38.9249 170.5 39.4959L147.402 52.609C147.237 52.6638 147.093 52.7694 146.991 52.9107C146.888 53.0521 146.833 53.2221 146.833 53.3964C146.833 53.5708 146.888 53.7408 146.991 53.8821C147.093 54.0235 147.237 54.1291 147.402 54.1839L183.098 74.7722C183.514 75.0145 183.983 75.1525 184.464 75.1744C184.944 75.1964 185.423 75.1016 185.86 74.8981Z" fill="#455A64"/>
<path d="M221.472 42.8872L185.775 22.3094C185.399 22.1013 184.96 22.0345 184.539 22.1211C184.117 22.2077 183.74 22.4421 183.476 22.7819L172.557 37.4803C172.223 37.9024 171.851 38.2925 171.444 38.6457C171.444 38.6457 209.923 60.8193 209.923 60.8088C210.329 60.4591 210.701 60.0725 211.036 59.6539L221.955 44.9555C222.078 44.7942 222.164 44.6076 222.207 44.4091C222.249 44.2106 222.247 44.0051 222.201 43.8074C222.155 43.6096 222.066 43.4246 221.94 43.2655C221.813 43.1064 221.654 42.9772 221.472 42.8872Z" fill="#37474F"/>
<path d="M156.127 53.1028C156.622 52.8494 157.171 52.7172 157.728 52.7172C158.285 52.7172 158.833 52.8494 159.329 53.1028C159.522 53.1687 159.689 53.2931 159.807 53.4588C159.926 53.6245 159.989 53.823 159.989 54.0267C159.989 54.2303 159.926 54.4289 159.807 54.5946C159.689 54.7602 159.522 54.8847 159.329 54.9506C158.832 55.1991 158.284 55.3286 157.728 55.3286C157.172 55.3286 156.624 55.1991 156.127 54.9506C155.934 54.8847 155.767 54.7602 155.648 54.5946C155.53 54.4289 155.466 54.2303 155.466 54.0267C155.466 53.823 155.53 53.6245 155.648 53.4588C155.767 53.2931 155.934 53.1687 156.127 53.1028Z" fill="#54BD95"/>
<path d="M162.531 56.7981C163.02 56.5516 163.559 56.4233 164.106 56.4233C164.653 56.4233 165.192 56.5516 165.681 56.7981C165.874 56.8639 166.041 56.9884 166.159 57.1541C166.278 57.3198 166.341 57.5183 166.341 57.722C166.341 57.9256 166.278 58.1242 166.159 58.2898C166.041 58.4555 165.874 58.58 165.681 58.6459C165.191 58.8875 164.652 59.0132 164.106 59.0132C163.56 59.0132 163.021 58.8875 162.531 58.6459C162.339 58.58 162.171 58.4555 162.053 58.2898C161.934 58.1242 161.871 57.9256 161.871 57.722C161.871 57.5183 161.934 57.3198 162.053 57.1541C162.171 56.9884 162.339 56.8639 162.531 56.7981Z" fill="#54BD95"/>
<path d="M168.977 60.4831C169.475 60.2345 170.023 60.1051 170.579 60.1051C171.134 60.1051 171.682 60.2345 172.18 60.4831C172.372 60.5489 172.54 60.6734 172.658 60.8391C172.776 61.0048 172.84 61.2033 172.84 61.407C172.84 61.6106 172.776 61.8092 172.658 61.9748C172.54 62.1405 172.372 62.265 172.18 62.3309C171.684 62.5843 171.135 62.7164 170.579 62.7164C170.022 62.7164 169.473 62.5843 168.977 62.3309C168.785 62.265 168.617 62.1405 168.499 61.9748C168.381 61.8092 168.317 61.6106 168.317 61.407C168.317 61.2033 168.381 61.0048 168.499 60.8391C168.617 60.6734 168.785 60.5489 168.977 60.4831Z" fill="#263238"/>
<path d="M175.277 64.1787C175.774 63.9302 176.322 63.8008 176.878 63.8008C177.434 63.8008 177.982 63.9302 178.479 64.1787C178.672 64.2446 178.839 64.3691 178.957 64.5348C179.076 64.7004 179.139 64.899 179.139 65.1026C179.139 65.3063 179.076 65.5049 178.957 65.6705C178.839 65.8362 178.672 65.9607 178.479 66.0265C177.983 66.28 177.434 66.4121 176.878 66.4121C176.321 66.4121 175.772 66.28 175.277 66.0265C175.084 65.9607 174.917 65.8362 174.798 65.6705C174.68 65.5049 174.616 65.3063 174.616 65.1026C174.616 64.899 174.68 64.7004 174.798 64.5348C174.917 64.3691 175.084 64.2446 175.277 64.1787Z" fill="#263238"/>
<path d="M162.531 52.5562C163.778 52.5562 164.788 51.9734 164.788 51.2544C164.788 50.5354 163.778 49.9525 162.531 49.9525C161.284 49.9525 160.274 50.5354 160.274 51.2544C160.274 51.9734 161.284 52.5562 162.531 52.5562Z" fill="#54BD95"/>
<path d="M167.329 54.0265C167.818 53.78 168.357 53.6517 168.904 53.6517C169.451 53.6517 169.99 53.78 170.479 54.0265C170.672 54.0923 170.839 54.2168 170.957 54.3825C171.076 54.5481 171.139 54.7467 171.139 54.9504C171.139 55.154 171.076 55.3526 170.957 55.5182C170.839 55.6839 170.672 55.8084 170.479 55.8743C169.989 56.1159 169.45 56.2416 168.904 56.2416C168.358 56.2416 167.819 56.1159 167.329 55.8743C166.437 55.3598 166.437 54.5304 167.329 54.0265Z" fill="#263238"/>
<path d="M175.319 59.9476C176.565 59.9476 177.576 59.3647 177.576 58.6457C177.576 57.9267 176.565 57.3439 175.319 57.3439C174.072 57.3439 173.061 57.9267 173.061 58.6457C173.061 59.3647 174.072 59.9476 175.319 59.9476Z" fill="#54BD95"/>
<path d="M180.117 61.4068C180.607 61.1667 181.146 61.0419 181.692 61.0419C182.237 61.0419 182.776 61.1667 183.266 61.4068C183.459 61.4727 183.626 61.5972 183.745 61.7629C183.863 61.9285 183.927 62.1271 183.927 62.3307C183.927 62.5344 183.863 62.7329 183.745 62.8986C183.626 63.0643 183.459 63.1888 183.266 63.2546C182.777 63.4995 182.238 63.6269 181.692 63.6269C181.145 63.6269 180.606 63.4995 180.117 63.2546C179.924 63.1888 179.757 63.0643 179.638 62.8986C179.52 62.7329 179.456 62.5344 179.456 62.3307C179.456 62.1271 179.52 61.9285 179.638 61.7629C179.757 61.5972 179.924 61.4727 180.117 61.4068Z" fill="#263238"/>
<path d="M165.723 47.5591C166.213 47.319 166.752 47.1942 167.298 47.1942C167.843 47.1942 168.382 47.319 168.872 47.5591C169.065 47.625 169.232 47.7495 169.351 47.9151C169.469 48.0808 169.533 48.2794 169.533 48.483C169.533 48.6867 169.469 48.8852 169.351 49.0509C169.232 49.2166 169.065 49.341 168.872 49.4069C168.384 49.6517 167.844 49.7792 167.298 49.7792C166.751 49.7792 166.212 49.6517 165.723 49.4069C165.53 49.341 165.363 49.2166 165.244 49.0509C165.126 48.8852 165.062 48.6867 165.062 48.483C165.062 48.2794 165.126 48.0808 165.244 47.9151C165.363 47.7495 165.53 47.625 165.723 47.5591Z" fill="#263238"/>
<path d="M172.127 51.2548C172.615 51.0084 173.155 50.88 173.702 50.88C174.249 50.88 174.788 51.0084 175.277 51.2548C175.469 51.3207 175.637 51.4451 175.755 51.6108C175.873 51.7765 175.937 51.975 175.937 52.1787C175.937 52.3823 175.873 52.5809 175.755 52.7466C175.637 52.9122 175.469 53.0367 175.277 53.1026C174.787 53.3443 174.248 53.47 173.702 53.47C173.156 53.47 172.617 53.3443 172.127 53.1026C171.934 53.0367 171.767 52.9122 171.648 52.7466C171.53 52.5809 171.466 52.3823 171.466 52.1787C171.466 51.975 171.53 51.7765 171.648 51.6108C171.767 51.4451 171.934 51.3207 172.127 51.2548Z" fill="#54BD95"/>
<path d="M178.521 54.9503C179.01 54.7055 179.549 54.578 180.096 54.578C180.642 54.578 181.182 54.7055 181.67 54.9503C181.863 55.0162 182.03 55.1406 182.149 55.3063C182.267 55.472 182.331 55.6705 182.331 55.8742C182.331 56.0778 182.267 56.2764 182.149 56.4421C182.03 56.6077 181.863 56.7322 181.67 56.7981C181.18 57.0382 180.641 57.1631 180.096 57.1631C179.55 57.1631 179.011 57.0382 178.521 56.7981C178.328 56.7322 178.161 56.6077 178.042 56.4421C177.924 56.2764 177.86 56.0778 177.86 55.8742C177.86 55.6705 177.924 55.472 178.042 55.3063C178.161 55.1406 178.328 55.0162 178.521 54.9503Z" fill="#263238"/>
<path d="M181.754 67.8007C182.25 67.5473 182.799 67.4152 183.355 67.4152C183.912 67.4152 184.461 67.5473 184.957 67.8007C185.149 67.8666 185.317 67.9911 185.435 68.1567C185.553 68.3224 185.617 68.521 185.617 68.7246C185.617 68.9283 185.553 69.1268 185.435 69.2925C185.317 69.4582 185.149 69.5826 184.957 69.6485C184.459 69.8971 183.911 70.0265 183.355 70.0265C182.8 70.0265 182.251 69.8971 181.754 69.6485C181.562 69.5826 181.394 69.4582 181.276 69.2925C181.157 69.1268 181.094 68.9283 181.094 68.7246C181.094 68.521 181.157 68.3224 181.276 68.1567C181.394 67.9911 181.562 67.8666 181.754 67.8007Z" fill="#54BD95"/>
<path d="M188.148 67.2548C189.395 67.2548 190.406 66.6719 190.406 65.9529C190.406 65.2339 189.395 64.6511 188.148 64.6511C186.902 64.6511 185.891 65.2339 185.891 65.9529C185.891 66.6719 186.902 67.2548 188.148 67.2548Z" fill="#263238"/>
<path d="M184.915 58.646C185.403 58.4011 185.943 58.2737 186.489 58.2737C187.036 58.2737 187.575 58.4011 188.064 58.646C188.257 58.7118 188.424 58.8363 188.543 59.002C188.661 59.1676 188.725 59.3662 188.725 59.5699C188.725 59.7735 188.661 59.9721 188.543 60.1377C188.424 60.3034 188.257 60.4279 188.064 60.4938C187.574 60.7339 187.035 60.8587 186.489 60.8587C185.943 60.8587 185.405 60.7339 184.915 60.4938C184.722 60.4279 184.555 60.3034 184.436 60.1377C184.318 59.9721 184.254 59.7735 184.254 59.5699C184.254 59.3662 184.318 59.1676 184.436 59.002C184.555 58.8363 184.722 58.7118 184.915 58.646Z" fill="#263238"/>
<path d="M170.521 44.7983C171.016 44.5449 171.565 44.4127 172.122 44.4127C172.678 44.4127 173.227 44.5449 173.723 44.7983C173.916 44.8642 174.083 44.9886 174.201 45.1543C174.32 45.32 174.383 45.5185 174.383 45.7222C174.383 45.9258 174.32 46.1244 174.201 46.29C174.083 46.4557 173.916 46.5802 173.723 46.6461C173.226 46.8946 172.678 47.024 172.122 47.024C171.566 47.024 171.018 46.8946 170.521 46.6461C170.328 46.5802 170.161 46.4557 170.042 46.29C169.924 46.1244 169.86 45.9258 169.86 45.7222C169.86 45.5185 169.924 45.32 170.042 45.1543C170.161 44.9886 170.328 44.8642 170.521 44.7983Z" fill="#54BD95"/>
<path d="M178.521 50.7087C179.768 50.7087 180.778 50.1258 180.778 49.4068C180.778 48.6878 179.768 48.105 178.521 48.105C177.274 48.105 176.264 48.6878 176.264 49.4068C176.264 50.1258 177.274 50.7087 178.521 50.7087Z" fill="#263238"/>
<path d="M183.319 52.179C183.809 51.9373 184.348 51.8116 184.894 51.8116C185.44 51.8116 185.979 51.9373 186.469 52.179C186.661 52.2448 186.829 52.3693 186.947 52.535C187.065 52.7007 187.129 52.8992 187.129 53.1029C187.129 53.3065 187.065 53.5051 186.947 53.6707C186.829 53.8364 186.661 53.9609 186.469 54.0268C185.98 54.2732 185.441 54.4015 184.894 54.4015C184.347 54.4015 183.807 54.2732 183.319 54.0268C183.126 53.9609 182.959 53.8364 182.84 53.6707C182.722 53.5051 182.658 53.3065 182.658 53.1029C182.658 52.8992 182.722 52.7007 182.84 52.535C182.959 52.3693 183.126 52.2448 183.319 52.179Z" fill="#54BD95"/>
<path d="M191.309 58.1001C192.555 58.1001 193.566 57.5172 193.566 56.7982C193.566 56.0792 192.555 55.4963 191.309 55.4963C190.062 55.4963 189.051 56.0792 189.051 56.7982C189.051 57.5172 190.062 58.1001 191.309 58.1001Z" fill="#263238"/>
<path d="M191.35 62.2679C191.846 62.0145 192.395 61.8823 192.952 61.8823C193.508 61.8823 194.057 62.0145 194.553 62.2679C194.747 62.3309 194.916 62.4537 195.036 62.6188C195.156 62.7838 195.22 62.9825 195.22 63.1865C195.22 63.3905 195.156 63.5893 195.036 63.7543C194.916 63.9193 194.747 64.0422 194.553 64.1052C194.057 64.3586 193.508 64.4907 192.952 64.4907C192.395 64.4907 191.846 64.3586 191.35 64.1052C191.156 64.0422 190.987 63.9193 190.867 63.7543C190.748 63.5893 190.683 63.3905 190.683 63.1865C190.683 62.9825 190.748 62.7838 190.867 62.6188C190.987 62.4537 191.156 62.3309 191.35 62.2679Z" fill="#54BD95"/>
<path d="M196.149 59.4964C196.637 59.25 197.176 59.1216 197.723 59.1216C198.27 59.1216 198.81 59.25 199.298 59.4964C200.191 60.0004 200.191 60.8298 199.298 61.3442C198.808 61.5859 198.27 61.7116 197.723 61.7116C197.177 61.7116 196.638 61.5859 196.149 61.3442C195.956 61.2784 195.789 61.1539 195.67 60.9882C195.552 60.8225 195.488 60.624 195.488 60.4203C195.488 60.2167 195.552 60.0181 195.67 59.8525C195.789 59.6868 195.956 59.5623 196.149 59.4964Z" fill="#263238"/>
<path d="M184.579 75.2239V80.1373C184.08 80.1614 183.584 80.0527 183.14 79.8224L147.444 59.2341C147.046 58.9761 146.715 58.6275 146.478 58.2169C146.241 57.8063 146.104 57.3454 146.079 56.8718V55.0975C146.103 54.6761 146.214 54.2643 146.406 53.8883C146.597 53.5123 146.865 53.1803 147.192 52.9138C146.699 53.3442 146.783 53.9636 147.444 54.3101L183.14 74.8984C183.583 75.1324 184.079 75.2447 184.579 75.2239Z" fill="#37474F"/>
<path d="M177.376 36.8712C177.552 36.6434 177.803 36.4863 178.084 36.4285C178.366 36.3707 178.658 36.416 178.909 36.5562L209.923 54.4253C210.039 54.4896 210.139 54.5783 210.217 54.6852C210.295 54.7922 210.349 54.9148 210.375 55.0446C210.401 55.1744 210.398 55.3084 210.367 55.4371C210.336 55.5658 210.278 55.6863 210.196 55.7902C210.021 56.0178 209.77 56.1757 209.489 56.2353C209.208 56.295 208.915 56.2525 208.663 56.1156L177.639 38.2465C177.524 38.1802 177.424 38.0898 177.347 37.9815C177.27 37.8732 177.217 37.7496 177.192 37.619C177.167 37.4885 177.171 37.3541 177.203 37.225C177.234 37.0959 177.294 36.9753 177.376 36.8712Z" fill="#263238"/>
<path d="M177.376 36.8712C177.552 36.6434 177.803 36.4863 178.084 36.4285C178.366 36.3707 178.659 36.416 178.909 36.5562L202.007 49.8688L200.726 51.6011L177.628 38.2885C177.507 38.2221 177.403 38.1294 177.322 38.0172C177.242 37.905 177.187 37.7762 177.163 37.6402C177.139 37.5042 177.146 37.3645 177.182 37.2315C177.219 37.0984 177.286 36.9753 177.376 36.8712Z" fill="#54BD95"/>
<path d="M179.928 33.4274C180.103 33.1997 180.354 33.0425 180.635 32.9847C180.917 32.9269 181.21 32.9722 181.461 33.1124L212.485 51.0235C212.601 51.0869 212.703 51.1749 212.782 51.2814C212.861 51.3879 212.916 51.5103 212.943 51.6402C212.97 51.7701 212.968 51.9043 212.938 52.0335C212.908 52.1627 212.85 52.2838 212.768 52.3884C212.589 52.6134 212.336 52.7682 212.054 52.8258C211.772 52.8833 211.478 52.84 211.225 52.7033L180.211 34.8027C180.094 34.7383 179.993 34.6492 179.914 34.5418C179.835 34.4344 179.78 34.311 179.753 34.1803C179.726 34.0496 179.727 33.9147 179.758 33.7847C179.788 33.6547 179.846 33.5328 179.928 33.4274Z" fill="#263238"/>
<path d="M179.928 33.4274C180.103 33.1997 180.354 33.0425 180.635 32.9847C180.917 32.9269 181.21 32.9722 181.46 33.1124L189.167 37.5639L187.875 39.2438L180.169 34.8027C180.056 34.7346 179.958 34.6429 179.883 34.5338C179.808 34.4246 179.757 34.3006 179.734 34.1702C179.711 34.0398 179.717 33.9059 179.75 33.7778C179.784 33.6496 179.844 33.5301 179.928 33.4274Z" fill="#54BD95"/>
<path d="M182.489 29.9946C182.665 29.7669 182.916 29.6097 183.197 29.5519C183.479 29.4941 183.771 29.5394 184.022 29.6796L215.046 47.5907C215.163 47.6552 215.265 47.7442 215.344 47.8517C215.423 47.9591 215.478 48.0824 215.505 48.2131C215.532 48.3438 215.53 48.4788 215.5 48.6088C215.47 48.7387 215.412 48.8606 215.33 48.9661C215.152 49.1903 214.901 49.3447 214.621 49.4023C214.34 49.4599 214.049 49.417 213.797 49.281L182.773 31.3594C182.656 31.2961 182.555 31.2081 182.476 31.1016C182.397 30.9951 182.342 30.8726 182.315 30.7427C182.288 30.6128 182.289 30.4786 182.32 30.3494C182.35 30.2202 182.408 30.0991 182.489 29.9946Z" fill="#263238"/>
<path d="M182.489 29.9946C182.665 29.7669 182.916 29.6097 183.197 29.5519C183.479 29.4941 183.772 29.5394 184.022 29.6796L200.18 38.9816L198.899 40.7034L182.741 31.4119C182.619 31.347 182.513 31.2549 182.431 31.1428C182.349 31.0306 182.294 30.9013 182.27 30.7647C182.245 30.6281 182.253 30.4877 182.291 30.3543C182.329 30.2209 182.397 30.0978 182.489 29.9946Z" fill="#54BD95"/>
<path d="M185.051 26.5506C185.226 26.3229 185.477 26.165 185.758 26.1054C186.039 26.0457 186.332 26.0882 186.584 26.2251L217.65 44.0942C217.766 44.1596 217.867 44.2493 217.945 44.3572C218.023 44.465 218.077 44.5885 218.103 44.7191C218.129 44.8498 218.126 44.9845 218.095 45.114C218.064 45.2435 218.005 45.3648 217.923 45.4695C217.748 45.6973 217.497 45.8544 217.215 45.9122C216.934 45.97 216.641 45.9247 216.39 45.7845L185.335 27.9154C185.218 27.852 185.117 27.764 185.038 27.6575C184.959 27.551 184.904 27.4286 184.877 27.2987C184.85 27.1688 184.851 27.0346 184.881 26.9054C184.912 26.7762 184.97 26.6551 185.051 26.5506Z" fill="#263238"/>
<path d="M185.051 26.5506C185.226 26.3229 185.477 26.165 185.758 26.1054C186.039 26.0457 186.332 26.0882 186.584 26.2251L214.753 42.4879L213.461 44.2097L185.335 27.9154C185.218 27.852 185.117 27.764 185.038 27.6575C184.959 27.551 184.904 27.4286 184.877 27.2987C184.85 27.1688 184.851 27.0346 184.881 26.9054C184.912 26.7762 184.97 26.6551 185.051 26.5506Z" fill="#54BD95"/>
</g>
<defs>
<clipPath id="clip0_351_156">
<rect width="360" height="320" rx="8" fill="white"/>
</clipPath>
</defs>
</svg>
