<svg width="360" height="320" viewBox="0 0 360 320" fill="none" xmlns="http://www.w3.org/2000/svg">
<g clip-path="url(#clip0_351_1195)">
<rect width="360" height="320" rx="8" fill="#171528"/>
<path d="M230.243 13.7065L172.679 46.9394C172.12 47.3049 171.654 47.7975 171.32 48.3769C170.986 48.9564 170.794 49.6064 170.759 50.2742V208.497C170.795 209.164 170.988 209.814 171.322 210.393C171.655 210.972 172.12 211.465 172.679 211.832L230.243 245.065C230.84 245.367 231.5 245.525 232.169 245.525C232.838 245.525 233.497 245.367 234.094 245.065L291.649 211.832C292.21 211.467 292.678 210.975 293.013 210.396C293.349 209.816 293.542 209.166 293.579 208.497V50.2742C293.544 49.6053 293.351 48.9542 293.015 48.3745C292.68 47.7947 292.211 47.3029 291.649 46.9394L234.138 13.7065C233.536 13.3968 232.868 13.2352 232.191 13.2352C231.513 13.2352 230.846 13.3968 230.243 13.7065Z" fill="#37474F"/>
<path d="M293.579 50.2653V208.497C293.542 209.164 293.349 209.814 293.015 210.393C292.682 210.972 292.217 211.465 291.658 211.832L234.138 245.065C233.549 245.383 232.887 245.542 232.217 245.527V82.8489C232.885 82.864 233.545 82.7111 234.138 82.4043L291.702 49.1715L292.227 48.7357L292.912 48.1666C293.326 48.7898 293.557 49.517 293.579 50.2653Z" fill="#263238"/>
<path d="M179.892 65.8457L223.004 90.7459C223.563 91.1131 224.028 91.606 224.361 92.1851C224.695 92.7642 224.888 93.4135 224.925 94.0807V110.497C224.925 111.724 224.036 112.222 222.996 111.609L179.892 86.7085C179.33 86.3439 178.862 85.8518 178.527 85.2723C178.192 84.6928 177.998 84.0422 177.962 83.3737V66.9573C177.98 65.7301 178.842 65.2321 179.892 65.8457Z" fill="#455A64"/>
<path d="M181.59 73.0758C181.639 73.7221 181.838 74.3479 182.174 74.9026C182.509 75.4572 182.97 75.9251 183.52 76.2683L219.403 96.9888C220.47 97.6024 221.333 97.1667 221.333 96.0195C221.286 95.3716 221.086 94.744 220.751 94.1877C220.416 93.6314 219.954 93.1621 219.403 92.818L183.52 72.0975C182.453 71.4839 181.59 71.9197 181.59 73.0758Z" fill="#54BD95"/>
<path d="M181.59 81.4173C181.639 82.0636 181.838 82.6895 182.174 83.2441C182.509 83.7988 182.97 84.2667 183.52 84.6099L219.403 105.33C220.47 105.944 221.333 105.508 221.333 104.361C221.286 103.713 221.086 103.086 220.751 102.529C220.416 101.973 219.954 101.504 219.403 101.16L183.52 80.4391C182.453 79.8255 181.59 80.2612 181.59 81.4173Z" fill="#263238"/>
<path d="M183.52 80.4391L203.271 91.8487V96.0195L183.52 84.6099C182.97 84.2667 182.509 83.7988 182.174 83.2441C181.838 82.6895 181.639 82.0636 181.59 81.4173C181.59 80.2612 182.453 79.8255 183.52 80.4391Z" fill="#54BD95"/>
<path d="M179.892 95.0412L223.004 119.941C223.563 120.308 224.028 120.801 224.362 121.38C224.696 121.959 224.889 122.609 224.925 123.276V139.675C224.925 140.902 224.036 141.4 222.996 140.786L179.892 115.886C179.33 115.522 178.862 115.029 178.527 114.45C178.192 113.87 177.998 113.22 177.962 112.551V96.1528C177.98 94.9255 178.842 94.4275 179.892 95.0412Z" fill="#455A64"/>
<path d="M181.59 102.271C181.637 102.919 181.836 103.547 182.172 104.103C182.507 104.659 182.969 105.129 183.52 105.473L219.403 126.184C220.47 126.798 221.333 126.362 221.333 125.215C221.286 124.567 221.086 123.939 220.751 123.383C220.416 122.827 219.954 122.358 219.403 122.013L183.52 101.302C182.453 100.688 181.59 101.124 181.59 102.271Z" fill="#54BD95"/>
<path d="M181.59 110.613C181.637 111.261 181.836 111.888 182.172 112.445C182.507 113.001 182.969 113.47 183.52 113.814L219.403 134.526C220.47 135.148 221.333 134.704 221.333 133.557C221.286 132.909 221.086 132.281 220.751 131.725C220.416 131.168 219.954 130.699 219.403 130.355L183.52 109.643C182.453 109.03 181.59 109.466 181.59 110.613Z" fill="#263238"/>
<path d="M183.52 109.643L214.103 127.296V131.467L183.52 113.814C182.969 113.47 182.507 113.001 182.172 112.445C181.836 111.888 181.637 111.261 181.59 110.613C181.59 109.466 182.453 109.03 183.52 109.643Z" fill="#54BD95"/>
<path d="M179.892 124.201L223.004 149.101C223.563 149.468 224.028 149.961 224.362 150.54C224.696 151.119 224.889 151.769 224.925 152.436V168.843C224.925 170.071 224.036 170.569 222.996 169.955L179.892 145.099C179.33 144.735 178.862 144.243 178.527 143.663C178.192 143.084 177.998 142.433 177.962 141.765V125.348C177.98 124.121 178.842 123.623 179.892 124.201Z" fill="#455A64"/>
<path d="M181.59 131.467C181.637 132.115 181.836 132.742 182.172 133.298C182.507 133.855 182.969 134.324 183.52 134.668L219.403 155.389C220.47 156.002 221.333 155.566 221.333 154.41C221.284 153.764 221.084 153.138 220.749 152.584C220.414 152.029 219.953 151.561 219.403 151.218L183.52 130.497C182.453 129.884 181.59 130.319 181.59 131.467Z" fill="#54BD95"/>
<path d="M181.59 139.817C181.639 140.463 181.838 141.089 182.174 141.644C182.509 142.199 182.97 142.666 183.52 143.01L219.403 163.73C220.47 164.344 221.333 163.908 221.333 162.752C221.284 162.106 221.084 161.48 220.749 160.925C220.414 160.37 219.953 159.903 219.403 159.559L183.52 138.839C182.453 138.225 181.59 138.661 181.59 139.817Z" fill="#263238"/>
<path d="M183.52 138.839L196.041 146.069V150.24L183.52 143.01C182.97 142.666 182.509 142.199 182.174 141.644C181.838 141.089 181.639 140.463 181.59 139.817C181.59 138.661 182.453 138.225 183.52 138.839Z" fill="#54BD95"/>
<path d="M179.892 153.441L223.004 178.341C223.563 178.708 224.028 179.201 224.362 179.78C224.696 180.359 224.889 181.009 224.925 181.676V198.092C224.925 199.319 224.036 199.817 222.996 199.204L179.892 174.304C179.33 173.939 178.862 173.447 178.527 172.867C178.192 172.288 177.998 171.637 177.962 170.969V154.553C177.98 153.325 178.842 152.827 179.892 153.441Z" fill="#455A64"/>
<path d="M181.59 160.662C181.639 161.308 181.838 161.934 182.174 162.489C182.509 163.043 182.97 163.511 183.52 163.855L219.403 184.575C220.47 185.189 221.333 184.753 221.333 183.597C221.284 182.951 221.084 182.325 220.749 181.77C220.414 181.215 219.953 180.747 219.403 180.404L183.52 159.684C182.453 159.079 181.59 159.515 181.59 160.662Z" fill="#54BD95"/>
<path d="M181.59 169.013C181.639 169.659 181.838 170.285 182.174 170.839C182.509 171.394 182.97 171.862 183.52 172.205L219.403 192.926C220.47 193.539 221.333 193.103 221.333 191.956C221.286 191.308 221.086 190.681 220.751 190.124C220.416 189.568 219.954 189.099 219.403 188.755L183.52 168.034C182.453 167.421 181.59 167.856 181.59 169.013Z" fill="#263238"/>
<path d="M183.52 168.034L203.271 179.435V183.606L183.52 172.223C182.97 171.88 182.509 171.412 182.174 170.857C181.838 170.302 181.639 169.677 181.59 169.03C181.59 167.856 182.453 167.421 183.52 168.034Z" fill="#54BD95"/>
<path d="M179.892 182.636L223.004 207.537C223.563 207.903 224.028 208.396 224.362 208.975C224.696 209.555 224.889 210.204 224.925 210.871V227.27C224.925 228.497 224.036 228.995 222.996 228.382L179.892 203.481C179.33 203.117 178.862 202.625 178.527 202.045C178.192 201.466 177.998 200.815 177.962 200.147V183.784C177.98 182.521 178.842 182.005 179.892 182.636Z" fill="#455A64"/>
<path d="M181.59 189.866C181.637 190.514 181.836 191.142 182.172 191.698C182.507 192.254 182.969 192.724 183.52 193.068L219.403 213.779C220.47 214.393 221.333 213.957 221.333 212.81C221.286 212.162 221.086 211.535 220.751 210.978C220.416 210.422 219.954 209.953 219.403 209.609L183.52 188.897C182.453 188.275 181.59 188.719 181.59 189.866Z" fill="#54BD95"/>
<path d="M181.59 198.208C181.637 198.856 181.836 199.483 182.172 200.04C182.507 200.596 182.969 201.065 183.52 201.409L219.403 222.121C220.47 222.735 221.333 222.299 221.333 221.152C221.286 220.504 221.086 219.876 220.751 219.32C220.416 218.764 219.954 218.294 219.403 217.95L183.52 197.239C182.453 196.625 181.59 197.061 181.59 198.208Z" fill="#263238"/>
<path d="M183.52 197.239L210.492 212.81V216.981L183.52 201.409C182.969 201.065 182.507 200.596 182.172 200.04C181.836 199.483 181.637 198.856 181.59 198.208C181.59 197.061 182.453 196.625 183.52 197.239Z" fill="#54BD95"/>
<path d="M241.199 92.8979C243.191 91.7418 244.81 92.7912 244.81 95.2456V190.64C244.762 191.937 244.411 193.205 243.784 194.342C243.156 195.479 242.271 196.453 241.199 197.185C239.207 198.341 237.589 197.283 237.589 194.829V99.4342C237.637 98.138 237.988 96.8712 238.615 95.7359C239.243 94.6006 240.128 93.6284 241.199 92.8979Z" fill="#37474F"/>
<path d="M241.199 195.069C241.731 194.702 242.169 194.216 242.478 193.649C242.787 193.082 242.958 192.45 242.978 191.805V96.1438C242.978 94.9166 242.169 94.3652 241.199 94.9611C240.668 95.3294 240.23 95.8174 239.921 96.3858C239.612 96.9542 239.441 97.5871 239.421 98.2337V193.895C239.394 195.122 240.203 195.647 241.199 195.069Z" fill="#263238"/>
<path d="M241.199 195.069C241.731 194.702 242.169 194.216 242.478 193.649C242.787 193.082 242.958 192.45 242.978 191.805V146.069L239.367 148.159V193.895C239.394 195.122 240.203 195.647 241.199 195.069Z" fill="#54BD95"/>
<path d="M252.031 86.6373C254.032 85.4812 255.65 86.5395 255.65 88.9939V184.388C255.603 185.684 255.251 186.951 254.624 188.087C253.997 189.222 253.112 190.194 252.04 190.925C250.039 192.081 248.42 191.031 248.42 188.577V93.1825C248.468 91.8851 248.82 90.617 249.447 89.4803C250.074 88.3435 250.959 87.3697 252.031 86.6373Z" fill="#37474F"/>
<path d="M252.04 188.817C252.57 188.45 253.008 187.963 253.317 187.396C253.625 186.83 253.797 186.198 253.818 185.553V89.8922C253.818 88.6561 253.009 88.1136 252.04 88.7094C251.509 89.0769 251.072 89.5635 250.763 90.1302C250.454 90.6969 250.282 91.3281 250.261 91.9731V187.634C250.226 188.861 251.035 189.395 252.04 188.817Z" fill="#54BD95"/>
<path d="M262.871 80.3858C264.863 79.2297 266.482 80.2791 266.482 82.7336V178.128C266.436 179.426 266.086 180.695 265.458 181.832C264.831 182.969 263.945 183.942 262.871 184.673C260.879 185.829 259.261 184.771 259.261 182.316V86.9221C259.309 85.626 259.66 84.3592 260.287 83.2238C260.915 82.0885 261.8 81.1164 262.871 80.3858Z" fill="#37474F"/>
<path d="M262.871 182.557C263.403 182.19 263.841 181.704 264.15 181.137C264.459 180.57 264.63 179.938 264.65 179.293V83.6317C264.65 82.4045 263.841 81.8532 262.871 82.449C262.341 82.8164 261.904 83.303 261.595 83.8697C261.286 84.4365 261.114 85.0676 261.093 85.7127V181.383C261.066 182.61 261.875 183.135 262.871 182.557Z" fill="#263238"/>
<path d="M262.871 182.556C263.403 182.19 263.841 181.704 264.15 181.137C264.459 180.57 264.63 179.938 264.65 179.293V105.401L261.039 107.482V181.383C261.066 182.61 261.875 183.134 262.871 182.556Z" fill="#54BD95"/>
<path d="M273.712 74.1251C275.704 72.9691 277.322 74.0184 277.322 76.4818V171.876C277.28 173.178 276.931 174.452 276.304 175.594C275.676 176.736 274.788 177.714 273.712 178.448C271.711 179.604 270.101 178.555 270.101 176.1V80.6703C270.146 79.3723 270.497 78.1033 271.124 76.966C271.751 75.8288 272.638 74.8555 273.712 74.1251Z" fill="#37474F"/>
<path d="M273.712 176.305C274.243 175.937 274.68 175.451 274.989 174.884C275.297 174.317 275.469 173.686 275.491 173.041V77.3709C275.491 76.1437 274.681 75.5923 273.712 76.1971C273.18 76.5635 272.742 77.0498 272.433 77.6168C272.124 78.1837 271.953 78.8154 271.933 79.4608V175.122C271.907 176.349 272.716 176.883 273.712 176.305Z" fill="#263238"/>
<path d="M273.712 176.305C274.242 175.937 274.68 175.451 274.989 174.884C275.297 174.317 275.469 173.686 275.49 173.041V156.892L271.88 158.973V175.122C271.907 176.349 272.716 176.883 273.712 176.305Z" fill="#54BD95"/>
<path d="M284.544 67.8735C286.544 66.7174 288.163 67.7668 288.163 70.2212V165.616C288.116 166.914 287.763 168.183 287.134 169.32C286.506 170.457 285.618 171.43 284.544 172.161C282.551 173.317 280.933 172.259 280.933 169.804V74.4009C280.982 73.1063 281.334 71.8412 281.961 70.7075C282.589 69.5738 283.473 68.6031 284.544 67.8735Z" fill="#37474F"/>
<path d="M284.543 170.044C285.075 169.678 285.513 169.191 285.822 168.624C286.131 168.058 286.302 167.426 286.322 166.781V71.1194C286.322 69.8922 285.522 69.3408 284.543 69.9366C284.013 70.3041 283.576 70.7907 283.267 71.3574C282.958 71.9241 282.786 72.5553 282.765 73.2003V168.87C282.738 170.098 283.547 170.622 284.543 170.044Z" fill="#263238"/>
<path d="M284.543 170.044C285.075 169.678 285.513 169.191 285.822 168.624C286.131 168.057 286.302 167.426 286.322 166.78V116.873L282.711 118.954V168.87C282.738 170.097 283.547 170.622 284.543 170.044Z" fill="#54BD95"/>
<path d="M239.127 208.791L286.607 181.374C287.496 180.876 288.154 181.276 288.154 182.263V199.56C288.124 200.095 287.968 200.615 287.699 201.079C287.431 201.542 287.056 201.936 286.607 202.228L239.118 229.645C238.229 230.134 237.58 229.742 237.58 228.755V211.458C237.609 210.923 237.764 210.403 238.033 209.939C238.302 209.475 238.677 209.082 239.127 208.791Z" fill="#37474F"/>
<path d="M241.075 213.922C241.075 215.069 241.964 215.505 243.005 214.891L282.738 191.947C283.289 191.603 283.751 191.134 284.086 190.578C284.422 190.021 284.621 189.394 284.668 188.746C284.668 187.599 283.779 187.163 282.738 187.777L243.031 210.72C242.475 211.061 242.008 211.529 241.668 212.086C241.328 212.642 241.125 213.271 241.075 213.922Z" fill="#263238"/>
<path d="M241.075 213.922C241.075 215.069 241.964 215.505 243.005 214.891L271.907 198.199V194.028L243.031 210.72C242.475 211.061 242.008 211.529 241.668 212.086C241.328 212.642 241.125 213.272 241.075 213.922Z" fill="#54BD95"/>
<path d="M241.075 222.263C241.075 223.41 241.964 223.846 243.005 223.233L282.738 200.289C283.289 199.945 283.751 199.475 284.086 198.919C284.422 198.363 284.621 197.735 284.668 197.087C284.668 195.94 283.779 195.504 282.738 196.118L243.031 219.062C242.475 219.403 242.008 219.871 241.668 220.427C241.328 220.984 241.125 221.613 241.075 222.263Z" fill="#263238"/>
<path d="M241.075 222.263C241.075 223.41 241.964 223.846 243.005 223.232L253.845 217.007V212.837L243.005 219.062C242.454 219.406 241.992 219.875 241.656 220.431C241.321 220.988 241.122 221.615 241.075 222.263Z" fill="#54BD95"/>
<path d="M291.649 46.9394L234.138 13.7066C233.542 13.4042 232.882 13.2466 232.213 13.2466C231.544 13.2466 230.884 13.4042 230.288 13.7066L172.679 46.9394C172.447 47.0182 172.245 47.1678 172.102 47.3672C171.96 47.5666 171.883 47.8057 171.883 48.051C171.883 48.2963 171.96 48.5355 172.102 48.7348C172.245 48.9342 172.447 49.0838 172.679 49.1626L230.243 82.4044C230.84 82.7067 231.5 82.8643 232.169 82.8643C232.838 82.8643 233.497 82.7067 234.094 82.4044L291.649 49.1804C291.888 49.1059 292.096 48.9569 292.245 48.7554C292.393 48.5538 292.473 48.3101 292.473 48.0599C292.473 47.8097 292.393 47.5661 292.245 47.3645C292.096 47.1629 291.888 47.014 291.649 46.9394Z" fill="#455A64"/>
<path d="M231.008 74.4898L186.366 48.7003C186.03 48.4802 185.751 48.1846 185.55 47.8371C185.349 47.4897 185.233 47.1 185.21 46.6994V45.1876C185.233 44.787 185.349 44.3974 185.55 44.0499C185.751 43.7025 186.03 43.4068 186.366 43.1867L231.008 17.3973C231.366 17.2132 231.762 17.1171 232.164 17.1171C232.566 17.1171 232.963 17.2132 233.32 17.3973L277.972 43.1867C278.309 43.4053 278.589 43.7005 278.79 44.0483C278.991 44.3961 279.107 44.7865 279.128 45.1876V46.6905C279.105 47.0912 278.988 47.4808 278.787 47.8283C278.586 48.1757 278.307 48.4713 277.972 48.6914L233.32 74.4809C232.963 74.6664 232.567 74.7639 232.165 74.7655C231.763 74.767 231.366 74.6725 231.008 74.4898Z" fill="#263238"/>
<path d="M186.366 44.5384L231.008 70.3279C231.366 70.512 231.762 70.608 232.164 70.608C232.566 70.608 232.963 70.512 233.32 70.3279L277.972 44.5384C278.612 44.1649 278.612 43.5691 277.972 43.2045L233.32 18.3043C232.963 18.1202 232.566 18.0242 232.164 18.0242C231.762 18.0242 231.366 18.1202 231.008 18.3043L186.366 43.2045C185.725 43.578 185.725 44.1649 186.366 44.5384Z" fill="#455A64"/>
<path d="M232.173 70.5945V74.7653C231.77 74.7744 231.372 74.6795 231.017 74.4896L186.366 48.7001C186.029 48.4816 185.748 48.1863 185.547 47.8385C185.346 47.4908 185.231 47.1003 185.21 46.6992V45.2052C185.225 44.851 185.314 44.5038 185.47 44.1855C185.626 43.8671 185.846 43.5845 186.117 43.3555C185.699 43.7201 185.77 44.2448 186.33 44.5382L230.981 70.3277C231.348 70.5206 231.759 70.6126 232.173 70.5945Z" fill="#37474F"/>
<path d="M231.008 61.9507L200.772 44.5117C200.436 44.2921 200.156 43.9966 199.956 43.6491C199.755 43.3015 199.638 42.9116 199.616 42.5108V41.0346C199.641 40.6343 199.758 40.2452 199.958 39.8979C200.159 39.5507 200.438 39.2548 200.772 39.0337L220.176 27.8553C220.921 27.3944 221.58 26.8077 222.124 26.1212L231.373 13.6711C231.596 13.3832 231.915 13.1848 232.273 13.1114C232.63 13.038 233.001 13.0946 233.32 13.2709L263.556 30.701C263.893 30.9201 264.173 31.2155 264.374 31.5631C264.574 31.9108 264.69 32.301 264.712 32.7019V42.5464C264.689 42.947 264.573 43.3366 264.372 43.6841C264.171 44.0316 263.892 44.3272 263.556 44.5473L233.32 61.9774C232.961 62.1574 232.563 62.2489 232.161 62.2442C231.759 62.2396 231.363 62.139 231.008 61.9507Z" fill="#263238"/>
<path d="M233.32 57.8066L252.689 46.6282C253.435 46.151 254.094 45.5494 254.636 44.8496L263.885 32.3995C263.996 32.2653 264.076 32.1079 264.118 31.9389C264.16 31.7699 264.164 31.5935 264.129 31.4229C264.094 31.2522 264.021 31.0916 263.916 30.9528C263.81 30.814 263.675 30.7006 263.521 30.6209L233.285 13.1908C232.966 13.0145 232.594 12.9579 232.237 13.0313C231.88 13.1047 231.561 13.3032 231.337 13.591L222.088 26.0411C221.605 26.7339 221.003 27.336 220.31 27.8197L200.745 38.9269C200.605 38.9733 200.483 39.0628 200.397 39.1825C200.31 39.3022 200.264 39.4462 200.264 39.5939C200.264 39.7416 200.31 39.8856 200.397 40.0053C200.483 40.125 200.605 40.2145 200.745 40.2609L230.981 57.6999C231.334 57.9051 231.73 58.022 232.138 58.0406C232.545 58.0592 232.951 57.9789 233.32 57.8066Z" fill="#455A64"/>
<path d="M263.485 30.6922L233.249 13.262C232.93 13.0857 232.558 13.0292 232.201 13.1025C231.844 13.1759 231.525 13.3744 231.302 13.6622L222.053 26.1123C221.77 26.4698 221.454 26.8003 221.11 27.0994C221.11 27.0994 253.703 45.8813 253.703 45.8724C254.047 45.5761 254.362 45.2487 254.645 44.8941L263.894 32.4441C263.999 32.3074 264.071 32.1494 264.108 31.9812C264.144 31.8131 264.142 31.639 264.103 31.4715C264.064 31.3041 263.988 31.1473 263.881 31.0126C263.775 30.8778 263.639 30.7684 263.485 30.6922Z" fill="#37474F"/>
<path d="M208.135 39.345C208.555 39.1304 209.02 39.0184 209.492 39.0184C209.963 39.0184 210.428 39.1304 210.848 39.345C211.011 39.4008 211.153 39.5063 211.253 39.6466C211.353 39.7869 211.407 39.9551 211.407 40.1276C211.407 40.3001 211.353 40.4683 211.253 40.6086C211.153 40.7489 211.011 40.8544 210.848 40.9102C210.427 41.1207 209.962 41.2303 209.492 41.2303C209.021 41.2303 208.557 41.1207 208.135 40.9102C207.972 40.8544 207.831 40.7489 207.73 40.6086C207.63 40.4683 207.576 40.3001 207.576 40.1276C207.576 39.9551 207.63 39.7869 207.73 39.6466C207.831 39.5063 207.972 39.4008 208.135 39.345Z" fill="#54BD95"/>
<path d="M213.56 42.4753C213.974 42.2666 214.431 42.1578 214.894 42.1578C215.358 42.1578 215.814 42.2666 216.228 42.4753C216.391 42.5311 216.533 42.6365 216.633 42.7769C216.734 42.9172 216.788 43.0854 216.788 43.2579C216.788 43.4304 216.734 43.5986 216.633 43.7389C216.533 43.8792 216.391 43.9846 216.228 44.0404C215.813 44.2451 215.357 44.3516 214.894 44.3516C214.432 44.3516 213.975 44.2451 213.56 44.0404C213.397 43.9846 213.255 43.8792 213.155 43.7389C213.055 43.5986 213.001 43.4304 213.001 43.2579C213.001 43.0854 213.055 42.9172 213.155 42.7769C213.255 42.6365 213.397 42.5311 213.56 42.4753Z" fill="#54BD95"/>
<path d="M219.02 45.5965C219.442 45.386 219.906 45.2764 220.377 45.2764C220.847 45.2764 221.312 45.386 221.733 45.5965C221.896 45.6523 222.038 45.7578 222.138 45.8981C222.238 46.0384 222.292 46.2066 222.292 46.3791C222.292 46.5516 222.238 46.7198 222.138 46.8601C222.038 47.0004 221.896 47.1059 221.733 47.1617C221.313 47.3763 220.848 47.4883 220.377 47.4883C219.905 47.4883 219.44 47.3763 219.02 47.1617C218.857 47.1059 218.716 47.0004 218.615 46.8601C218.515 46.7198 218.461 46.5516 218.461 46.3791C218.461 46.2066 218.515 46.0384 218.615 45.8981C218.716 45.7578 218.857 45.6523 219.02 45.5965Z" fill="#263238"/>
<path d="M224.356 48.727C224.777 48.5165 225.242 48.4069 225.712 48.4069C226.183 48.4069 226.647 48.5165 227.068 48.727C227.232 48.7828 227.373 48.8882 227.474 49.0286C227.574 49.1689 227.628 49.3371 227.628 49.5096C227.628 49.6821 227.574 49.8503 227.474 49.9906C227.373 50.1309 227.232 50.2364 227.068 50.2922C226.649 50.5068 226.184 50.6187 225.712 50.6187C225.241 50.6187 224.776 50.5068 224.356 50.2922C224.193 50.2364 224.051 50.1309 223.951 49.9906C223.851 49.8503 223.797 49.6821 223.797 49.5096C223.797 49.3371 223.851 49.1689 223.951 49.0286C224.051 48.8882 224.193 48.7828 224.356 48.727Z" fill="#263238"/>
<path d="M213.56 38.8824C214.616 38.8824 215.472 38.3887 215.472 37.7797C215.472 37.1706 214.616 36.6769 213.56 36.6769C212.504 36.6769 211.648 37.1706 211.648 37.7797C211.648 38.3887 212.504 38.8824 213.56 38.8824Z" fill="#54BD95"/>
<path d="M217.624 40.1274C218.038 39.9187 218.495 39.81 218.958 39.81C219.422 39.81 219.878 39.9187 220.292 40.1274C220.455 40.1832 220.597 40.2887 220.697 40.429C220.798 40.5693 220.852 40.7375 220.852 40.91C220.852 41.0825 220.798 41.2507 220.697 41.391C220.597 41.5314 220.455 41.6368 220.292 41.6926C219.877 41.8973 219.421 42.0038 218.958 42.0038C218.496 42.0038 218.039 41.8973 217.624 41.6926C216.868 41.2569 216.868 40.5543 217.624 40.1274Z" fill="#263238"/>
<path d="M224.392 45.1431C225.448 45.1431 226.304 44.6494 226.304 44.0404C226.304 43.4314 225.448 42.9377 224.392 42.9377C223.336 42.9377 222.48 43.4314 222.48 44.0404C222.48 44.6494 223.336 45.1431 224.392 45.1431Z" fill="#54BD95"/>
<path d="M228.456 46.3791C228.871 46.1757 229.327 46.0699 229.79 46.0699C230.252 46.0699 230.708 46.1757 231.124 46.3791C231.287 46.4349 231.429 46.5403 231.529 46.6807C231.629 46.821 231.683 46.9892 231.683 47.1617C231.683 47.3342 231.629 47.5023 231.529 47.6427C231.429 47.783 231.287 47.8884 231.124 47.9442C230.71 48.1516 230.253 48.2596 229.79 48.2596C229.327 48.2596 228.87 48.1516 228.456 47.9442C228.293 47.8884 228.151 47.783 228.051 47.6427C227.95 47.5023 227.896 47.3342 227.896 47.1617C227.896 46.9892 227.95 46.821 228.051 46.6807C228.151 46.5403 228.293 46.4349 228.456 46.3791Z" fill="#263238"/>
<path d="M216.264 34.6495C216.679 34.4461 217.135 34.3403 217.598 34.3403C218.06 34.3403 218.516 34.4461 218.932 34.6495C219.095 34.7053 219.236 34.8107 219.337 34.951C219.437 35.0914 219.491 35.2596 219.491 35.4321C219.491 35.6046 219.437 35.7727 219.337 35.9131C219.236 36.0534 219.095 36.1588 218.932 36.2146C218.517 36.422 218.061 36.53 217.598 36.53C217.134 36.53 216.678 36.422 216.264 36.2146C216.1 36.1588 215.959 36.0534 215.858 35.9131C215.758 35.7727 215.704 35.6046 215.704 35.4321C215.704 35.2596 215.758 35.0914 215.858 34.951C215.959 34.8107 216.1 34.7053 216.264 34.6495Z" fill="#263238"/>
<path d="M221.688 37.7796C222.102 37.5709 222.559 37.4622 223.022 37.4622C223.486 37.4622 223.942 37.5709 224.356 37.7796C224.519 37.8354 224.661 37.9409 224.761 38.0812C224.862 38.2215 224.916 38.3897 224.916 38.5622C224.916 38.7347 224.862 38.9029 224.761 39.0432C224.661 39.1835 224.519 39.289 224.356 39.3448C223.941 39.5495 223.485 39.6559 223.022 39.6559C222.56 39.6559 222.103 39.5495 221.688 39.3448C221.525 39.289 221.383 39.1835 221.283 39.0432C221.183 38.9029 221.129 38.7347 221.129 38.5622C221.129 38.3897 221.183 38.2215 221.283 38.0812C221.383 37.9409 221.525 37.8354 221.688 37.7796Z" fill="#54BD95"/>
<path d="M227.104 40.9101C227.518 40.7027 227.975 40.5947 228.438 40.5947C228.901 40.5947 229.358 40.7027 229.772 40.9101C229.935 40.9659 230.077 41.0713 230.177 41.2116C230.278 41.3519 230.331 41.5201 230.331 41.6926C230.331 41.8651 230.278 42.0333 230.177 42.1736C230.077 42.314 229.935 42.4194 229.772 42.4752C229.357 42.6786 228.9 42.7844 228.438 42.7844C227.976 42.7844 227.519 42.6786 227.104 42.4752C226.941 42.4194 226.799 42.314 226.699 42.1736C226.598 42.0333 226.545 41.8651 226.545 41.6926C226.545 41.5201 226.598 41.3519 226.699 41.2116C226.799 41.0713 226.941 40.9659 227.104 40.9101Z" fill="#263238"/>
<path d="M229.843 51.795C230.263 51.5804 230.728 51.4684 231.199 51.4684C231.671 51.4684 232.136 51.5804 232.555 51.795C232.719 51.8508 232.86 51.9563 232.961 52.0966C233.061 52.2369 233.115 52.4051 233.115 52.5776C233.115 52.7501 233.061 52.9183 232.961 53.0586C232.86 53.1989 232.719 53.3044 232.555 53.3602C232.134 53.5707 231.67 53.6803 231.199 53.6803C230.728 53.6803 230.264 53.5707 229.843 53.3602C229.68 53.3044 229.538 53.1989 229.438 53.0586C229.338 52.9183 229.284 52.7501 229.284 52.5776C229.284 52.4051 229.338 52.2369 229.438 52.0966C229.538 51.9563 229.68 51.8508 229.843 51.795Z" fill="#54BD95"/>
<path d="M235.259 51.3325C236.315 51.3325 237.171 50.8388 237.171 50.2297C237.171 49.6207 236.315 49.127 235.259 49.127C234.203 49.127 233.347 49.6207 233.347 50.2297C233.347 50.8388 234.203 51.3325 235.259 51.3325Z" fill="#263238"/>
<path d="M232.52 44.0403C232.934 43.8329 233.391 43.725 233.854 43.725C234.317 43.725 234.774 43.8329 235.188 44.0403C235.351 44.0961 235.493 44.2015 235.593 44.3419C235.693 44.4822 235.747 44.6504 235.747 44.8229C235.747 44.9954 235.693 45.1636 235.593 45.3039C235.493 45.4442 235.351 45.5497 235.188 45.6055C234.772 45.8089 234.316 45.9146 233.854 45.9146C233.391 45.9146 232.935 45.8089 232.52 45.6055C232.357 45.5497 232.215 45.4442 232.115 45.3039C232.014 45.1636 231.96 44.9954 231.96 44.8229C231.96 44.6504 232.014 44.4822 232.115 44.3419C232.215 44.2015 232.357 44.0961 232.52 44.0403Z" fill="#263238"/>
<path d="M220.328 32.3107C220.747 32.0961 221.212 31.9841 221.684 31.9841C222.155 31.9841 222.62 32.0961 223.04 32.3107C223.203 32.3665 223.345 32.472 223.445 32.6123C223.546 32.7526 223.599 32.9208 223.599 33.0933C223.599 33.2658 223.546 33.434 223.445 33.5743C223.345 33.7146 223.203 33.8201 223.04 33.8759C222.619 34.0864 222.155 34.196 221.684 34.196C221.213 34.196 220.749 34.0864 220.328 33.8759C220.164 33.8201 220.023 33.7146 219.922 33.5743C219.822 33.434 219.768 33.2658 219.768 33.0933C219.768 32.9208 219.822 32.7526 219.922 32.6123C220.023 32.472 220.164 32.3665 220.328 32.3107Z" fill="#54BD95"/>
<path d="M227.104 37.3173C228.16 37.3173 229.016 36.8236 229.016 36.2145C229.016 35.6055 228.16 35.1118 227.104 35.1118C226.048 35.1118 225.192 35.6055 225.192 36.2145C225.192 36.8236 226.048 37.3173 227.104 37.3173Z" fill="#263238"/>
<path d="M231.168 38.5624C231.583 38.3577 232.039 38.2512 232.502 38.2512C232.965 38.2512 233.421 38.3577 233.836 38.5624C233.999 38.6182 234.141 38.7236 234.241 38.864C234.342 39.0043 234.396 39.1725 234.396 39.345C234.396 39.5175 234.342 39.6857 234.241 39.826C234.141 39.9663 233.999 40.0718 233.836 40.1276C233.422 40.3363 232.965 40.445 232.502 40.445C232.039 40.445 231.582 40.3363 231.168 40.1276C231.005 40.0718 230.863 39.9663 230.763 39.826C230.663 39.6857 230.609 39.5175 230.609 39.345C230.609 39.1725 230.663 39.0043 230.763 38.864C230.863 38.7236 231.005 38.6182 231.168 38.5624Z" fill="#54BD95"/>
<path d="M237.936 43.578C238.992 43.578 239.848 43.0843 239.848 42.4753C239.848 41.8663 238.992 41.3726 237.936 41.3726C236.88 41.3726 236.024 41.8663 236.024 42.4753C236.024 43.0843 236.88 43.578 237.936 43.578Z" fill="#263238"/>
<path d="M237.971 47.1083C238.391 46.8937 238.856 46.7817 239.327 46.7817C239.799 46.7817 240.264 46.8937 240.684 47.1083C240.848 47.1617 240.991 47.2657 241.093 47.4055C241.194 47.5453 241.249 47.7137 241.249 47.8864C241.249 48.0592 241.194 48.2276 241.093 48.3674C240.991 48.5072 240.848 48.6112 240.684 48.6646C240.264 48.8792 239.799 48.9912 239.327 48.9912C238.856 48.9912 238.391 48.8792 237.971 48.6646C237.807 48.6112 237.664 48.5072 237.562 48.3674C237.461 48.2276 237.406 48.0592 237.406 47.8864C237.406 47.7137 237.461 47.5453 237.562 47.4055C237.664 47.2657 237.807 47.1617 237.971 47.1083Z" fill="#54BD95"/>
<path d="M242.035 44.7608C242.449 44.552 242.906 44.4433 243.369 44.4433C243.833 44.4433 244.289 44.552 244.703 44.7608C245.459 45.1876 245.459 45.8902 244.703 46.3259C244.288 46.5306 243.832 46.6371 243.369 46.6371C242.907 46.6371 242.45 46.5306 242.035 46.3259C241.872 46.2701 241.73 46.1647 241.63 46.0243C241.53 45.884 241.476 45.7158 241.476 45.5433C241.476 45.3708 241.53 45.2026 241.63 45.0623C241.73 44.922 241.872 44.8166 242.035 44.7608Z" fill="#263238"/>
<path d="M232.235 58.0824V62.2443C231.813 62.2646 231.392 62.1726 231.017 61.9775L200.781 44.5385C200.444 44.3199 200.164 44.0247 199.963 43.6769C199.762 43.3291 199.646 42.9387 199.625 42.5376V41.0347C199.645 40.6777 199.739 40.3289 199.901 40.0104C200.063 39.6919 200.29 39.4107 200.568 39.1849C200.15 39.5495 200.221 40.0742 200.781 40.3677L231.017 57.8067C231.391 58.0049 231.812 58.1 232.235 58.0824Z" fill="#37474F"/>
<path d="M226.135 25.5965C226.283 25.4036 226.496 25.2705 226.734 25.2216C226.973 25.1726 227.221 25.211 227.433 25.3297L253.703 40.4655C253.801 40.5199 253.886 40.5951 253.952 40.6857C254.018 40.7762 254.064 40.8801 254.086 40.9901C254.108 41.1 254.105 41.2135 254.079 41.3225C254.053 41.4315 254.004 41.5336 253.934 41.6216C253.786 41.8144 253.574 41.9481 253.336 41.9987C253.098 42.0492 252.849 42.0132 252.636 41.8972L226.357 26.7615C226.259 26.7053 226.175 26.6288 226.11 26.537C226.045 26.4453 226 26.3406 225.979 26.23C225.958 26.1194 225.961 26.0056 225.988 25.8962C226.014 25.7869 226.065 25.6847 226.135 25.5965Z" fill="#263238"/>
<path d="M226.135 25.5965C226.283 25.4036 226.496 25.2705 226.734 25.2216C226.973 25.1726 227.221 25.211 227.433 25.3297L246.998 36.606L245.913 38.0733L226.348 26.7971C226.246 26.7408 226.157 26.6623 226.089 26.5672C226.02 26.4722 225.974 26.3631 225.954 26.2479C225.934 26.1327 225.939 26.0144 225.97 25.9017C226.002 25.789 226.058 25.6847 226.135 25.5965Z" fill="#54BD95"/>
<path d="M228.296 22.6797C228.444 22.4868 228.657 22.3537 228.895 22.3047C229.134 22.2557 229.382 22.2941 229.594 22.4129L255.873 37.5842C255.971 37.6379 256.057 37.7124 256.124 37.8026C256.191 37.8928 256.238 37.9966 256.261 38.1066C256.284 38.2166 256.282 38.3303 256.257 38.4397C256.231 38.5492 256.182 38.6517 256.113 38.7403C255.961 38.9309 255.747 39.062 255.508 39.1108C255.269 39.1595 255.02 39.1228 254.806 39.0071L228.536 23.8446C228.437 23.79 228.351 23.7146 228.284 23.6236C228.217 23.5326 228.17 23.4281 228.148 23.3174C228.125 23.2067 228.126 23.0924 228.152 22.9823C228.177 22.8722 228.226 22.769 228.296 22.6797Z" fill="#263238"/>
<path d="M228.296 22.6797C228.444 22.4868 228.657 22.3537 228.895 22.3047C229.134 22.2557 229.382 22.2941 229.594 22.4129L236.121 26.1835L235.028 27.6063L228.5 23.8446C228.404 23.7869 228.321 23.7092 228.258 23.6168C228.194 23.5243 228.151 23.4193 228.132 23.3088C228.113 23.1984 228.117 23.085 228.145 22.9764C228.174 22.8679 228.225 22.7667 228.296 22.6797Z" fill="#54BD95"/>
<path d="M230.466 19.7716C230.614 19.5787 230.827 19.4456 231.065 19.3967C231.304 19.3477 231.552 19.3861 231.764 19.5049L258.043 34.6762C258.142 34.7308 258.228 34.8062 258.295 34.8972C258.362 34.9882 258.408 35.0927 258.431 35.2034C258.454 35.3141 258.452 35.4284 258.427 35.5385C258.401 35.6486 258.352 35.7518 258.283 35.8411C258.132 36.0311 257.919 36.1619 257.682 36.2107C257.445 36.2594 257.198 36.2231 256.984 36.1079L230.706 20.9277C230.607 20.874 230.521 20.7995 230.454 20.7093C230.387 20.6191 230.341 20.5154 230.318 20.4053C230.295 20.2953 230.296 20.1816 230.322 20.0722C230.347 19.9627 230.396 19.8602 230.466 19.7716Z" fill="#263238"/>
<path d="M230.466 19.7716C230.614 19.5787 230.827 19.4456 231.065 19.3967C231.304 19.3477 231.552 19.3861 231.764 19.5049L245.45 27.384L244.365 28.8424L230.679 20.9722C230.575 20.9171 230.485 20.8392 230.416 20.7442C230.347 20.6492 230.3 20.5397 230.28 20.424C230.259 20.3082 230.265 20.1894 230.297 20.0763C230.33 19.9633 230.387 19.8591 230.466 19.7716Z" fill="#54BD95"/>
<path d="M232.635 16.8546C232.784 16.6617 232.996 16.528 233.234 16.4775C233.472 16.427 233.72 16.4629 233.934 16.5789L260.248 31.7147C260.346 31.7701 260.431 31.846 260.498 31.9374C260.564 32.0288 260.609 32.1334 260.631 32.244C260.653 32.3547 260.651 32.4688 260.625 32.5785C260.598 32.6882 260.549 32.7909 260.479 32.8796C260.331 33.0725 260.118 33.2056 259.88 33.2546C259.641 33.3036 259.393 33.2652 259.181 33.1464L232.876 18.0107C232.777 17.957 232.691 17.8825 232.624 17.7922C232.557 17.702 232.51 17.5983 232.488 17.4883C232.465 17.3782 232.466 17.2646 232.492 17.1551C232.517 17.0457 232.566 16.9431 232.635 16.8546Z" fill="#263238"/>
<path d="M232.635 16.8546C232.784 16.6617 232.996 16.528 233.234 16.4775C233.472 16.427 233.72 16.4629 233.934 16.5789L257.794 30.354L256.7 31.8125L232.876 18.0107C232.777 17.957 232.691 17.8825 232.624 17.7922C232.557 17.702 232.51 17.5983 232.488 17.4883C232.465 17.3782 232.466 17.2646 232.492 17.1551C232.517 17.0457 232.566 16.9431 232.635 16.8546Z" fill="#54BD95"/>
<path d="M125.485 74.1783L67.9209 107.411C67.361 107.777 66.8952 108.269 66.5614 108.849C66.2277 109.428 66.0353 110.078 66 110.746V268.969C66.0367 269.636 66.2296 270.286 66.5633 270.865C66.8969 271.444 67.3619 271.937 67.9209 272.304L125.485 305.536C126.081 305.839 126.741 305.996 127.41 305.996C128.079 305.996 128.739 305.839 129.335 305.536L186.89 272.304C187.452 271.939 187.919 271.447 188.255 270.867C188.59 270.288 188.784 269.637 188.82 268.969V110.746C188.784 110.077 188.59 109.427 188.255 108.847C187.919 108.268 187.452 107.776 186.89 107.411L129.335 74.1783C128.739 73.876 128.079 73.7184 127.41 73.7184C126.741 73.7184 126.081 73.876 125.485 74.1783Z" fill="#37474F"/>
<path d="M188.785 110.737V268.969C188.748 269.636 188.555 270.286 188.221 270.865C187.888 271.444 187.423 271.937 186.864 272.304L129.3 305.536C128.711 305.855 128.049 306.014 127.379 305.999V143.321C128.048 143.33 128.709 143.171 129.3 142.858L186.864 109.625L187.388 109.19L188.073 108.62C188.507 109.244 188.754 109.978 188.785 110.737Z" fill="#263238"/>
<path d="M75.1508 126.317L118.264 151.218C118.824 151.583 119.289 152.076 119.623 152.655C119.957 153.235 120.149 153.885 120.185 154.552V170.96C120.185 172.187 119.295 172.685 118.255 172.072L75.1508 147.171C74.5892 146.807 74.1217 146.315 73.7864 145.735C73.451 145.156 73.2573 144.505 73.221 143.837V127.429C73.221 126.202 74.0659 125.704 75.1508 126.317Z" fill="#455A64"/>
<path d="M76.8404 133.547C76.8864 134.193 77.0843 134.819 77.4182 135.374C77.752 135.929 78.2122 136.397 78.7613 136.74L114.644 157.461C115.711 158.074 116.574 157.638 116.574 156.491C116.527 155.843 116.328 155.216 115.992 154.659C115.657 154.103 115.195 153.634 114.644 153.29L78.7613 132.569C77.6941 131.956 76.8404 132.391 76.8404 133.547Z" fill="#54BD95"/>
<path d="M76.8404 141.889C76.8864 142.535 77.0843 143.161 77.4182 143.716C77.752 144.27 78.2122 144.738 78.7613 145.082L114.644 165.802C115.711 166.416 116.574 165.98 116.574 164.833C116.527 164.185 116.328 163.557 115.992 163.001C115.657 162.445 115.195 161.975 114.644 161.631L78.7613 140.911C77.6941 140.297 76.8404 140.733 76.8404 141.889Z" fill="#263238"/>
<path d="M78.7613 140.911L98.5125 152.32V156.491L78.7613 145.082C78.2122 144.738 77.752 144.27 77.4182 143.716C77.0843 143.161 76.8864 142.535 76.8404 141.889C76.8404 140.733 77.6941 140.297 78.7613 140.911Z" fill="#54BD95"/>
<path d="M75.1508 155.513L118.264 180.413C118.823 180.78 119.288 181.272 119.621 181.852C119.955 182.431 120.148 183.08 120.185 183.748V200.146C120.185 201.374 119.295 201.872 118.255 201.258L75.1508 176.358C74.5892 175.993 74.1217 175.501 73.7864 174.922C73.451 174.342 73.2573 173.692 73.221 173.023V156.625C73.221 155.397 74.0659 154.899 75.1508 155.513Z" fill="#455A64"/>
<path d="M76.8404 162.743C76.8857 163.39 77.0833 164.018 77.4171 164.574C77.751 165.13 78.2115 165.6 78.7613 165.944L114.644 186.656C115.711 187.27 116.574 186.834 116.574 185.687C116.527 185.039 116.328 184.411 115.992 183.855C115.657 183.299 115.195 182.829 114.644 182.485L78.7613 161.774C77.6941 161.16 76.8404 161.596 76.8404 162.743Z" fill="#54BD95"/>
<path d="M76.8404 171.085C76.8857 171.732 77.0833 172.359 77.4171 172.915C77.751 173.472 78.2115 173.941 78.7613 174.286L114.644 195.006C115.711 195.62 116.574 195.184 116.574 194.028C116.526 193.381 116.327 192.753 115.991 192.197C115.656 191.641 115.195 191.171 114.644 190.827L78.7613 170.115C77.6941 169.502 76.8404 169.937 76.8404 171.085Z" fill="#263238"/>
<path d="M78.7613 170.115L109.344 187.768V191.938L78.7613 174.286C78.2115 173.941 77.751 173.472 77.4171 172.915C77.0833 172.359 76.8857 171.732 76.8404 171.085C76.8404 169.937 77.6941 169.502 78.7613 170.115Z" fill="#54BD95"/>
<path d="M75.1508 184.673L118.264 209.573C118.823 209.94 119.288 210.433 119.621 211.012C119.955 211.591 120.148 212.241 120.185 212.908V229.315C120.185 230.543 119.295 231.041 118.255 230.427L75.1508 205.527C74.5892 205.162 74.1217 204.67 73.7864 204.091C73.451 203.511 73.2573 202.861 73.221 202.192V185.82C73.221 184.593 74.0659 184.095 75.1508 184.673Z" fill="#455A64"/>
<path d="M76.8404 191.938C76.8857 192.586 77.0833 193.213 77.4171 193.769C77.751 194.326 78.2115 194.795 78.7613 195.14L114.644 215.86C115.711 216.474 116.574 216.038 116.574 214.882C116.526 214.236 116.326 213.61 115.99 213.055C115.655 212.501 115.194 212.033 114.644 211.69L78.7613 190.969C77.6941 190.355 76.8404 190.791 76.8404 191.938Z" fill="#54BD95"/>
<path d="M76.8404 200.289C76.8864 200.935 77.0843 201.561 77.4182 202.115C77.752 202.67 78.2122 203.138 78.7613 203.481L114.644 224.202C115.711 224.816 116.574 224.38 116.574 223.224C116.526 222.577 116.326 221.952 115.99 221.397C115.655 220.842 115.194 220.374 114.644 220.031L78.7613 199.311C77.6941 198.697 76.8404 199.133 76.8404 200.289Z" fill="#263238"/>
<path d="M78.7613 199.311L91.2825 206.541V210.711L78.7613 203.481C78.2122 203.138 77.752 202.67 77.4182 202.115C77.0843 201.561 76.8864 200.935 76.8404 200.289C76.8404 199.133 77.6941 198.697 78.7613 199.311Z" fill="#54BD95"/>
<path d="M75.1508 213.913L118.264 238.813C118.823 239.179 119.288 239.672 119.621 240.251C119.955 240.831 120.148 241.48 120.185 242.148V258.564C120.185 259.791 119.295 260.289 118.255 259.676L75.1508 234.775C74.5892 234.411 74.1217 233.919 73.7864 233.339C73.451 232.76 73.2573 232.109 73.221 231.441V215.024C73.221 213.797 74.0659 213.299 75.1508 213.913Z" fill="#455A64"/>
<path d="M76.8404 221.134C76.8864 221.78 77.0843 222.405 77.4182 222.96C77.752 223.515 78.2122 223.983 78.7613 224.326L114.644 245.047C115.711 245.66 116.574 245.225 116.574 244.077C116.527 243.43 116.328 242.802 115.992 242.246C115.657 241.689 115.195 241.22 114.644 240.876L78.7613 220.155C77.6941 219.551 76.8404 219.987 76.8404 221.134Z" fill="#54BD95"/>
<path d="M76.8404 229.484C76.8836 230.133 77.0803 230.763 77.4143 231.321C77.7482 231.879 78.2099 232.35 78.7613 232.695L114.644 253.415C115.711 254.029 116.574 253.593 116.574 252.446C116.527 251.798 116.328 251.17 115.992 250.614C115.657 250.058 115.195 249.588 114.644 249.244L78.7613 228.524C77.6941 227.892 76.8404 228.328 76.8404 229.484Z" fill="#263238"/>
<path d="M78.7613 228.506L98.5125 239.916V244.086L78.7613 232.695C78.2122 232.351 77.752 231.883 77.4182 231.329C77.0843 230.774 76.8864 230.148 76.8404 229.502C76.8404 228.328 77.6941 227.892 78.7613 228.506Z" fill="#54BD95"/>
<path d="M75.1508 243.108L118.264 268.008C118.823 268.375 119.288 268.868 119.621 269.447C119.955 270.026 120.148 270.676 120.185 271.343V287.742C120.185 288.969 119.295 289.467 118.255 288.853L75.1508 263.953C74.5892 263.589 74.1217 263.096 73.7864 262.517C73.451 261.937 73.2573 261.287 73.221 260.618V244.255C73.221 242.993 74.0659 242.477 75.1508 243.108Z" fill="#455A64"/>
<path d="M76.8404 250.338C76.8857 250.985 77.0833 251.613 77.4171 252.169C77.751 252.725 78.2115 253.195 78.7613 253.54L114.644 274.251C115.711 274.865 116.574 274.429 116.574 273.282C116.527 272.634 116.328 272.006 115.992 271.45C115.657 270.894 115.195 270.424 114.644 270.08L78.7613 249.369C77.6941 248.755 76.8404 249.191 76.8404 250.338Z" fill="#54BD95"/>
<path d="M76.8404 258.68C76.8857 259.327 77.0833 259.954 77.4171 260.511C77.751 261.067 78.2115 261.537 78.7613 261.881L114.644 282.593C115.711 283.206 116.574 282.771 116.574 281.623C116.527 280.976 116.328 280.348 115.992 279.792C115.657 279.235 115.195 278.766 114.644 278.422L78.7613 257.71C77.6941 257.097 76.8404 257.532 76.8404 258.68Z" fill="#263238"/>
<path d="M78.7613 257.71L105.734 273.282V277.453L78.7613 261.881C78.2115 261.537 77.751 261.067 77.4171 260.511C77.0833 259.954 76.8857 259.327 76.8404 258.68C76.8404 257.532 77.6941 257.097 78.7613 257.71Z" fill="#54BD95"/>
<path d="M136.441 153.37C138.433 152.214 140.051 153.263 140.051 155.718V251.112C140.005 252.41 139.654 253.678 139.027 254.815C138.4 255.952 137.514 256.926 136.441 257.657C134.449 258.813 132.83 257.764 132.83 255.3V159.906C132.878 158.61 133.23 157.343 133.857 156.208C134.484 155.072 135.369 154.1 136.441 153.37Z" fill="#37474F"/>
<path d="M136.441 255.54C136.972 255.174 137.41 254.688 137.719 254.121C138.028 253.554 138.2 252.922 138.219 252.277V156.616C138.219 155.388 137.41 154.837 136.441 155.433C135.91 155.802 135.472 156.29 135.163 156.858C134.854 157.426 134.683 158.059 134.662 158.705V254.366C134.636 255.594 135.427 256.118 136.441 255.54Z" fill="#263238"/>
<path d="M136.441 255.54C136.972 255.174 137.41 254.688 137.719 254.121C138.028 253.554 138.2 252.922 138.219 252.277V206.54L134.609 208.63V254.367C134.635 255.594 135.427 256.118 136.441 255.54Z" fill="#54BD95"/>
<path d="M147.281 147.109C149.273 145.953 150.892 147.011 150.892 149.466V244.86C150.844 246.156 150.492 247.423 149.865 248.558C149.238 249.694 148.353 250.666 147.281 251.396C145.28 252.552 143.662 251.503 143.662 249.049V153.654C143.709 152.356 144.062 151.087 144.69 149.95C145.319 148.813 146.207 147.839 147.281 147.109Z" fill="#37474F"/>
<path d="M147.281 249.289C147.812 248.921 148.249 248.435 148.558 247.868C148.867 247.301 149.039 246.67 149.06 246.025V150.364C149.06 149.128 148.251 148.585 147.281 149.181C146.751 149.549 146.313 150.035 146.005 150.602C145.696 151.169 145.524 151.8 145.503 152.445V248.106C145.467 249.333 146.276 249.867 147.281 249.289Z" fill="#54BD95"/>
<path d="M158.113 140.858C160.105 139.701 161.723 140.751 161.723 143.205V238.6C161.678 239.897 161.327 241.166 160.7 242.303C160.072 243.44 159.186 244.414 158.113 245.145C156.121 246.301 154.502 245.243 154.502 242.788V147.394C154.55 146.098 154.902 144.831 155.529 143.696C156.156 142.56 157.041 141.588 158.113 140.858Z" fill="#37474F"/>
<path d="M158.113 243.028C158.644 242.662 159.082 242.176 159.391 241.609C159.7 241.042 159.872 240.41 159.891 239.765V144.103C159.891 142.876 159.082 142.325 158.113 142.921C157.581 143.289 157.143 143.777 156.834 144.345C156.525 144.914 156.354 145.547 156.334 146.193V241.854C156.308 243.082 157.117 243.606 158.113 243.028Z" fill="#263238"/>
<path d="M158.113 243.028C158.644 242.662 159.082 242.175 159.391 241.608C159.7 241.041 159.872 240.41 159.891 239.764V165.873L156.281 167.954V241.854C156.308 243.081 157.117 243.606 158.113 243.028Z" fill="#54BD95"/>
<path d="M168.953 134.597C170.945 133.441 172.564 134.499 172.564 136.954V232.348C172.522 233.65 172.173 234.924 171.545 236.066C170.918 237.208 170.03 238.186 168.953 238.92C166.952 240.076 165.343 239.026 165.343 236.572V141.142C165.388 139.844 165.738 138.575 166.365 137.438C166.993 136.301 167.879 135.327 168.953 134.597Z" fill="#37474F"/>
<path d="M168.953 236.776C169.484 236.409 169.921 235.922 170.23 235.356C170.539 234.789 170.711 234.158 170.732 233.513V137.843C170.732 136.615 169.923 136.064 168.953 136.669C168.422 137.035 167.984 137.522 167.675 138.089C167.366 138.655 167.195 139.287 167.175 139.932V235.594C167.148 236.821 167.957 237.354 168.953 236.776Z" fill="#263238"/>
<path d="M168.953 236.777C169.484 236.409 169.921 235.922 170.23 235.356C170.539 234.789 170.711 234.158 170.732 233.513V217.363L167.121 219.453V235.594C167.148 236.821 167.957 237.355 168.953 236.777Z" fill="#54BD95"/>
<path d="M179.785 128.345C181.786 127.189 183.404 128.238 183.404 130.693V226.087C183.357 227.385 183.005 228.655 182.376 229.792C181.747 230.929 180.86 231.902 179.785 232.632C177.793 233.788 176.174 232.73 176.174 230.276V134.872C176.224 133.578 176.576 132.313 177.203 131.179C177.83 130.045 178.714 129.075 179.785 128.345Z" fill="#37474F"/>
<path d="M179.785 230.516C180.317 230.151 180.756 229.664 181.065 229.097C181.374 228.53 181.545 227.898 181.563 227.252V131.591C181.563 130.364 180.754 129.813 179.785 130.408C179.254 130.776 178.817 131.262 178.508 131.829C178.199 132.396 178.028 133.027 178.006 133.672V229.342C177.98 230.569 178.789 231.094 179.785 230.516Z" fill="#263238"/>
<path d="M179.785 230.516C180.318 230.15 180.756 229.664 181.065 229.097C181.374 228.53 181.545 227.898 181.564 227.252V177.345L177.953 179.426V229.342C177.98 230.569 178.789 231.094 179.785 230.516Z" fill="#54BD95"/>
<path d="M134.369 269.262L181.857 241.845C182.746 241.347 183.404 241.748 183.404 242.735V260.031C183.375 260.567 183.219 261.087 182.95 261.551C182.681 262.014 182.307 262.408 181.857 262.699L134.369 290.116C133.48 290.614 132.83 290.214 132.83 289.227V271.93C132.858 271.396 133.013 270.876 133.28 270.412C133.547 269.948 133.92 269.554 134.369 269.262Z" fill="#37474F"/>
<path d="M136.316 274.393C136.316 275.541 137.206 275.976 138.246 275.363L177.98 252.419C178.531 252.075 178.993 251.606 179.328 251.049C179.663 250.493 179.862 249.865 179.909 249.218C179.909 248.07 179.02 247.635 177.98 248.248L138.246 271.192C137.695 271.536 137.233 272.005 136.898 272.562C136.563 273.118 136.363 273.746 136.316 274.393Z" fill="#263238"/>
<path d="M136.316 274.393C136.316 275.541 137.206 275.976 138.246 275.363L167.148 258.671V254.5L138.246 271.192C137.695 271.536 137.233 272.005 136.898 272.562C136.563 273.118 136.363 273.746 136.316 274.393Z" fill="#54BD95"/>
<path d="M136.316 282.735C136.316 283.882 137.206 284.327 138.246 283.704L177.98 260.761C178.523 260.418 178.978 259.953 179.31 259.404C179.642 258.854 179.841 258.235 179.892 257.595C179.892 256.448 179.002 256.012 177.962 256.625L138.228 279.569C137.685 279.912 137.23 280.376 136.898 280.926C136.566 281.475 136.367 282.095 136.316 282.735Z" fill="#263238"/>
<path d="M136.316 282.735C136.316 283.882 137.206 284.327 138.246 283.704L149.087 277.479V273.308L138.246 279.534C137.695 279.878 137.233 280.347 136.898 280.903C136.563 281.459 136.363 282.087 136.316 282.735Z" fill="#54BD95"/>
<path d="M186.89 107.411L129.335 74.1783C128.739 73.876 128.079 73.7184 127.41 73.7184C126.741 73.7184 126.082 73.876 125.485 74.1783L67.9209 107.411C67.6886 107.49 67.4868 107.64 67.3439 107.839C67.201 108.038 67.1242 108.277 67.1242 108.523C67.1242 108.768 67.201 109.007 67.3439 109.207C67.4868 109.406 67.6886 109.556 67.9209 109.634L125.485 142.876C126.081 143.181 126.741 143.339 127.41 143.339C128.079 143.339 128.739 143.181 129.335 142.876L186.89 109.652C187.129 109.578 187.338 109.429 187.486 109.227C187.634 109.026 187.714 108.782 187.714 108.532C187.714 108.281 187.634 108.038 187.486 107.836C187.338 107.635 187.129 107.486 186.89 107.411Z" fill="#455A64"/>
<path d="M126.25 134.961L81.6071 109.172C81.2715 108.952 80.9922 108.656 80.7915 108.309C80.5907 107.961 80.4741 107.572 80.451 107.171V105.668C80.472 105.267 80.5877 104.876 80.7887 104.529C80.9896 104.181 81.2701 103.886 81.6071 103.667L126.25 77.8776C126.607 77.6935 127.003 77.5975 127.406 77.5975C127.808 77.5975 128.204 77.6935 128.562 77.8776L173.213 103.667C173.55 103.886 173.83 104.181 174.031 104.529C174.232 104.876 174.348 105.267 174.369 105.668V107.171C174.346 107.572 174.229 107.961 174.029 108.309C173.828 108.656 173.549 108.952 173.213 109.172L128.562 134.961C128.204 135.145 127.808 135.241 127.406 135.241C127.003 135.241 126.607 135.145 126.25 134.961Z" fill="#263238"/>
<path d="M81.6071 105.019L126.25 130.808C126.607 130.993 127.003 131.089 127.406 131.089C127.808 131.089 128.204 130.993 128.562 130.808L173.213 105.019C173.853 104.645 173.853 104.05 173.213 103.685L128.562 78.7849C128.204 78.6008 127.808 78.5048 127.406 78.5048C127.003 78.5048 126.607 78.6008 126.25 78.7849L81.6071 103.685C80.9668 104.05 80.9668 104.637 81.6071 105.019Z" fill="#455A64"/>
<path d="M127.423 131.066V135.237C127.021 135.246 126.623 135.151 126.267 134.962L81.616 109.172C81.279 108.954 80.9985 108.658 80.7976 108.311C80.5966 107.963 80.4809 107.572 80.4599 107.171V105.668C80.4797 105.311 80.5738 104.962 80.7361 104.644C80.8984 104.325 81.1254 104.044 81.4025 103.819C80.9846 104.183 81.0557 104.708 81.616 105.001L126.267 130.791C126.623 130.981 127.021 131.076 127.423 131.066Z" fill="#37474F"/>
<path d="M126.25 122.422L96.0136 104.992C95.6802 104.771 95.403 104.474 95.2038 104.127C95.0047 103.78 94.8892 103.391 94.8664 102.991V101.48C94.8892 101.08 95.0047 100.691 95.2038 100.344C95.403 99.9964 95.6802 99.7002 96.0136 99.4786L115.382 88.3003C116.131 87.8261 116.79 87.2241 117.33 86.5217L126.579 74.0716C126.802 73.7837 127.121 73.5853 127.478 73.5119C127.835 73.4385 128.207 73.4951 128.526 73.6714L158.762 91.1015C159.099 91.3206 159.379 91.616 159.579 91.9636C159.78 92.3113 159.896 92.7015 159.918 93.1024V102.956C159.895 103.356 159.778 103.746 159.578 104.094C159.377 104.441 159.098 104.737 158.762 104.957L128.526 122.387C128.176 122.571 127.787 122.67 127.392 122.676C126.997 122.682 126.605 122.595 126.25 122.422Z" fill="#263238"/>
<path d="M128.562 118.278L147.931 107.1C148.677 106.623 149.335 106.021 149.878 105.321L159.127 92.8712C159.238 92.737 159.317 92.5796 159.359 92.4106C159.402 92.2416 159.405 92.0652 159.37 91.8946C159.335 91.7239 159.263 91.5633 159.157 91.4245C159.052 91.2857 158.917 91.1723 158.762 91.0926L128.526 73.6625C128.207 73.4862 127.836 73.4296 127.479 73.503C127.121 73.5764 126.802 73.7748 126.579 74.0627L117.33 86.5128C116.846 87.2056 116.244 87.8077 115.551 88.2913L95.987 99.3986C95.8468 99.445 95.7247 99.5344 95.6382 99.6542C95.5517 99.7739 95.5052 99.9179 95.5052 100.066C95.5052 100.213 95.5517 100.357 95.6382 100.477C95.7247 100.597 95.8468 100.686 95.987 100.733L126.223 118.172C126.575 118.377 126.972 118.494 127.379 118.512C127.786 118.531 128.192 118.451 128.562 118.278Z" fill="#455A64"/>
<path d="M158.762 91.1638L128.526 73.7337C128.207 73.5574 127.836 73.5008 127.478 73.5742C127.121 73.6476 126.802 73.8461 126.579 74.1339L117.33 86.584C117.047 86.9415 116.731 87.272 116.387 87.5711C116.387 87.5711 148.891 106.344 148.9 106.335C149.244 106.039 149.559 105.711 149.842 105.357L159.091 92.9068C159.197 92.7756 159.273 92.6228 159.314 92.4593C159.355 92.2957 159.36 92.1251 159.329 91.9594C159.298 91.7936 159.231 91.6366 159.133 91.4993C159.035 91.3619 158.909 91.2475 158.762 91.1638Z" fill="#37474F"/>
<path d="M103.412 99.8167C103.832 99.602 104.297 99.4901 104.769 99.4901C105.24 99.4901 105.705 99.602 106.125 99.8167C106.288 99.8725 106.43 99.9779 106.53 100.118C106.63 100.259 106.684 100.427 106.684 100.599C106.684 100.772 106.63 100.94 106.53 101.08C106.43 101.221 106.288 101.326 106.125 101.382C105.704 101.592 105.239 101.702 104.769 101.702C104.298 101.702 103.834 101.592 103.412 101.382C103.249 101.326 103.108 101.221 103.007 101.08C102.907 100.94 102.853 100.772 102.853 100.599C102.853 100.427 102.907 100.259 103.007 100.118C103.108 99.9779 103.249 99.8725 103.412 99.8167Z" fill="#54BD95"/>
<path d="M108.802 102.947C109.215 102.738 109.672 102.63 110.136 102.63C110.599 102.63 111.056 102.738 111.47 102.947C111.633 103.003 111.774 103.108 111.875 103.249C111.975 103.389 112.029 103.557 112.029 103.73C112.029 103.902 111.975 104.07 111.875 104.211C111.774 104.351 111.633 104.456 111.47 104.512C111.055 104.717 110.598 104.823 110.136 104.823C109.673 104.823 109.217 104.717 108.802 104.512C108.638 104.456 108.497 104.351 108.396 104.211C108.296 104.07 108.242 103.902 108.242 103.73C108.242 103.557 108.296 103.389 108.396 103.249C108.497 103.108 108.638 103.003 108.802 102.947Z" fill="#54BD95"/>
<path d="M114.217 106.068C114.633 105.865 115.089 105.759 115.551 105.759C116.014 105.759 116.47 105.865 116.885 106.068C117.049 106.124 117.19 106.23 117.291 106.37C117.391 106.51 117.445 106.678 117.445 106.851C117.445 107.024 117.391 107.192 117.291 107.332C117.19 107.472 117.049 107.578 116.885 107.634C116.471 107.841 116.014 107.949 115.551 107.949C115.088 107.949 114.632 107.841 114.217 107.634C114.054 107.578 113.912 107.472 113.812 107.332C113.712 107.192 113.658 107.024 113.658 106.851C113.658 106.678 113.712 106.51 113.812 106.37C113.912 106.23 114.054 106.124 114.217 106.068Z" fill="#263238"/>
<path d="M119.633 109.199C120.054 108.988 120.519 108.879 120.989 108.879C121.46 108.879 121.924 108.988 122.346 109.199C122.509 109.254 122.65 109.36 122.751 109.5C122.851 109.641 122.905 109.809 122.905 109.981C122.905 110.154 122.851 110.322 122.751 110.462C122.65 110.603 122.509 110.708 122.346 110.764C121.926 110.979 121.461 111.09 120.989 111.09C120.518 111.09 120.053 110.979 119.633 110.764C119.47 110.708 119.328 110.603 119.228 110.462C119.128 110.322 119.074 110.154 119.074 109.981C119.074 109.809 119.128 109.641 119.228 109.5C119.328 109.36 119.47 109.254 119.633 109.199Z" fill="#263238"/>
<path d="M107.441 97.4688C107.855 97.2615 108.312 97.1535 108.775 97.1535C109.238 97.1535 109.695 97.2615 110.109 97.4688C110.272 97.5246 110.414 97.6301 110.514 97.7704C110.614 97.9107 110.668 98.0789 110.668 98.2514C110.668 98.4239 110.614 98.5921 110.514 98.7324C110.414 98.8727 110.272 98.9782 110.109 99.034C109.695 99.2413 109.238 99.3493 108.775 99.3493C108.312 99.3493 107.855 99.2413 107.441 99.034C107.278 98.9782 107.136 98.8727 107.036 98.7324C106.935 98.5921 106.881 98.4239 106.881 98.2514C106.881 98.0789 106.935 97.9107 107.036 97.7704C107.136 97.6301 107.278 97.5246 107.441 97.4688Z" fill="#54BD95"/>
<path d="M114.217 102.485C115.273 102.485 116.129 101.991 116.129 101.382C116.129 100.773 115.273 100.279 114.217 100.279C113.161 100.279 112.305 100.773 112.305 101.382C112.305 101.991 113.161 102.485 114.217 102.485Z" fill="#263238"/>
<path d="M118.281 103.747C118.696 103.54 119.152 103.432 119.615 103.432C120.078 103.432 120.535 103.54 120.949 103.747C121.114 103.801 121.257 103.905 121.358 104.045C121.46 104.184 121.515 104.353 121.515 104.525C121.515 104.698 121.46 104.867 121.358 105.006C121.257 105.146 121.114 105.25 120.949 105.304C120.535 105.511 120.078 105.619 119.615 105.619C119.152 105.619 118.696 105.511 118.281 105.304C118.117 105.25 117.974 105.146 117.872 105.006C117.771 104.867 117.716 104.698 117.716 104.525C117.716 104.353 117.771 104.184 117.872 104.045C117.974 103.905 118.117 103.801 118.281 103.747Z" fill="#54BD95"/>
<path d="M125.058 108.736C126.114 108.736 126.97 108.242 126.97 107.633C126.97 107.024 126.114 106.531 125.058 106.531C124.002 106.531 123.146 107.024 123.146 107.633C123.146 108.242 124.002 108.736 125.058 108.736Z" fill="#263238"/>
<path d="M111.505 95.1212C111.926 94.9107 112.39 94.8011 112.861 94.8011C113.332 94.8011 113.796 94.9107 114.217 95.1212C114.381 95.177 114.522 95.2825 114.623 95.4228C114.723 95.5631 114.777 95.7313 114.777 95.9038C114.777 96.0763 114.723 96.2445 114.623 96.3848C114.522 96.5251 114.381 96.6306 114.217 96.6864C113.798 96.901 113.333 97.013 112.861 97.013C112.39 97.013 111.925 96.901 111.505 96.6864C111.342 96.6306 111.2 96.5251 111.1 96.3848C111 96.2445 110.946 96.0763 110.946 95.9038C110.946 95.7313 111 95.5631 111.1 95.4228C111.2 95.2825 111.342 95.177 111.505 95.1212Z" fill="#263238"/>
<path d="M116.93 98.2514C117.343 98.0426 117.8 97.9339 118.264 97.9339C118.727 97.9339 119.184 98.0426 119.598 98.2514C119.761 98.3072 119.903 98.4126 120.003 98.5529C120.103 98.6932 120.157 98.8614 120.157 99.0339C120.157 99.2064 120.103 99.3746 120.003 99.5149C119.903 99.6553 119.761 99.7607 119.598 99.8165C119.183 100.021 118.726 100.128 118.264 100.128C117.801 100.128 117.345 100.021 116.93 99.8165C116.767 99.7607 116.625 99.6553 116.525 99.5149C116.424 99.3746 116.37 99.2064 116.37 99.0339C116.37 98.8614 116.424 98.6932 116.525 98.5529C116.625 98.4126 116.767 98.3072 116.93 98.2514Z" fill="#54BD95"/>
<path d="M122.345 101.382C122.76 101.174 123.216 101.066 123.679 101.066C124.143 101.066 124.599 101.174 125.013 101.382C125.177 101.438 125.318 101.543 125.419 101.683C125.519 101.824 125.573 101.992 125.573 102.164C125.573 102.337 125.519 102.505 125.419 102.645C125.318 102.786 125.177 102.891 125.013 102.947C124.598 103.15 124.142 103.256 123.679 103.256C123.217 103.256 122.761 103.15 122.345 102.947C122.182 102.891 122.041 102.786 121.94 102.645C121.84 102.505 121.786 102.337 121.786 102.164C121.786 101.992 121.84 101.824 121.94 101.683C122.041 101.543 122.182 101.438 122.345 101.382Z" fill="#263238"/>
<path d="M125.085 112.267C125.499 112.059 125.955 111.951 126.418 111.951C126.882 111.951 127.338 112.059 127.752 112.267C127.916 112.322 128.057 112.428 128.158 112.568C128.258 112.709 128.312 112.877 128.312 113.049C128.312 113.222 128.258 113.39 128.158 113.53C128.057 113.671 127.916 113.776 127.752 113.832C127.337 114.035 126.881 114.141 126.418 114.141C125.956 114.141 125.5 114.035 125.085 113.832C124.921 113.776 124.78 113.671 124.679 113.53C124.579 113.39 124.525 113.222 124.525 113.049C124.525 112.877 124.579 112.709 124.679 112.568C124.78 112.428 124.921 112.322 125.085 112.267Z" fill="#54BD95"/>
<path d="M129.149 109.919C129.564 109.716 130.02 109.61 130.483 109.61C130.945 109.61 131.401 109.716 131.817 109.919C131.98 109.975 132.121 110.08 132.222 110.221C132.322 110.361 132.376 110.529 132.376 110.702C132.376 110.874 132.322 111.042 132.222 111.183C132.121 111.323 131.98 111.428 131.817 111.484C131.402 111.692 130.946 111.799 130.483 111.799C130.019 111.799 129.563 111.692 129.149 111.484C128.985 111.428 128.844 111.323 128.743 111.183C128.643 111.042 128.589 110.874 128.589 110.702C128.589 110.529 128.643 110.361 128.743 110.221C128.844 110.08 128.985 109.975 129.149 109.919Z" fill="#263238"/>
<path d="M127.761 104.512C128.181 104.297 128.646 104.185 129.117 104.185C129.589 104.185 130.054 104.297 130.474 104.512C130.637 104.568 130.779 104.673 130.879 104.814C130.979 104.954 131.033 105.122 131.033 105.295C131.033 105.467 130.979 105.635 130.879 105.776C130.779 105.916 130.637 106.021 130.474 106.077C130.053 106.288 129.588 106.397 129.117 106.397C128.647 106.397 128.182 106.288 127.761 106.077C127.598 106.021 127.456 105.916 127.356 105.776C127.256 105.635 127.202 105.467 127.202 105.295C127.202 105.122 127.256 104.954 127.356 104.814C127.456 104.673 127.598 104.568 127.761 104.512Z" fill="#263238"/>
<path d="M116.93 94.6677C117.986 94.6677 118.842 94.174 118.842 93.5649C118.842 92.9559 117.986 92.4622 116.93 92.4622C115.874 92.4622 115.018 92.9559 115.018 93.5649C115.018 94.174 115.874 94.6677 116.93 94.6677Z" fill="#54BD95"/>
<path d="M120.994 95.9036C121.409 95.6989 121.865 95.5924 122.328 95.5924C122.79 95.5924 123.247 95.6989 123.662 95.9036C123.825 95.9594 123.967 96.0648 124.067 96.2052C124.167 96.3455 124.221 96.5137 124.221 96.6862C124.221 96.8587 124.167 97.0269 124.067 97.1672C123.967 97.3075 123.825 97.4129 123.662 97.4687C123.248 97.6775 122.791 97.7862 122.328 97.7862C121.864 97.7862 121.407 97.6775 120.994 97.4687C120.238 97.0419 120.238 96.3393 120.994 95.9036Z" fill="#263238"/>
<path d="M127.761 100.919C128.817 100.919 129.673 100.426 129.673 99.8165C129.673 99.2075 128.817 98.7138 127.761 98.7138C126.705 98.7138 125.849 99.2075 125.849 99.8165C125.849 100.426 126.705 100.919 127.761 100.919Z" fill="#54BD95"/>
<path d="M131.87 102.164C132.284 101.957 132.741 101.849 133.204 101.849C133.667 101.849 134.124 101.957 134.538 102.164C134.701 102.22 134.843 102.325 134.943 102.466C135.043 102.606 135.097 102.774 135.097 102.947C135.097 103.119 135.043 103.287 134.943 103.428C134.843 103.568 134.701 103.674 134.538 103.729C134.122 103.933 133.666 104.039 133.204 104.039C132.741 104.039 132.285 103.933 131.87 103.729C131.707 103.674 131.565 103.568 131.465 103.428C131.364 103.287 131.31 103.119 131.31 102.947C131.31 102.774 131.364 102.606 131.465 102.466C131.565 102.325 131.707 102.22 131.87 102.164Z" fill="#263238"/>
<path d="M133.213 107.58C133.627 107.373 134.083 107.265 134.547 107.265C135.01 107.265 135.466 107.373 135.881 107.58C136.045 107.634 136.188 107.738 136.29 107.877C136.391 108.017 136.446 108.186 136.446 108.358C136.446 108.531 136.391 108.699 136.29 108.839C136.188 108.979 136.045 109.083 135.881 109.136C135.466 109.344 135.01 109.452 134.547 109.452C134.083 109.452 133.627 109.344 133.213 109.136C133.048 109.083 132.905 108.979 132.804 108.839C132.702 108.699 132.647 108.531 132.647 108.358C132.647 108.186 132.702 108.017 132.804 107.877C132.905 107.738 133.048 107.634 133.213 107.58Z" fill="#54BD95"/>
<path d="M138.628 107.118C139.684 107.118 140.54 106.624 140.54 106.015C140.54 105.406 139.684 104.912 138.628 104.912C137.572 104.912 136.716 105.406 136.716 106.015C136.716 106.624 137.572 107.118 138.628 107.118Z" fill="#263238"/>
<path d="M127.477 118.554V122.716C127.054 122.736 126.634 122.644 126.258 122.449L96.0225 105.01C95.6855 104.792 95.405 104.496 95.2041 104.149C95.0031 103.801 94.8874 103.41 94.8664 103.009V101.506C94.8862 101.149 94.9803 100.801 95.1426 100.482C95.3049 100.164 95.5319 99.8825 95.809 99.6567C95.3911 100.021 95.4622 100.546 96.0225 100.839L126.258 118.278C126.633 118.477 127.053 118.572 127.477 118.554Z" fill="#37474F"/>
<path d="M121.358 86.0683C121.507 85.8754 121.72 85.7423 121.958 85.6933C122.196 85.6443 122.444 85.6827 122.657 85.8015L148.944 100.973C149.042 101.027 149.127 101.102 149.193 101.193C149.259 101.284 149.305 101.387 149.327 101.497C149.349 101.607 149.347 101.721 149.321 101.83C149.295 101.939 149.245 102.041 149.175 102.129V102.173C149.025 102.363 148.812 102.494 148.575 102.543C148.337 102.592 148.09 102.555 147.877 102.44L121.598 87.2688C121.494 87.215 121.403 87.1383 121.332 87.0444C121.261 86.9505 121.212 86.8418 121.189 86.7264C121.166 86.611 121.169 86.4919 121.199 86.378C121.228 86.2641 121.283 86.1582 121.358 86.0683Z" fill="#263238"/>
<path d="M121.358 86.0683C121.507 85.8754 121.72 85.7423 121.958 85.6933C122.196 85.6443 122.444 85.6827 122.657 85.8015L142.221 97.0777L141.136 98.545L121.572 87.2688C121.469 87.2126 121.381 87.134 121.312 87.039C121.244 86.9439 121.198 86.8348 121.178 86.7196C121.157 86.6045 121.163 86.4862 121.194 86.3734C121.225 86.2607 121.281 86.1564 121.358 86.0683Z" fill="#54BD95"/>
<path d="M123.537 83.1513C123.686 82.9584 123.898 82.8253 124.137 82.7764C124.375 82.7274 124.623 82.7658 124.836 82.8846L151.114 98.0559C151.213 98.1096 151.299 98.1841 151.366 98.2743C151.433 98.3645 151.479 98.4682 151.502 98.5783C151.525 98.6883 151.524 98.802 151.498 98.9114C151.473 99.0208 151.423 99.1234 151.354 99.2119C151.202 99.4026 150.988 99.5337 150.749 99.5825C150.51 99.6312 150.262 99.5945 150.047 99.4787L123.777 84.3163C123.678 84.2617 123.592 84.1863 123.525 84.0953C123.458 84.0043 123.412 83.8998 123.389 83.7891C123.366 83.6784 123.368 83.5641 123.393 83.454C123.419 83.3439 123.468 83.2406 123.537 83.1513Z" fill="#263238"/>
<path d="M123.537 83.1513C123.686 82.9584 123.898 82.8253 124.137 82.7764C124.375 82.7274 124.623 82.7658 124.836 82.8846L131.363 86.6551L130.278 88.1136L123.751 84.3519C123.648 84.2956 123.559 84.2171 123.491 84.1221C123.423 84.027 123.377 83.9179 123.356 83.8027C123.336 83.6875 123.342 83.5692 123.373 83.4565C123.404 83.3438 123.46 83.2395 123.537 83.1513Z" fill="#54BD95"/>
<path d="M125.707 80.2433C125.854 80.0489 126.066 79.914 126.305 79.8634C126.543 79.8128 126.792 79.8498 127.005 79.9676L153.284 95.1389C153.383 95.1935 153.469 95.2689 153.536 95.3599C153.603 95.4509 153.65 95.5554 153.672 95.6661C153.695 95.7768 153.694 95.8912 153.668 96.0013C153.643 96.1114 153.593 96.2146 153.524 96.3039C153.374 96.4938 153.161 96.6246 152.923 96.6734C152.686 96.7222 152.439 96.6858 152.226 96.5707L125.947 81.3994C125.848 81.3457 125.763 81.2711 125.696 81.1809C125.629 81.0907 125.582 80.987 125.559 80.877C125.536 80.7669 125.538 80.6533 125.563 80.5438C125.589 80.4344 125.638 80.3318 125.707 80.2433Z" fill="#263238"/>
<path d="M125.707 80.2433C125.854 80.0489 126.066 79.914 126.305 79.8634C126.543 79.8128 126.792 79.8498 127.005 79.9676L140.763 87.8112L139.678 89.2696L125.992 81.3994C125.889 81.3498 125.799 81.2782 125.728 81.1899C125.656 81.1015 125.605 80.9985 125.578 80.8881C125.551 80.7778 125.548 80.6628 125.571 80.5513C125.593 80.4398 125.639 80.3347 125.707 80.2433Z" fill="#54BD95"/>
<path d="M127.877 77.3263C128.025 77.1335 128.237 76.9998 128.475 76.9492C128.713 76.8987 128.961 76.9347 129.175 77.0507L155.489 92.1864C155.587 92.2409 155.672 92.316 155.739 92.4066C155.805 92.4971 155.85 92.601 155.872 92.711C155.894 92.8209 155.892 92.9344 155.866 93.0434C155.84 93.1525 155.79 93.2545 155.721 93.3425C155.572 93.5354 155.359 93.6685 155.121 93.7174C154.883 93.7664 154.635 93.728 154.422 93.6093L128.144 78.4379C128.049 78.386 127.967 78.315 127.902 78.2294C127.837 78.1438 127.79 78.0456 127.765 77.941C127.74 77.8364 127.737 77.7277 127.756 77.6219C127.775 77.516 127.817 77.4154 127.877 77.3263Z" fill="#263238"/>
<path d="M127.877 77.3263C128.025 77.1335 128.237 76.9998 128.475 76.9492C128.713 76.8987 128.961 76.9347 129.175 77.0507L153.035 90.8258L151.941 92.2842L128.09 78.518C127.988 78.4627 127.899 78.3851 127.831 78.2908C127.763 78.1965 127.717 78.0881 127.696 77.9736C127.676 77.8591 127.681 77.7414 127.713 77.6293C127.744 77.5173 127.8 77.4137 127.877 77.3263Z" fill="#54BD95"/>
<path d="M261 24C261 19.5817 264.582 16 269 16H360.179V48H269C264.582 48 261 44.4183 261 40V24Z" fill="#1FAD72"/>
<path d="M274.221 26L273 32.4585H276.115L275.068 38L279.179 29.9468H276.214L276.937 26H274.221Z" fill="#000400"/>
<path d="M288.236 36V27.2727H291.287C291.895 27.2727 292.397 27.3778 292.792 27.5881C293.187 27.7955 293.481 28.0753 293.674 28.4276C293.867 28.777 293.963 29.1648 293.963 29.5909C293.963 29.9659 293.897 30.2756 293.763 30.5199C293.633 30.7642 293.459 30.9574 293.243 31.0994C293.03 31.2415 292.799 31.3466 292.549 31.4148V31.5C292.816 31.517 293.084 31.6108 293.354 31.7812C293.624 31.9517 293.85 32.196 294.032 32.5142C294.213 32.8324 294.304 33.2216 294.304 33.6818C294.304 34.1193 294.205 34.5128 294.006 34.8622C293.807 35.2116 293.493 35.4886 293.064 35.6932C292.635 35.8977 292.077 36 291.39 36H288.236ZM289.293 35.0625H291.39C292.08 35.0625 292.57 34.929 292.86 34.6619C293.152 34.392 293.299 34.0653 293.299 33.6818C293.299 33.3864 293.223 33.1136 293.073 32.8636C292.922 32.6108 292.708 32.4091 292.429 32.2585C292.151 32.1051 291.821 32.0284 291.441 32.0284H289.293V35.0625ZM289.293 31.108H291.253C291.571 31.108 291.858 31.0455 292.114 30.9205C292.373 30.7955 292.577 30.6193 292.728 30.392C292.881 30.1648 292.958 29.8977 292.958 29.5909C292.958 29.2074 292.824 28.8821 292.557 28.6151C292.29 28.3452 291.867 28.2102 291.287 28.2102H289.293V31.108ZM298.649 36.1364C298.018 36.1364 297.474 35.9972 297.017 35.7188C296.562 35.4375 296.211 35.0455 295.964 34.5426C295.72 34.0369 295.598 33.4489 295.598 32.7784C295.598 32.108 295.72 31.517 295.964 31.0057C296.211 30.4915 296.555 30.0909 296.995 29.804C297.439 29.5142 297.956 29.3693 298.547 29.3693C298.887 29.3693 299.224 29.4261 299.557 29.5398C299.889 29.6534 300.191 29.8381 300.464 30.0938C300.737 30.3466 300.954 30.6818 301.116 31.0994C301.278 31.517 301.359 32.0312 301.359 32.642V33.0682H296.314V32.1989H300.336C300.336 31.8295 300.262 31.5 300.115 31.2102C299.97 30.9205 299.762 30.6918 299.493 30.5241C299.226 30.3565 298.91 30.2727 298.547 30.2727C298.146 30.2727 297.799 30.3722 297.507 30.571C297.217 30.767 296.994 31.0227 296.838 31.3381C296.682 31.6534 296.603 31.9915 296.603 32.3523V32.9318C296.603 33.4261 296.689 33.8452 296.859 34.1889C297.032 34.5298 297.272 34.7898 297.579 34.9688C297.886 35.1449 298.243 35.233 298.649 35.233C298.913 35.233 299.152 35.196 299.365 35.1222C299.581 35.0455 299.767 34.9318 299.923 34.7812C300.079 34.6278 300.2 34.4375 300.285 34.2102L301.257 34.483C301.155 34.8125 300.983 35.1023 300.741 35.3523C300.5 35.5994 300.201 35.7926 299.846 35.9318C299.491 36.0682 299.092 36.1364 298.649 36.1364ZM307.525 30.9205L306.622 31.1761C306.565 31.0256 306.481 30.8793 306.37 30.7372C306.262 30.5923 306.115 30.473 305.927 30.3793C305.74 30.2855 305.5 30.2386 305.207 30.2386C304.807 30.2386 304.473 30.331 304.206 30.5156C303.941 30.6974 303.809 30.929 303.809 31.2102C303.809 31.4602 303.9 31.6577 304.082 31.8026C304.264 31.9474 304.548 32.0682 304.934 32.1648L305.906 32.4034C306.491 32.5455 306.927 32.7628 307.214 33.0554C307.501 33.3452 307.645 33.7187 307.645 34.1761C307.645 34.5511 307.537 34.8864 307.321 35.1818C307.108 35.4773 306.809 35.7102 306.426 35.8807C306.042 36.0511 305.596 36.1364 305.088 36.1364C304.42 36.1364 303.868 35.9915 303.43 35.7017C302.993 35.4119 302.716 34.9886 302.599 34.4318L303.554 34.1932C303.645 34.5455 303.816 34.8097 304.069 34.9858C304.325 35.1619 304.659 35.25 305.071 35.25C305.539 35.25 305.912 35.1506 306.187 34.9517C306.466 34.75 306.605 34.5085 306.605 34.2273C306.605 34 306.525 33.8097 306.366 33.6562C306.207 33.5 305.963 33.3835 305.633 33.3068L304.542 33.0511C303.943 32.9091 303.503 32.6889 303.221 32.3906C302.943 32.0895 302.804 31.7131 302.804 31.2614C302.804 30.892 302.907 30.5653 303.115 30.2812C303.325 29.9972 303.611 29.7741 303.971 29.6122C304.335 29.4503 304.747 29.3693 305.207 29.3693C305.855 29.3693 306.363 29.5114 306.733 29.7955C307.105 30.0795 307.369 30.4545 307.525 30.9205ZM312.005 29.4545V30.3068H308.613V29.4545H312.005ZM309.602 27.8864H310.607V34.125C310.607 34.4091 310.649 34.6222 310.731 34.7642C310.816 34.9034 310.924 34.9972 311.055 35.0455C311.188 35.0909 311.329 35.1136 311.477 35.1136C311.587 35.1136 311.678 35.108 311.749 35.0966C311.82 35.0824 311.877 35.071 311.92 35.0625L312.124 35.9659C312.056 35.9915 311.961 36.017 311.839 36.0426C311.717 36.071 311.562 36.0852 311.374 36.0852C311.09 36.0852 310.812 36.0241 310.539 35.902C310.269 35.7798 310.045 35.5938 309.866 35.3438C309.69 35.0938 309.602 34.7784 309.602 34.3977V27.8864ZM321.802 29.4545C321.751 29.0227 321.543 28.6875 321.18 28.4489C320.816 28.2102 320.37 28.0909 319.842 28.0909C319.455 28.0909 319.117 28.1534 318.827 28.2784C318.541 28.4034 318.316 28.5753 318.154 28.794C317.995 29.0128 317.916 29.2614 317.916 29.5398C317.916 29.7727 317.971 29.973 318.082 30.1406C318.195 30.3054 318.34 30.4432 318.516 30.554C318.693 30.6619 318.877 30.7514 319.07 30.8224C319.264 30.8906 319.441 30.946 319.603 30.9886L320.489 31.2273C320.717 31.2869 320.97 31.3693 321.248 31.4744C321.529 31.5795 321.798 31.723 322.053 31.9048C322.312 32.0838 322.525 32.3139 322.693 32.5952C322.86 32.8764 322.944 33.2216 322.944 33.6307C322.944 34.1023 322.82 34.5284 322.573 34.9091C322.329 35.2898 321.971 35.5923 321.499 35.8168C321.031 36.0412 320.461 36.1534 319.791 36.1534C319.166 36.1534 318.624 36.0526 318.167 35.8509C317.712 35.6491 317.354 35.3679 317.093 35.0071C316.835 34.6463 316.688 34.2273 316.654 33.75H317.745C317.774 34.0795 317.884 34.3523 318.077 34.5682C318.274 34.7812 318.521 34.9403 318.819 35.0455C319.12 35.1477 319.444 35.1989 319.791 35.1989C320.194 35.1989 320.556 35.1335 320.877 35.0028C321.198 34.8693 321.452 34.6847 321.64 34.4489C321.827 34.2102 321.921 33.9318 321.921 33.6136C321.921 33.3239 321.84 33.0881 321.678 32.9062C321.516 32.7244 321.303 32.5767 321.039 32.4631C320.775 32.3494 320.489 32.25 320.183 32.1648L319.109 31.858C318.427 31.6619 317.887 31.3821 317.489 31.0185C317.092 30.6548 316.893 30.179 316.893 29.5909C316.893 29.1023 317.025 28.6761 317.289 28.3125C317.556 27.946 317.914 27.6619 318.363 27.4602C318.815 27.2557 319.319 27.1534 319.876 27.1534C320.438 27.1534 320.938 27.2543 321.376 27.456C321.813 27.6548 322.16 27.9276 322.416 28.2741C322.674 28.6207 322.81 29.0142 322.825 29.4545H321.802ZM327.289 36.1364C326.659 36.1364 326.115 35.9972 325.657 35.7188C325.203 35.4375 324.852 35.0455 324.605 34.5426C324.361 34.0369 324.238 33.4489 324.238 32.7784C324.238 32.108 324.361 31.517 324.605 31.0057C324.852 30.4915 325.196 30.0909 325.636 29.804C326.079 29.5142 326.596 29.3693 327.187 29.3693C327.528 29.3693 327.865 29.4261 328.197 29.5398C328.53 29.6534 328.832 29.8381 329.105 30.0938C329.378 30.3466 329.595 30.6818 329.757 31.0994C329.919 31.517 330 32.0312 330 32.642V33.0682H324.954V32.1989H328.977C328.977 31.8295 328.903 31.5 328.755 31.2102C328.611 30.9205 328.403 30.6918 328.133 30.5241C327.866 30.3565 327.551 30.2727 327.187 30.2727C326.787 30.2727 326.44 30.3722 326.147 30.571C325.858 30.767 325.635 31.0227 325.478 31.3381C325.322 31.6534 325.244 31.9915 325.244 32.3523V32.9318C325.244 33.4261 325.329 33.8452 325.5 34.1889C325.673 34.5298 325.913 34.7898 326.22 34.9688C326.527 35.1449 326.883 35.233 327.289 35.233C327.554 35.233 327.792 35.196 328.005 35.1222C328.221 35.0455 328.407 34.9318 328.564 34.7812C328.72 34.6278 328.841 34.4375 328.926 34.2102L329.897 34.483C329.795 34.8125 329.623 35.1023 329.382 35.3523C329.14 35.5994 328.842 35.7926 328.487 35.9318C328.132 36.0682 327.733 36.1364 327.289 36.1364ZM332.535 27.2727V36H331.53V27.2727H332.535ZM335.383 27.2727V36H334.377V27.2727H335.383ZM339.969 36.1364C339.338 36.1364 338.794 35.9972 338.337 35.7188C337.883 35.4375 337.532 35.0455 337.285 34.5426C337.04 34.0369 336.918 33.4489 336.918 32.7784C336.918 32.108 337.04 31.517 337.285 31.0057C337.532 30.4915 337.875 30.0909 338.316 29.804C338.759 29.5142 339.276 29.3693 339.867 29.3693C340.208 29.3693 340.544 29.4261 340.877 29.5398C341.209 29.6534 341.512 29.8381 341.785 30.0938C342.057 30.3466 342.275 30.6818 342.437 31.0994C342.598 31.517 342.679 32.0312 342.679 32.642V33.0682H337.634V32.1989H341.657C341.657 31.8295 341.583 31.5 341.435 31.2102C341.29 30.9205 341.083 30.6918 340.813 30.5241C340.546 30.3565 340.231 30.2727 339.867 30.2727C339.466 30.2727 339.12 30.3722 338.827 30.571C338.537 30.767 338.314 31.0227 338.158 31.3381C338.002 31.6534 337.924 31.9915 337.924 32.3523V32.9318C337.924 33.4261 338.009 33.8452 338.179 34.1889C338.353 34.5298 338.593 34.7898 338.9 34.9688C339.206 35.1449 339.563 35.233 339.969 35.233C340.233 35.233 340.472 35.196 340.685 35.1222C340.901 35.0455 341.087 34.9318 341.243 34.7812C341.4 34.6278 341.52 34.4375 341.606 34.2102L342.577 34.483C342.475 34.8125 342.303 35.1023 342.061 35.3523C341.82 35.5994 341.522 35.7926 341.167 35.9318C340.811 36.0682 340.412 36.1364 339.969 36.1364ZM344.209 36V29.4545H345.181V30.4432H345.249C345.368 30.1193 345.584 29.8565 345.897 29.6548C346.209 29.4531 346.562 29.3523 346.954 29.3523C347.027 29.3523 347.12 29.3537 347.231 29.3565C347.341 29.3594 347.425 29.3636 347.482 29.3693V30.392C347.448 30.3835 347.37 30.3707 347.248 30.3537C347.128 30.3338 347.002 30.3239 346.868 30.3239C346.55 30.3239 346.266 30.3906 346.016 30.5241C345.769 30.6548 345.573 30.8366 345.428 31.0696C345.286 31.2997 345.215 31.5625 345.215 31.858V36H344.209Z" fill="#000400"/>
</g>
<defs>
<clipPath id="clip0_351_1195">
<rect width="360" height="320" rx="8" fill="white"/>
</clipPath>
</defs>
</svg>
