<svg width="758" height="674" viewBox="0 0 758 674" fill="none" xmlns="http://www.w3.org/2000/svg">
<rect width="758" height="673.778" rx="8" fill="#171528"/>
<path d="M484.79 28.8598L363.586 98.8334C362.407 99.6032 361.426 100.64 360.724 101.86C360.021 103.08 359.616 104.449 359.542 105.855V439.002C359.619 440.407 360.025 441.775 360.728 442.995C361.43 444.214 362.409 445.252 363.586 446.024L484.79 515.997C486.046 516.634 487.435 516.966 488.844 516.966C490.252 516.966 491.641 516.634 492.898 515.997L614.083 446.024C615.265 445.256 616.25 444.22 616.956 443C617.662 441.779 618.07 440.41 618.146 439.002V105.855C618.073 104.447 617.666 103.076 616.96 101.855C616.253 100.634 615.267 99.5989 614.083 98.8334L492.991 28.8598C491.723 28.2077 490.317 27.8675 488.891 27.8675C487.464 27.8675 486.058 28.2077 484.79 28.8598Z" fill="#37474F"/>
<path d="M618.146 105.836V439.002C618.069 440.407 617.663 441.775 616.96 442.994C616.258 444.214 615.278 445.252 614.102 446.024L492.991 515.997C491.75 516.667 490.357 517.003 488.947 516.971V174.443C490.352 174.475 491.743 174.153 492.991 173.507L614.195 103.533L615.3 102.616L616.742 101.417C617.615 102.73 618.101 104.261 618.146 105.836Z" fill="#263238"/>
<path d="M378.772 138.642L469.548 191.071C470.724 191.844 471.702 192.881 472.405 194.101C473.107 195.32 473.514 196.687 473.593 198.092V232.658C473.593 235.242 471.72 236.29 469.53 234.998L378.772 182.57C377.589 181.802 376.605 180.766 375.899 179.546C375.193 178.325 374.785 176.956 374.708 175.548V140.982C374.746 138.398 376.562 137.35 378.772 138.642Z" fill="#455A64"/>
<path d="M382.348 153.865C382.45 155.226 382.871 156.544 383.577 157.712C384.283 158.879 385.254 159.865 386.411 160.587L461.965 204.215C464.212 205.507 466.028 204.59 466.028 202.174C465.929 200.81 465.51 199.489 464.804 198.317C464.098 197.146 463.125 196.158 461.965 195.434L386.411 151.805C384.164 150.513 382.348 151.431 382.348 153.865Z" fill="#54BD95"/>
<path d="M382.348 171.429C382.45 172.79 382.871 174.107 383.577 175.275C384.283 176.443 385.254 177.428 386.411 178.151L461.965 221.779C464.212 223.071 466.028 222.153 466.028 219.738C465.929 218.374 465.51 217.052 464.804 215.881C464.098 214.71 463.125 213.722 461.965 212.997L386.411 169.369C384.164 168.077 382.348 168.995 382.348 171.429Z" fill="#263238"/>
<path d="M386.411 169.369L427.999 193.393V202.174L386.411 178.151C385.254 177.428 384.283 176.443 383.577 175.275C382.871 174.107 382.45 172.79 382.348 171.429C382.348 168.995 384.164 168.077 386.411 169.369Z" fill="#54BD95"/>
<path d="M378.772 200.114L469.548 252.543C470.725 253.315 471.704 254.353 472.407 255.572C473.109 256.792 473.515 258.16 473.593 259.565V294.093C473.593 296.677 471.72 297.725 469.53 296.433L378.772 244.005C377.589 243.237 376.605 242.201 375.899 240.981C375.193 239.761 374.785 238.391 374.708 236.983V202.455C374.746 199.871 376.562 198.822 378.772 200.114Z" fill="#455A64"/>
<path d="M382.348 215.338C382.447 216.702 382.867 218.023 383.573 219.195C384.279 220.366 385.251 221.354 386.411 222.079L461.965 265.688C464.212 266.98 466.028 266.063 466.028 263.647C465.929 262.283 465.51 260.962 464.804 259.79C464.098 258.619 463.125 257.631 461.965 256.906L386.411 213.297C384.164 212.005 382.348 212.922 382.348 215.338Z" fill="#54BD95"/>
<path d="M382.348 232.901C382.447 234.265 382.867 235.587 383.573 236.758C384.279 237.93 385.251 238.918 386.411 239.642L461.965 283.252C464.212 284.562 466.028 283.626 466.028 281.211C465.929 279.847 465.51 278.525 464.804 277.354C464.098 276.182 463.125 275.194 461.965 274.47L386.411 230.86C384.164 229.568 382.348 230.486 382.348 232.901Z" fill="#263238"/>
<path d="M386.411 230.86L450.805 268.029V276.81L386.411 239.642C385.251 238.918 384.279 237.93 383.573 236.758C382.867 235.587 382.447 234.265 382.348 232.901C382.348 230.486 384.164 229.568 386.411 230.86Z" fill="#54BD95"/>
<path d="M378.772 261.512L469.548 313.941C470.725 314.713 471.704 315.75 472.407 316.97C473.109 318.19 473.515 319.557 473.593 320.963V355.509C473.593 358.093 471.72 359.142 469.53 357.85L378.772 305.515C377.589 304.747 376.605 303.711 375.899 302.491C375.193 301.271 374.785 299.901 374.708 298.493V263.928C374.746 261.344 376.562 260.295 378.772 261.512Z" fill="#455A64"/>
<path d="M382.348 276.81C382.447 278.174 382.867 279.496 383.573 280.667C384.279 281.839 385.251 282.827 386.411 283.551L461.965 327.179C464.212 328.471 466.028 327.554 466.028 325.12C465.926 323.759 465.505 322.441 464.8 321.273C464.094 320.105 463.122 319.12 461.965 318.398L386.411 274.769C384.164 273.477 382.348 274.395 382.348 276.81Z" fill="#54BD95"/>
<path d="M382.348 294.393C382.45 295.754 382.871 297.071 383.577 298.239C384.283 299.407 385.254 300.392 386.411 301.115L461.965 344.743C464.212 346.035 466.028 345.117 466.028 342.683C465.926 341.322 465.505 340.005 464.8 338.837C464.094 337.669 463.122 336.684 461.965 335.961L386.411 292.333C384.164 291.041 382.348 291.959 382.348 294.393Z" fill="#263238"/>
<path d="M386.411 292.333L412.776 307.556V316.338L386.411 301.115C385.254 300.392 384.283 299.407 383.577 298.239C382.871 297.071 382.45 295.754 382.348 294.393C382.348 291.959 384.164 291.041 386.411 292.333Z" fill="#54BD95"/>
<path d="M378.772 323.078L469.548 375.507C470.725 376.279 471.704 377.317 472.407 378.536C473.109 379.756 473.515 381.124 473.593 382.529V417.094C473.593 419.678 471.72 420.727 469.53 419.435L378.772 367.006C377.589 366.238 376.605 365.202 375.899 363.982C375.193 362.762 374.785 361.392 374.708 359.984V325.419C374.746 322.835 376.562 321.786 378.772 323.078Z" fill="#455A64"/>
<path d="M382.348 338.283C382.45 339.644 382.871 340.961 383.577 342.129C384.283 343.297 385.254 344.282 386.411 345.005L461.965 388.633C464.212 389.925 466.028 389.008 466.028 386.573C465.926 385.213 465.505 383.895 464.8 382.727C464.094 381.559 463.122 380.574 461.965 379.851L386.411 336.223C384.164 334.95 382.348 335.867 382.348 338.283Z" fill="#54BD95"/>
<path d="M382.348 355.865C382.45 357.226 382.871 358.544 383.577 359.712C384.283 360.88 385.254 361.865 386.411 362.587L461.965 406.216C464.212 407.508 466.028 406.59 466.028 404.175C465.929 402.811 465.51 401.489 464.804 400.318C464.098 399.146 463.125 398.158 461.965 397.434L386.411 353.806C384.164 352.514 382.348 353.431 382.348 355.865Z" fill="#263238"/>
<path d="M386.411 353.806L427.999 377.81V386.592L386.411 362.625C385.254 361.902 384.283 360.917 383.577 359.749C382.871 358.581 382.45 357.264 382.348 355.903C382.348 353.431 384.164 352.514 386.411 353.806Z" fill="#54BD95"/>
<path d="M378.772 384.551L469.548 436.98C470.725 437.752 471.704 438.789 472.407 440.009C473.109 441.229 473.515 442.596 473.593 444.002V478.53C473.593 481.114 471.72 482.162 469.53 480.87L378.772 428.441C377.589 427.674 376.605 426.638 375.899 425.417C375.193 424.197 374.785 422.827 374.708 421.42V386.967C374.746 384.308 376.562 383.222 378.772 384.551Z" fill="#455A64"/>
<path d="M382.348 399.774C382.447 401.138 382.867 402.46 383.573 403.631C384.279 404.802 385.251 405.79 386.411 406.515L461.965 450.124C464.212 451.416 466.028 450.499 466.028 448.083C465.929 446.719 465.51 445.398 464.804 444.226C464.098 443.055 463.125 442.067 461.965 441.343L386.411 397.733C384.164 396.422 382.348 397.359 382.348 399.774Z" fill="#54BD95"/>
<path d="M382.348 417.338C382.447 418.702 382.867 420.024 383.573 421.195C384.279 422.366 385.251 423.354 386.411 424.079L461.965 467.688C464.212 468.98 466.028 468.063 466.028 465.647C465.929 464.283 465.51 462.962 464.804 461.79C464.098 460.619 463.125 459.631 461.965 458.906L386.411 415.297C384.164 414.005 382.348 414.923 382.348 417.338Z" fill="#263238"/>
<path d="M386.411 415.297L443.203 448.084V456.865L386.411 424.079C385.251 423.354 384.279 422.366 383.573 421.195C382.867 420.024 382.447 418.702 382.348 417.338C382.348 414.923 384.164 414.005 386.411 415.297Z" fill="#54BD95"/>
<path d="M507.859 195.602C512.053 193.168 515.461 195.377 515.461 200.545V401.403C515.36 404.135 514.62 406.805 513.299 409.198C511.979 411.592 510.115 413.642 507.859 415.184C503.664 417.619 500.256 415.39 500.256 410.222V209.364C500.357 206.635 501.097 203.968 502.418 201.577C503.738 199.187 505.602 197.14 507.859 195.602Z" fill="#37474F"/>
<path d="M507.859 410.728C508.978 409.956 509.9 408.932 510.551 407.739C511.201 406.545 511.562 405.215 511.603 403.856V202.436C511.603 199.852 509.9 198.691 507.859 199.946C506.739 200.721 505.817 201.749 505.166 202.946C504.516 204.142 504.155 205.475 504.114 206.836V408.256C504.057 410.84 505.761 411.945 507.859 410.728Z" fill="#263238"/>
<path d="M507.858 410.728C508.978 409.956 509.9 408.932 510.55 407.739C511.201 406.545 511.561 405.215 511.603 403.856V307.556L504.001 311.956V408.256C504.057 410.84 505.761 411.945 507.858 410.728Z" fill="#54BD95"/>
<path d="M530.665 182.42C534.878 179.985 538.286 182.214 538.286 187.382V388.24C538.185 390.969 537.445 393.636 536.125 396.027C534.804 398.417 532.94 400.464 530.684 402.002C526.471 404.436 523.063 402.227 523.063 397.059V196.201C523.164 193.469 523.904 190.799 525.224 188.406C526.545 186.012 528.408 183.962 530.665 182.42Z" fill="#37474F"/>
<path d="M530.684 397.565C531.801 396.791 532.722 395.766 533.372 394.573C534.022 393.38 534.384 392.051 534.429 390.693V189.273C534.429 186.67 532.725 185.528 530.684 186.783C529.567 187.556 528.646 188.581 527.996 189.774C527.345 190.967 526.984 192.296 526.939 193.655V395.074C526.864 397.658 528.568 398.782 530.684 397.565Z" fill="#54BD95"/>
<path d="M553.49 169.257C557.685 166.823 561.093 169.032 561.093 174.2V375.058C560.996 377.791 560.258 380.462 558.937 382.857C557.617 385.251 555.751 387.3 553.49 388.839C549.296 391.274 545.888 389.045 545.888 383.877V183.019C545.989 180.29 546.729 177.623 548.05 175.232C549.37 172.842 551.234 170.795 553.49 169.257Z" fill="#37474F"/>
<path d="M553.49 384.383C554.61 383.611 555.532 382.587 556.182 381.394C556.833 380.2 557.194 378.87 557.235 377.511V176.091C557.235 173.507 555.531 172.346 553.49 173.601C552.373 174.375 551.453 175.399 550.802 176.592C550.152 177.786 549.79 179.115 549.745 180.473V381.911C549.689 384.495 551.393 385.6 553.49 384.383Z" fill="#263238"/>
<path d="M553.49 384.383C554.609 383.611 555.531 382.587 556.182 381.393C556.833 380.2 557.193 378.87 557.235 377.511V221.929L549.633 226.31V381.911C549.689 384.495 551.393 385.6 553.49 384.383Z" fill="#54BD95"/>
<path d="M576.316 156.075C580.51 153.64 583.918 155.85 583.918 161.037V361.895C583.829 364.637 583.094 367.319 581.773 369.723C580.452 372.128 578.582 374.187 576.316 375.732C572.103 378.166 568.713 375.957 568.713 370.789V169.856C568.808 167.123 569.546 164.451 570.867 162.056C572.188 159.662 574.054 157.613 576.316 156.075Z" fill="#37474F"/>
<path d="M576.316 371.219C577.433 370.446 578.353 369.421 579.004 368.228C579.654 367.035 580.016 365.706 580.061 364.347V162.909C580.061 160.325 578.357 159.164 576.316 160.437C575.196 161.209 574.274 162.233 573.624 163.427C572.973 164.62 572.612 165.95 572.571 167.309V368.729C572.515 371.313 574.218 372.436 576.316 371.219Z" fill="#263238"/>
<path d="M576.315 371.22C577.432 370.446 578.353 369.421 579.003 368.228C579.654 367.035 580.016 365.706 580.06 364.348V330.344L572.458 334.725V368.729C572.514 371.313 574.218 372.437 576.315 371.22Z" fill="#54BD95"/>
<path d="M599.122 142.911C603.335 140.477 606.743 142.687 606.743 147.855V348.713C606.643 351.447 605.901 354.119 604.578 356.513C603.254 358.907 601.385 360.956 599.122 362.494C594.928 364.928 591.52 362.7 591.52 357.532V156.655C591.623 153.929 592.365 151.266 593.686 148.879C595.006 146.492 596.868 144.448 599.122 142.911Z" fill="#37474F"/>
<path d="M599.122 358.038C600.241 357.266 601.163 356.242 601.814 355.048C602.464 353.855 602.825 352.525 602.867 351.166V149.746C602.867 147.162 601.181 146.001 599.122 147.256C598.005 148.029 597.084 149.054 596.434 150.247C595.783 151.44 595.421 152.769 595.377 154.127V355.566C595.321 358.15 597.025 359.255 599.122 358.038Z" fill="#263238"/>
<path d="M599.122 358.037C600.241 357.266 601.163 356.242 601.814 355.048C602.464 353.854 602.825 352.524 602.867 351.165V246.083L595.265 250.465V355.565C595.321 358.149 597.025 359.254 599.122 358.037Z" fill="#54BD95"/>
<path d="M503.495 439.62L603.466 381.892C605.338 380.844 606.724 381.686 606.724 383.765V420.184C606.661 421.311 606.333 422.407 605.767 423.383C605.201 424.359 604.412 425.187 603.466 425.801L503.477 483.529C501.604 484.559 500.237 483.735 500.237 481.657V445.238C500.299 444.111 500.626 443.014 501.192 442.038C501.758 441.062 502.548 440.233 503.495 439.62Z" fill="#37474F"/>
<path d="M507.597 450.424C507.597 452.839 509.469 453.757 511.66 452.465L595.321 404.156C596.481 403.431 597.454 402.443 598.16 401.272C598.866 400.1 599.285 398.779 599.384 397.415C599.384 394.999 597.512 394.082 595.321 395.374L511.716 443.683C510.546 444.401 509.562 445.387 508.846 446.558C508.13 447.73 507.702 449.055 507.597 450.424Z" fill="#263238"/>
<path d="M507.597 450.424C507.597 452.84 509.469 453.757 511.66 452.465L572.515 417.319V408.537L511.716 443.683C510.546 444.401 509.562 445.387 508.846 446.559C508.13 447.73 507.702 449.055 507.597 450.424Z" fill="#54BD95"/>
<path d="M507.597 467.988C507.597 470.403 509.469 471.321 511.66 470.029L595.321 421.719C596.481 420.995 597.454 420.007 598.16 418.835C598.866 417.664 599.285 416.343 599.384 414.978C599.384 412.563 597.512 411.645 595.321 412.937L511.716 461.247C510.546 461.965 509.562 462.95 508.846 464.122C508.13 465.294 507.702 466.618 507.597 467.988Z" fill="#263238"/>
<path d="M507.597 467.988C507.597 470.403 509.469 471.32 511.66 470.028L534.485 456.921V448.14L511.66 461.247C510.5 461.971 509.527 462.959 508.821 464.131C508.115 465.302 507.696 466.623 507.597 467.988Z" fill="#54BD95"/>
<path d="M614.083 98.8336L492.991 28.86C491.735 28.2233 490.346 27.8916 488.938 27.8916C487.529 27.8916 486.14 28.2233 484.884 28.86L363.586 98.8336C363.097 98.9995 362.672 99.3145 362.371 99.7343C362.071 100.154 361.909 100.658 361.909 101.174C361.909 101.691 362.071 102.194 362.371 102.614C362.672 103.034 363.097 103.349 363.586 103.515L484.79 173.507C486.047 174.144 487.435 174.475 488.844 174.475C490.253 174.475 491.641 174.144 492.898 173.507L614.083 103.552C614.586 103.395 615.025 103.082 615.337 102.657C615.65 102.233 615.818 101.72 615.818 101.193C615.818 100.666 615.65 100.153 615.337 99.7286C615.025 99.3042 614.586 98.9906 614.083 98.8336Z" fill="#455A64"/>
<path d="M486.4 156.842L392.403 102.541C391.696 102.078 391.108 101.455 390.686 100.724C390.263 99.9921 390.017 99.1717 389.969 98.3282V95.1451C390.017 94.3015 390.263 93.4811 390.686 92.7495C391.108 92.0179 391.696 91.3955 392.403 90.932L486.4 36.6309C487.153 36.2433 487.988 36.041 488.834 36.041C489.681 36.041 490.516 36.2433 491.269 36.6309L585.284 90.932C585.994 91.3922 586.585 92.0138 587.008 92.7461C587.431 93.4784 587.674 94.3005 587.719 95.1451V98.3095C587.67 99.153 587.424 99.9734 587.002 100.705C586.579 101.437 585.991 102.059 585.284 102.523L491.269 156.824C490.517 157.214 489.683 157.42 488.837 157.423C487.99 157.426 487.154 157.227 486.4 156.842Z" fill="#263238"/>
<path d="M392.403 93.7781L486.4 148.079C487.153 148.467 487.988 148.669 488.835 148.669C489.681 148.669 490.516 148.467 491.269 148.079L585.285 93.7781C586.633 92.9916 586.633 91.7371 585.285 90.9694L491.269 38.5407C490.516 38.1531 489.681 37.9509 488.835 37.9509C487.988 37.9509 487.153 38.1531 486.4 38.5407L392.403 90.9694C391.055 91.7558 391.055 92.9916 392.403 93.7781Z" fill="#455A64"/>
<path d="M488.853 148.641V157.422C488.005 157.442 487.167 157.242 486.419 156.842L392.403 102.541C391.693 102.081 391.103 101.459 390.68 100.727C390.257 99.9945 390.013 99.1724 389.969 98.3278V95.1821C390.001 94.4363 390.188 93.7053 390.516 93.035C390.845 92.3647 391.309 91.7697 391.879 91.2874C390.999 92.0551 391.148 93.1598 392.328 93.7778L486.344 148.079C487.116 148.485 487.982 148.679 488.853 148.641Z" fill="#37474F"/>
<path d="M486.4 130.441L422.737 93.7219C422.029 93.2596 421.441 92.6374 421.018 91.9055C420.595 91.1737 420.35 90.3528 420.303 89.5089V86.4006C420.354 85.5578 420.601 84.7385 421.023 84.0073C421.446 83.2762 422.032 82.6532 422.737 82.1876L463.594 58.6509C465.162 57.6805 466.55 56.445 467.695 54.9996L487.168 28.7852C487.639 28.1792 488.311 27.7613 489.063 27.6068C489.815 27.4523 490.597 27.5714 491.269 27.9426L554.932 64.6427C555.641 65.104 556.23 65.7259 556.653 66.458C557.076 67.19 557.321 68.0115 557.366 68.8557V89.5838C557.318 90.4273 557.072 91.2477 556.65 91.9793C556.227 92.7109 555.639 93.3334 554.932 93.7968L491.269 130.497C490.511 130.876 489.675 131.068 488.828 131.059C487.981 131.049 487.149 130.837 486.4 130.441Z" fill="#263238"/>
<path d="M491.269 121.715L532.051 98.1782C533.621 97.1735 535.008 95.9069 536.151 94.4333L555.625 68.219C555.859 67.9364 556.026 67.605 556.115 67.2491C556.204 66.8932 556.212 66.522 556.138 66.1627C556.064 65.8033 555.911 65.4651 555.689 65.1729C555.468 64.8807 555.183 64.6419 554.857 64.4741L491.194 27.774C490.522 27.4028 489.74 27.2837 488.988 27.4381C488.236 27.5926 487.564 28.0105 487.093 28.6166L467.619 54.8309C466.601 56.2897 465.333 57.5574 463.875 58.5758L422.681 81.9628C422.385 82.0605 422.128 82.2488 421.946 82.5009C421.764 82.753 421.666 83.0561 421.666 83.3671C421.666 83.6781 421.764 83.9812 421.946 84.2334C422.128 84.4855 422.385 84.6738 422.681 84.7715L486.344 121.49C487.086 121.922 487.921 122.169 488.779 122.208C489.636 122.247 490.491 122.078 491.269 121.715Z" fill="#455A64"/>
<path d="M554.782 64.624L491.119 27.9239C490.447 27.5527 489.664 27.4336 488.913 27.588C488.161 27.7425 487.489 28.1604 487.018 28.7665L467.544 54.9808C466.949 55.7336 466.284 56.4294 465.56 57.0593C465.56 57.0593 534.185 96.6055 534.185 96.5867C534.909 95.963 535.573 95.2735 536.17 94.527L555.643 68.3127C555.863 68.025 556.017 67.6922 556.093 67.3382C556.169 66.9841 556.166 66.6176 556.083 66.265C556.001 65.9124 555.842 65.5823 555.617 65.2986C555.392 65.0149 555.107 64.7845 554.782 64.624Z" fill="#37474F"/>
<path d="M438.241 82.8431C439.125 82.3911 440.103 82.1554 441.096 82.1554C442.089 82.1554 443.068 82.3911 443.952 82.8431C444.295 82.9606 444.594 83.1826 444.805 83.478C445.016 83.7735 445.13 84.1276 445.13 84.4908C445.13 84.854 445.016 85.2082 444.805 85.5036C444.594 85.7991 444.295 86.0211 443.952 86.1386C443.065 86.5819 442.087 86.8127 441.096 86.8127C440.105 86.8127 439.127 86.5819 438.241 86.1386C437.897 86.0211 437.599 85.7991 437.387 85.5036C437.176 85.2082 437.062 84.854 437.062 84.4908C437.062 84.1276 437.176 83.7735 437.387 83.478C437.599 83.1826 437.897 82.9606 438.241 82.8431Z" fill="#54BD95"/>
<path d="M449.663 89.434C450.534 88.9945 451.496 88.7656 452.472 88.7656C453.447 88.7656 454.409 88.9945 455.28 89.434C455.624 89.5515 455.922 89.7735 456.134 90.069C456.345 90.3644 456.458 90.7186 456.458 91.0818C456.458 91.445 456.345 91.7991 456.134 92.0946C455.922 92.39 455.624 92.612 455.28 92.7295C454.407 93.1605 453.446 93.3847 452.472 93.3847C451.498 93.3847 450.536 93.1605 449.663 92.7295C449.319 92.612 449.021 92.39 448.81 92.0946C448.598 91.7991 448.485 91.445 448.485 91.0818C448.485 90.7186 448.598 90.3644 448.81 90.069C449.021 89.7735 449.319 89.5515 449.663 89.434Z" fill="#54BD95"/>
<path d="M461.16 96.006C462.046 95.5627 463.024 95.3319 464.015 95.3319C465.006 95.3319 465.984 95.5627 466.871 96.006C467.214 96.1235 467.513 96.3455 467.724 96.6409C467.935 96.9364 468.049 97.2905 468.049 97.6537C468.049 98.0169 467.935 98.3711 467.724 98.6665C467.513 98.962 467.214 99.184 466.871 99.3015C465.987 99.7535 465.008 99.9891 464.015 99.9891C463.022 99.9891 462.044 99.7535 461.16 99.3015C460.816 99.184 460.517 98.962 460.306 98.6665C460.095 98.3711 459.981 98.0169 459.981 97.6537C459.981 97.2905 460.095 96.9364 460.306 96.6409C460.517 96.3455 460.816 96.1235 461.16 96.006Z" fill="#263238"/>
<path d="M472.394 102.597C473.281 102.154 474.259 101.923 475.25 101.923C476.241 101.923 477.219 102.154 478.105 102.597C478.449 102.715 478.747 102.937 478.959 103.232C479.17 103.528 479.283 103.882 479.283 104.245C479.283 104.608 479.17 104.962 478.959 105.258C478.747 105.553 478.449 105.775 478.105 105.893C477.221 106.345 476.243 106.581 475.25 106.581C474.257 106.581 473.278 106.345 472.394 105.893C472.051 105.775 471.752 105.553 471.541 105.258C471.33 104.962 471.216 104.608 471.216 104.245C471.216 103.882 471.33 103.528 471.541 103.232C471.752 102.937 472.051 102.715 472.394 102.597Z" fill="#263238"/>
<path d="M449.662 81.869C451.886 81.869 453.688 80.8295 453.688 79.5472C453.688 78.2649 451.886 77.2254 449.662 77.2254C447.439 77.2254 445.637 78.2649 445.637 79.5472C445.637 80.8295 447.439 81.869 449.662 81.869Z" fill="#54BD95"/>
<path d="M458.22 84.4906C459.091 84.0511 460.053 83.8221 461.028 83.8221C462.004 83.8221 462.966 84.0511 463.837 84.4906C464.181 84.608 464.479 84.8301 464.69 85.1255C464.901 85.421 465.015 85.7751 465.015 86.1383C465.015 86.5015 464.901 86.8556 464.69 87.1511C464.479 87.4466 464.181 87.6686 463.837 87.7861C462.963 88.2171 462.002 88.4413 461.028 88.4413C460.054 88.4413 459.093 88.2171 458.22 87.7861C456.628 86.8686 456.628 85.3893 458.22 84.4906Z" fill="#263238"/>
<path d="M472.469 95.0514C474.692 95.0514 476.495 94.0119 476.495 92.7296C476.495 91.4472 474.692 90.4077 472.469 90.4077C470.246 90.4077 468.443 91.4472 468.443 92.7296C468.443 94.0119 470.246 95.0514 472.469 95.0514Z" fill="#54BD95"/>
<path d="M481.026 97.6538C481.901 97.2255 482.861 97.0029 483.835 97.0029C484.809 97.0029 485.769 97.2255 486.644 97.6538C486.987 97.7713 487.286 97.9933 487.497 98.2888C487.708 98.5842 487.822 98.9384 487.822 99.3016C487.822 99.6648 487.708 100.019 487.497 100.314C487.286 100.61 486.987 100.832 486.644 100.949C485.772 101.386 484.81 101.613 483.835 101.613C482.86 101.613 481.898 101.386 481.026 100.949C480.683 100.832 480.384 100.61 480.173 100.314C479.962 100.019 479.848 99.6648 479.848 99.3016C479.848 98.9384 479.962 98.5842 480.173 98.2888C480.384 97.9933 480.683 97.7713 481.026 97.6538Z" fill="#263238"/>
<path d="M455.355 72.9564C456.229 72.5281 457.19 72.3055 458.164 72.3055C459.137 72.3055 460.098 72.5281 460.972 72.9564C461.316 73.0739 461.614 73.2959 461.826 73.5914C462.037 73.8868 462.15 74.241 462.15 74.6042C462.15 74.9674 462.037 75.3215 461.826 75.617C461.614 75.9124 461.316 76.1344 460.972 76.2519C460.1 76.6885 459.139 76.9159 458.164 76.9159C457.188 76.9159 456.227 76.6885 455.355 76.2519C455.011 76.1344 454.713 75.9124 454.502 75.617C454.29 75.3215 454.177 74.9674 454.177 74.6042C454.177 74.241 454.29 73.8868 454.502 73.5914C454.713 73.2959 455.011 73.0739 455.355 72.9564Z" fill="#263238"/>
<path d="M466.777 79.5471C467.648 79.1077 468.61 78.8787 469.585 78.8787C470.561 78.8787 471.523 79.1077 472.394 79.5471C472.738 79.6646 473.036 79.8866 473.247 80.1821C473.459 80.4776 473.572 80.8317 473.572 81.1949C473.572 81.5581 473.459 81.9122 473.247 82.2077C473.036 82.5031 472.738 82.7252 472.394 82.8427C471.521 83.2737 470.559 83.4979 469.585 83.4979C468.611 83.4979 467.65 83.2737 466.777 82.8427C466.433 82.7252 466.135 82.5031 465.923 82.2077C465.712 81.9122 465.599 81.5581 465.599 81.1949C465.599 80.8317 465.712 80.4776 465.923 80.1821C466.135 79.8866 466.433 79.6646 466.777 79.5471Z" fill="#54BD95"/>
<path d="M478.18 86.1384C479.052 85.7018 480.014 85.4744 480.989 85.4744C481.964 85.4744 482.925 85.7018 483.797 86.1384C484.141 86.2559 484.439 86.4779 484.651 86.7733C484.862 87.0688 484.975 87.4229 484.975 87.7861C484.975 88.1493 484.862 88.5035 484.651 88.7989C484.439 89.0944 484.141 89.3164 483.797 89.4339C482.923 89.8622 481.962 90.0848 480.989 90.0848C480.015 90.0848 479.054 89.8622 478.18 89.4339C477.836 89.3164 477.538 89.0944 477.327 88.7989C477.116 88.5035 477.002 88.1493 477.002 87.7861C477.002 87.4229 477.116 87.0688 477.327 86.7733C477.538 86.4779 477.836 86.2559 478.18 86.1384Z" fill="#263238"/>
<path d="M483.947 109.057C484.831 108.605 485.81 108.37 486.803 108.37C487.795 108.37 488.774 108.605 489.658 109.057C490.002 109.175 490.3 109.397 490.511 109.692C490.723 109.988 490.836 110.342 490.836 110.705C490.836 111.068 490.723 111.422 490.511 111.718C490.3 112.013 490.002 112.235 489.658 112.353C488.772 112.796 487.794 113.027 486.803 113.027C485.811 113.027 484.834 112.796 483.947 112.353C483.603 112.235 483.305 112.013 483.094 111.718C482.883 111.422 482.769 111.068 482.769 110.705C482.769 110.342 482.883 109.988 483.094 109.692C483.305 109.397 483.603 109.175 483.947 109.057Z" fill="#54BD95"/>
<path d="M495.35 108.083C497.574 108.083 499.376 107.044 499.376 105.761C499.376 104.479 497.574 103.44 495.35 103.44C493.127 103.44 491.325 104.479 491.325 105.761C491.325 107.044 493.127 108.083 495.35 108.083Z" fill="#263238"/>
<path d="M489.583 92.7293C490.455 92.2927 491.417 92.0653 492.392 92.0653C493.367 92.0653 494.329 92.2927 495.201 92.7293C495.544 92.8468 495.843 93.0688 496.054 93.3643C496.265 93.6597 496.379 94.0138 496.379 94.377C496.379 94.7402 496.265 95.0944 496.054 95.3898C495.843 95.6853 495.544 95.9073 495.201 96.0248C494.326 96.4531 493.366 96.6757 492.392 96.6757C491.418 96.6757 490.458 96.4531 489.583 96.0248C489.24 95.9073 488.941 95.6853 488.73 95.3898C488.519 95.0944 488.405 94.7402 488.405 94.377C488.405 94.0138 488.519 93.6597 488.73 93.3643C488.941 93.0688 489.24 92.8468 489.583 92.7293Z" fill="#263238"/>
<path d="M463.912 68.032C464.796 67.58 465.775 67.3444 466.767 67.3444C467.76 67.3444 468.739 67.58 469.623 68.032C469.967 68.1495 470.265 68.3715 470.476 68.667C470.687 68.9624 470.801 69.3165 470.801 69.6798C470.801 70.043 470.687 70.3971 470.476 70.6925C470.265 70.988 469.967 71.21 469.623 71.3275C468.736 71.7708 467.759 72.0016 466.767 72.0016C465.776 72.0016 464.799 71.7708 463.912 71.3275C463.568 71.21 463.27 70.988 463.059 70.6925C462.847 70.3971 462.734 70.043 462.734 69.6798C462.734 69.3165 462.847 68.9624 463.059 68.667C463.27 68.3715 463.568 68.1495 463.912 68.032Z" fill="#54BD95"/>
<path d="M478.18 78.5736C480.403 78.5736 482.206 77.5341 482.206 76.2518C482.206 74.9695 480.403 73.9299 478.18 73.9299C475.957 73.9299 474.154 74.9695 474.154 76.2518C474.154 77.5341 475.957 78.5736 478.18 78.5736Z" fill="#263238"/>
<path d="M486.737 81.1953C487.611 80.7643 488.572 80.5401 489.546 80.5401C490.52 80.5401 491.481 80.7643 492.355 81.1953C492.698 81.3128 492.997 81.5348 493.208 81.8303C493.419 82.1257 493.533 82.4799 493.533 82.8431C493.533 83.2063 493.419 83.5604 493.208 83.8558C492.997 84.1513 492.698 84.3733 492.355 84.4908C491.483 84.9303 490.521 85.1592 489.546 85.1592C488.57 85.1592 487.608 84.9303 486.737 84.4908C486.393 84.3733 486.095 84.1513 485.884 83.8558C485.673 83.5604 485.559 83.2063 485.559 82.8431C485.559 82.4799 485.673 82.1257 485.884 81.8303C486.095 81.5348 486.393 81.3128 486.737 81.1953Z" fill="#54BD95"/>
<path d="M500.987 91.7559C503.21 91.7559 505.012 90.7164 505.012 89.4341C505.012 88.1518 503.21 87.1122 500.987 87.1122C498.763 87.1122 496.961 88.1518 496.961 89.4341C496.961 90.7164 498.763 91.7559 500.987 91.7559Z" fill="#263238"/>
<path d="M501.062 99.1892C501.946 98.7372 502.924 98.5015 503.917 98.5015C504.91 98.5015 505.889 98.7372 506.773 99.1892C507.119 99.3015 507.42 99.5206 507.634 99.8149C507.848 100.109 507.963 100.464 507.963 100.828C507.963 101.191 507.848 101.546 507.634 101.84C507.42 102.135 507.119 102.354 506.773 102.466C505.889 102.918 504.91 103.154 503.917 103.154C502.924 103.154 501.946 102.918 501.062 102.466C500.716 102.354 500.414 102.135 500.2 101.84C499.986 101.546 499.871 101.191 499.871 100.828C499.871 100.464 499.986 100.109 500.2 99.8149C500.414 99.5206 500.716 99.3015 501.062 99.1892Z" fill="#54BD95"/>
<path d="M509.619 94.2463C510.49 93.8068 511.452 93.5779 512.427 93.5779C513.403 93.5779 514.365 93.8068 515.236 94.2463C516.827 95.1451 516.827 96.6243 515.236 97.5418C514.362 97.9728 513.401 98.197 512.427 98.197C511.453 98.197 510.492 97.9728 509.619 97.5418C509.275 97.4243 508.976 97.2023 508.765 96.9068C508.554 96.6114 508.44 96.2573 508.44 95.8941C508.44 95.5309 508.554 95.1767 508.765 94.8813C508.976 94.5858 509.275 94.3638 509.619 94.2463Z" fill="#263238"/>
<path d="M488.984 122.296V131.059C488.094 131.102 487.209 130.908 486.419 130.497L422.755 93.7783C422.046 93.3181 421.455 92.6965 421.032 91.9642C420.609 91.2319 420.366 90.4098 420.321 89.5652V86.4008C420.363 85.6493 420.561 84.9147 420.903 84.2441C421.245 83.5735 421.723 82.9816 422.306 82.5061C421.426 83.2738 421.576 84.3786 422.755 84.9965L486.419 121.715C487.207 122.133 488.093 122.333 488.984 122.296Z" fill="#37474F"/>
<path d="M476.139 53.895C476.452 53.4888 476.9 53.2086 477.402 53.1055C477.904 53.0023 478.426 53.0832 478.873 53.3332L534.185 85.2024C534.392 85.3171 534.571 85.4753 534.71 85.666C534.849 85.8567 534.945 86.0754 534.992 86.3069C535.038 86.5385 535.033 86.7773 534.978 87.0069C534.923 87.2365 534.819 87.4514 534.672 87.6366C534.36 88.0427 533.913 88.3242 533.412 88.4306C532.911 88.537 532.389 88.4613 531.938 88.217L476.607 56.3479C476.402 56.2296 476.224 56.0684 476.087 55.8753C475.95 55.6821 475.855 55.4616 475.811 55.2288C475.767 54.9959 475.773 54.7562 475.829 54.526C475.886 54.2958 475.992 54.0806 476.139 53.895Z" fill="#263238"/>
<path d="M476.139 53.895C476.451 53.4888 476.899 53.2086 477.401 53.1055C477.903 53.0023 478.425 53.0832 478.873 53.3332L520.067 77.076L517.782 80.1655L476.588 56.4228C476.372 56.3043 476.186 56.139 476.042 55.9389C475.898 55.7388 475.801 55.509 475.758 55.2665C475.715 55.024 475.727 54.7749 475.793 54.5375C475.859 54.3002 475.977 54.0806 476.139 53.895Z" fill="#54BD95"/>
<path d="M480.689 47.7533C481.002 47.3471 481.45 47.0669 481.952 46.9637C482.454 46.8606 482.976 46.9415 483.423 47.1915L538.754 79.1356C538.962 79.2486 539.143 79.4055 539.284 79.5955C539.425 79.7854 539.523 80.0038 539.571 80.2355C539.619 80.4672 539.616 80.7065 539.562 80.937C539.509 81.1674 539.405 81.3833 539.26 81.5698C538.939 81.9711 538.488 82.2472 537.985 82.3499C537.482 82.4526 536.959 82.3753 536.507 82.1315L481.195 50.2062C480.986 50.0912 480.806 49.9324 480.664 49.7408C480.523 49.5492 480.425 49.3292 480.377 49.0961C480.329 48.863 480.332 48.6223 480.386 48.3905C480.44 48.1587 480.543 47.9413 480.689 47.7533Z" fill="#263238"/>
<path d="M480.689 47.7533C481.002 47.3471 481.45 47.0669 481.952 46.9637C482.454 46.8606 482.976 46.9415 483.423 47.1915L497.167 55.1307L494.864 58.1267L481.12 50.2062C480.918 50.0847 480.743 49.9211 480.61 49.7264C480.476 49.5318 480.385 49.3107 480.345 49.078C480.304 48.8454 480.313 48.6067 480.373 48.3782C480.432 48.1496 480.54 47.9365 480.689 47.7533Z" fill="#54BD95"/>
<path d="M485.258 41.6303C485.57 41.2242 486.018 40.9439 486.52 40.8408C487.022 40.7377 487.545 40.8185 487.992 41.0686L543.323 73.0127C543.531 73.1277 543.712 73.2864 543.853 73.478C543.994 73.6697 544.092 73.8896 544.14 74.1227C544.188 74.3558 544.185 74.5965 544.132 74.8283C544.078 75.0602 543.974 75.2776 543.828 75.4656C543.511 75.8654 543.063 76.1409 542.564 76.2436C542.064 76.3463 541.544 76.2698 541.095 76.0273L485.764 44.0645C485.556 43.9515 485.375 43.7946 485.234 43.6046C485.093 43.4147 484.995 43.1963 484.947 42.9646C484.899 42.7329 484.901 42.4936 484.955 42.2631C485.009 42.0327 485.112 41.8168 485.258 41.6303Z" fill="#263238"/>
<path d="M485.258 41.6303C485.571 41.2242 486.019 40.9439 486.521 40.8408C487.023 40.7377 487.545 40.8185 487.992 41.0686L516.809 57.6585L514.525 60.7294L485.708 44.1581C485.489 44.0423 485.3 43.8781 485.154 43.6781C485.008 43.4781 484.91 43.2475 484.866 43.0038C484.823 42.7602 484.836 42.5099 484.904 42.2719C484.972 42.0339 485.093 41.8145 485.258 41.6303Z" fill="#54BD95"/>
<path d="M489.827 35.4883C490.139 35.0822 490.586 34.8007 491.087 34.6943C491.588 34.5879 492.11 34.6636 492.561 34.9078L547.966 66.777C548.173 66.8937 548.353 67.0536 548.492 67.246C548.631 67.4384 548.727 67.6586 548.774 67.8916C548.82 68.1246 548.815 68.3648 548.76 68.5958C548.705 68.8268 548.6 69.0431 548.453 69.2299C548.141 69.6361 547.693 69.9163 547.191 70.0194C546.689 70.1226 546.167 70.0417 545.72 69.7917L490.332 37.9225C490.125 37.8095 489.944 37.6525 489.803 37.4626C489.662 37.2726 489.564 37.0542 489.515 36.8226C489.467 36.5909 489.47 36.3515 489.524 36.1211C489.578 35.8907 489.681 35.6748 489.827 35.4883Z" fill="#263238"/>
<path d="M489.827 35.4883C490.139 35.0822 490.586 34.8007 491.087 34.6943C491.588 34.5879 492.11 34.6636 492.561 34.9078L542.799 63.9121L540.495 66.983L490.332 37.9225C490.125 37.8095 489.944 37.6525 489.803 37.4626C489.662 37.2726 489.564 37.0542 489.515 36.8226C489.467 36.5909 489.47 36.3515 489.524 36.1211C489.578 35.8907 489.681 35.6748 489.827 35.4883Z" fill="#54BD95"/>
<path d="M264.215 156.187L143.011 226.16C141.832 226.93 140.851 227.967 140.149 229.187C139.446 230.407 139.041 231.776 138.967 233.182V566.329C139.044 567.734 139.45 569.102 140.153 570.321C140.855 571.541 141.834 572.579 143.011 573.351L264.215 643.324C265.471 643.961 266.86 644.292 268.269 644.292C269.677 644.292 271.066 643.961 272.323 643.324L393.508 573.351C394.69 572.583 395.675 571.547 396.381 570.326C397.087 569.106 397.495 567.736 397.571 566.329V233.182C397.495 231.774 397.087 230.404 396.381 229.184C395.675 227.964 394.69 226.928 393.508 226.16L272.323 156.187C271.066 155.55 269.677 155.218 268.269 155.218C266.86 155.218 265.471 155.55 264.215 156.187Z" fill="#37474F"/>
<path d="M397.497 233.163V566.329C397.419 567.734 397.013 569.102 396.311 570.321C395.608 571.541 394.629 572.578 393.452 573.35L272.248 643.324C271.007 643.994 269.613 644.329 268.204 644.298V301.77C269.612 301.79 271.003 301.455 272.248 300.796L393.452 230.822L394.557 229.905L395.999 228.706C396.912 230.019 397.431 231.565 397.497 233.163Z" fill="#263238"/>
<path d="M158.234 265.968L249.011 318.397C250.19 319.167 251.17 320.204 251.873 321.424C252.576 322.644 252.981 324.013 253.055 325.419V359.966C253.055 362.55 251.183 363.598 248.992 362.306L158.234 309.877C157.052 309.11 156.067 308.074 155.361 306.853C154.655 305.633 154.247 304.263 154.171 302.856V268.309C154.171 265.725 155.95 264.676 158.234 265.968Z" fill="#455A64"/>
<path d="M161.792 281.192C161.889 282.552 162.305 283.869 163.008 285.038C163.711 286.206 164.68 287.191 165.836 287.914L241.39 331.542C243.637 332.834 245.453 331.916 245.453 329.501C245.354 328.137 244.935 326.815 244.228 325.644C243.522 324.473 242.55 323.485 241.39 322.76L165.836 279.132C163.589 277.84 161.792 278.757 161.792 281.192Z" fill="#54BD95"/>
<path d="M161.792 298.755C161.889 300.115 162.305 301.433 163.008 302.601C163.711 303.769 164.68 304.755 165.836 305.477L241.39 349.106C243.637 350.398 245.453 349.48 245.453 347.065C245.354 345.701 244.935 344.379 244.228 343.208C243.522 342.036 242.55 341.048 241.39 340.324L165.836 296.696C163.589 295.404 161.792 296.321 161.792 298.755Z" fill="#263238"/>
<path d="M165.836 296.696L207.423 320.719V329.501L165.836 305.477C164.68 304.755 163.711 303.769 163.008 302.601C162.305 301.433 161.889 300.115 161.792 298.755C161.792 296.321 163.589 295.404 165.836 296.696Z" fill="#54BD95"/>
<path d="M158.234 327.441L249.011 379.87C250.188 380.642 251.167 381.679 251.869 382.899C252.572 384.119 252.978 385.486 253.055 386.891V421.419C253.055 424.003 251.183 425.052 248.992 423.76L158.234 371.331C157.052 370.564 156.067 369.527 155.361 368.307C154.655 367.087 154.247 365.717 154.171 364.31V329.782C154.171 327.198 155.95 326.149 158.234 327.441Z" fill="#455A64"/>
<path d="M161.792 342.664C161.887 344.027 162.303 345.348 163.006 346.52C163.709 347.691 164.679 348.68 165.836 349.405L241.39 393.015C243.637 394.307 245.453 393.389 245.453 390.974C245.354 389.61 244.935 388.288 244.228 387.117C243.522 385.945 242.55 384.957 241.39 384.233L165.836 340.623C163.589 339.331 161.792 340.249 161.792 342.664Z" fill="#54BD95"/>
<path d="M161.792 360.228C161.887 361.591 162.303 362.912 163.006 364.083C163.709 365.255 164.679 366.243 165.836 366.969L241.39 410.597C243.637 411.889 245.453 410.971 245.453 408.537C245.353 407.174 244.932 405.853 244.227 404.681C243.521 403.51 242.549 402.522 241.39 401.796L165.836 358.187C163.589 356.895 161.792 357.812 161.792 360.228Z" fill="#263238"/>
<path d="M165.836 358.187L230.23 395.355V404.137L165.836 366.969C164.679 366.243 163.709 365.255 163.006 364.083C162.303 362.912 161.887 361.591 161.792 360.228C161.792 357.812 163.589 356.895 165.836 358.187Z" fill="#54BD95"/>
<path d="M158.234 388.839L249.011 441.268C250.188 442.04 251.167 443.078 251.869 444.297C252.572 445.517 252.978 446.884 253.055 448.29V482.836C253.055 485.42 251.183 486.469 248.992 485.177L158.234 432.748C157.052 431.981 156.067 430.944 155.361 429.724C154.655 428.504 154.247 427.134 154.171 425.727V391.255C154.171 388.671 155.95 387.622 158.234 388.839Z" fill="#455A64"/>
<path d="M161.792 404.137C161.887 405.5 162.303 406.821 163.006 407.992C163.709 409.164 164.679 410.152 165.836 410.878L241.39 454.506C243.637 455.798 245.453 454.88 245.453 452.446C245.351 451.085 244.93 449.768 244.224 448.6C243.518 447.432 242.547 446.447 241.39 445.724L165.836 402.096C163.589 400.804 161.792 401.721 161.792 404.137Z" fill="#54BD95"/>
<path d="M161.792 421.719C161.889 423.079 162.305 424.397 163.008 425.565C163.711 426.733 164.68 427.719 165.836 428.441L241.39 472.07C243.637 473.362 245.453 472.444 245.453 470.01C245.351 468.649 244.93 467.331 244.224 466.163C243.518 464.996 242.547 464.01 241.39 463.288L165.836 419.66C163.589 418.368 161.792 419.285 161.792 421.719Z" fill="#263238"/>
<path d="M165.836 419.66L192.2 434.883V443.664L165.836 428.441C164.68 427.719 163.711 426.733 163.008 425.565C162.305 424.397 161.889 423.079 161.792 421.719C161.792 419.285 163.589 418.368 165.836 419.66Z" fill="#54BD95"/>
<path d="M158.234 450.405L249.011 502.834C250.188 503.606 251.167 504.643 251.869 505.863C252.572 507.083 252.978 508.45 253.055 509.855V544.421C253.055 547.005 251.183 548.053 248.992 546.761L158.234 494.333C157.052 493.565 156.067 492.529 155.361 491.309C154.655 490.089 154.247 488.719 154.171 487.311V452.746C154.171 450.162 155.95 449.113 158.234 450.405Z" fill="#455A64"/>
<path d="M161.792 465.609C161.889 466.969 162.305 468.287 163.008 469.455C163.711 470.623 164.68 471.609 165.836 472.331L241.39 515.96C243.637 517.252 245.453 516.334 245.453 513.919C245.354 512.555 244.935 511.233 244.228 510.062C243.522 508.89 242.55 507.902 241.39 507.178L165.836 463.55C163.589 462.276 161.792 463.194 161.792 465.609Z" fill="#54BD95"/>
<path d="M161.792 483.192C161.883 484.558 162.297 485.884 163 487.059C163.703 488.234 164.675 489.225 165.836 489.951L241.39 533.58C243.637 534.872 245.453 533.954 245.453 531.539C245.354 530.174 244.935 528.853 244.228 527.682C243.522 526.51 242.55 525.522 241.39 524.798L165.836 481.17C163.589 479.84 161.792 480.758 161.792 483.192Z" fill="#263238"/>
<path d="M165.836 481.132L207.423 505.156V513.938L165.836 489.951C164.68 489.229 163.711 488.243 163.008 487.075C162.305 485.907 161.889 484.589 161.792 483.229C161.792 480.758 163.589 479.84 165.836 481.132Z" fill="#54BD95"/>
<path d="M158.234 511.878L249.011 564.306C250.188 565.078 251.167 566.116 251.869 567.336C252.572 568.555 252.978 569.923 253.055 571.328V605.856C253.055 608.44 251.183 609.489 248.992 608.197L158.234 555.768C157.052 555 156.067 553.964 155.361 552.744C154.655 551.524 154.247 550.154 154.171 548.746V514.293C154.171 511.634 155.95 510.548 158.234 511.878Z" fill="#455A64"/>
<path d="M161.792 527.101C161.887 528.464 162.303 529.785 163.006 530.956C163.709 532.128 164.679 533.116 165.836 533.842L241.39 577.451C243.637 578.743 245.453 577.826 245.453 575.41C245.354 574.046 244.935 572.725 244.228 571.553C243.522 570.382 242.55 569.394 241.39 568.669L165.836 525.06C163.589 523.768 161.792 524.685 161.792 527.101Z" fill="#54BD95"/>
<path d="M161.792 544.665C161.887 546.027 162.303 547.348 163.006 548.52C163.709 549.691 164.679 550.68 165.836 551.405L241.39 595.015C243.637 596.307 245.453 595.389 245.453 592.974C245.354 591.61 244.935 590.288 244.228 589.117C243.522 587.946 242.55 586.957 241.39 586.233L165.836 542.624C163.589 541.332 161.792 542.249 161.792 544.665Z" fill="#263238"/>
<path d="M165.836 542.624L222.628 575.41V584.192L165.836 551.405C164.679 550.68 163.709 549.691 163.006 548.52C162.303 547.348 161.887 546.027 161.792 544.665C161.792 542.249 163.589 541.332 165.836 542.624Z" fill="#54BD95"/>
<path d="M287.284 322.929C291.478 320.495 294.886 322.704 294.886 327.872V528.73C294.788 531.463 294.049 534.134 292.729 536.528C291.408 538.922 289.543 540.971 287.284 542.511C283.09 544.946 279.682 542.736 279.682 537.549V336.691C279.782 333.962 280.523 331.295 281.843 328.904C283.164 326.514 285.027 324.467 287.284 322.929Z" fill="#37474F"/>
<path d="M287.283 538.054C288.403 537.283 289.325 536.259 289.975 535.065C290.626 533.871 290.987 532.541 291.028 531.183V329.763C291.028 327.179 289.324 326.018 287.283 327.272C286.165 328.049 285.243 329.077 284.593 330.273C283.943 331.47 283.582 332.802 283.538 334.163V535.583C283.482 538.167 285.149 539.272 287.283 538.054Z" fill="#263238"/>
<path d="M287.284 538.054C288.403 537.283 289.325 536.259 289.976 535.065C290.626 533.871 290.987 532.541 291.028 531.183V434.882L283.426 439.283V535.583C283.482 538.167 285.149 539.272 287.284 538.054Z" fill="#54BD95"/>
<path d="M310.109 309.746C314.303 307.312 317.711 309.54 317.711 314.708V515.566C317.61 518.295 316.87 520.963 315.549 523.353C314.229 525.744 312.365 527.791 310.109 529.329C305.896 531.763 302.488 529.554 302.488 524.386V323.527C302.588 320.793 303.329 318.121 304.653 315.727C305.977 313.333 307.846 311.284 310.109 309.746Z" fill="#37474F"/>
<path d="M310.109 524.891C311.226 524.118 312.147 523.093 312.797 521.9C313.447 520.706 313.809 519.378 313.854 518.019V316.6C313.854 313.997 312.15 312.855 310.109 314.109C308.992 314.883 308.071 315.907 307.421 317.101C306.771 318.294 306.409 319.623 306.364 320.981V522.401C306.289 524.985 307.993 526.108 310.109 524.891Z" fill="#54BD95"/>
<path d="M332.915 296.583C337.109 294.149 340.517 296.359 340.517 301.527V502.385C340.421 505.117 339.683 507.789 338.362 510.183C337.041 512.578 335.175 514.627 332.915 516.166C328.721 518.6 325.313 516.372 325.313 511.204V310.346C325.414 307.617 326.154 304.95 327.474 302.559C328.795 300.168 330.659 298.122 332.915 296.583Z" fill="#37474F"/>
<path d="M332.915 511.71C334.034 510.938 334.957 509.914 335.607 508.72C336.258 507.527 336.618 506.197 336.66 504.838V303.418C336.66 300.834 334.956 299.673 332.915 300.928C331.796 301.703 330.873 302.731 330.223 303.927C329.573 305.124 329.212 306.457 329.17 307.818V509.238C329.114 511.822 330.818 512.927 332.915 511.71Z" fill="#263238"/>
<path d="M332.915 511.709C334.035 510.938 334.957 509.914 335.607 508.72C336.258 507.526 336.619 506.196 336.66 504.837V349.255L329.058 353.637V509.238C329.114 511.822 330.818 512.926 332.915 511.709Z" fill="#54BD95"/>
<path d="M355.74 283.401C359.935 280.967 363.342 283.195 363.342 288.363V489.221C363.254 491.963 362.519 494.646 361.198 497.05C359.877 499.455 358.007 501.513 355.74 503.059C351.527 505.493 348.138 503.284 348.138 498.116V297.183C348.233 294.45 348.971 291.777 350.291 289.383C351.612 286.989 353.479 284.939 355.74 283.401Z" fill="#37474F"/>
<path d="M355.74 498.546C356.858 497.772 357.778 496.748 358.428 495.554C359.079 494.361 359.441 493.032 359.485 491.674V290.235C359.485 287.651 357.781 286.491 355.74 287.764C354.621 288.535 353.699 289.559 353.048 290.753C352.398 291.947 352.037 293.277 351.995 294.636V496.055C351.939 498.639 353.643 499.763 355.74 498.546Z" fill="#263238"/>
<path d="M355.741 498.546C356.858 497.772 357.778 496.748 358.429 495.555C359.079 494.361 359.441 493.032 359.485 491.674V457.67L351.883 462.071V496.056C351.939 498.64 353.643 499.763 355.741 498.546Z" fill="#54BD95"/>
<path d="M378.547 270.237C382.76 267.803 386.168 270.013 386.168 275.181V476.039C386.068 478.773 385.326 481.445 384.002 483.839C382.678 486.233 380.81 488.282 378.547 489.82C374.353 492.254 370.945 490.026 370.945 484.858V283.981C371.048 281.255 371.79 278.592 373.11 276.205C374.431 273.818 376.293 271.774 378.547 270.237Z" fill="#37474F"/>
<path d="M378.547 485.364C379.668 484.595 380.592 483.571 381.243 482.377C381.894 481.183 382.253 479.852 382.292 478.492V277.072C382.292 274.488 380.588 273.328 378.547 274.582C377.43 275.356 376.509 276.38 375.859 277.574C375.209 278.767 374.847 280.096 374.802 281.454V482.893C374.746 485.477 376.45 486.581 378.547 485.364Z" fill="#263238"/>
<path d="M378.547 485.364C379.669 484.594 380.592 483.571 381.243 482.377C381.894 481.182 382.253 479.851 382.292 478.492V373.41L374.69 377.791V482.892C374.746 485.476 376.45 486.581 378.547 485.364Z" fill="#54BD95"/>
<path d="M282.921 566.947L382.91 509.219C384.782 508.17 386.168 509.013 386.168 511.091V547.511C386.105 548.637 385.777 549.733 385.211 550.709C384.645 551.685 383.857 552.514 382.91 553.128L282.921 610.856C281.049 611.904 279.682 611.062 279.682 608.983V572.564C279.741 571.439 280.065 570.343 280.628 569.367C281.191 568.391 281.977 567.562 282.921 566.947Z" fill="#37474F"/>
<path d="M287.021 577.751C287.021 580.166 288.894 581.084 291.085 579.792L374.746 531.482C375.906 530.758 376.879 529.77 377.585 528.598C378.291 527.427 378.71 526.105 378.809 524.741C378.809 522.326 376.937 521.408 374.746 522.7L291.085 571.01C289.925 571.734 288.952 572.722 288.246 573.894C287.54 575.065 287.12 576.386 287.021 577.751Z" fill="#263238"/>
<path d="M287.021 577.751C287.021 580.166 288.894 581.084 291.085 579.792L351.939 544.646V535.864L291.085 571.01C289.925 571.734 288.952 572.723 288.246 573.894C287.54 575.065 287.12 576.387 287.021 577.751Z" fill="#54BD95"/>
<path d="M287.021 595.314C287.021 597.73 288.894 598.666 291.085 597.355L374.746 549.046C375.889 548.325 376.849 547.346 377.547 546.189C378.246 545.032 378.666 543.728 378.772 542.38C378.772 539.964 376.899 539.047 374.708 540.339L291.047 588.648C289.904 589.37 288.945 590.348 288.246 591.505C287.547 592.662 287.128 593.966 287.021 595.314Z" fill="#263238"/>
<path d="M287.021 595.314C287.021 597.73 288.894 598.666 291.085 597.355L313.91 584.248V575.466L291.085 588.573C289.925 589.298 288.952 590.286 288.246 591.457C287.54 592.629 287.12 593.95 287.021 595.314Z" fill="#54BD95"/>
<path d="M393.508 226.16L272.323 156.187C271.066 155.55 269.677 155.218 268.269 155.218C266.86 155.218 265.471 155.55 264.215 156.187L143.011 226.16C142.522 226.326 142.097 226.641 141.796 227.061C141.495 227.481 141.333 227.984 141.333 228.501C141.333 229.017 141.495 229.521 141.796 229.941C142.097 230.36 142.522 230.675 143.011 230.841L264.215 300.834C265.47 301.475 266.859 301.809 268.269 301.809C269.678 301.809 271.067 301.475 272.323 300.834L393.508 230.879C394.011 230.722 394.45 230.408 394.762 229.984C395.074 229.559 395.243 229.046 395.243 228.519C395.243 227.993 395.074 227.48 394.762 227.055C394.45 226.631 394.011 226.317 393.508 226.16Z" fill="#455A64"/>
<path d="M265.825 284.168L171.828 229.867C171.122 229.404 170.534 228.781 170.111 228.05C169.688 227.318 169.443 226.498 169.394 225.654V222.49C169.438 221.645 169.682 220.823 170.105 220.091C170.528 219.359 171.119 218.737 171.828 218.277L265.825 163.976C266.578 163.588 267.413 163.386 268.26 163.386C269.106 163.386 269.941 163.588 270.694 163.976L364.71 218.277C365.419 218.737 366.01 219.359 366.433 220.091C366.856 220.823 367.1 221.645 367.144 222.49V225.654C367.095 226.498 366.85 227.318 366.427 228.05C366.004 228.781 365.416 229.404 364.71 229.867L270.694 284.168C269.941 284.556 269.106 284.758 268.26 284.758C267.413 284.758 266.578 284.556 265.825 284.168Z" fill="#263238"/>
<path d="M171.828 221.123L265.825 275.425C266.578 275.812 267.413 276.014 268.26 276.014C269.106 276.014 269.941 275.812 270.694 275.425L364.71 221.123C366.058 220.337 366.058 219.082 364.71 218.315L270.694 165.886C269.941 165.498 269.106 165.296 268.26 165.296C267.413 165.296 266.578 165.498 265.825 165.886L171.828 218.315C170.48 219.082 170.48 220.318 171.828 221.123Z" fill="#455A64"/>
<path d="M268.297 275.968V284.75C267.449 284.769 266.611 284.569 265.863 284.169L171.847 229.868C171.137 229.408 170.547 228.786 170.124 228.054C169.7 227.322 169.457 226.499 169.413 225.655V222.49C169.454 221.739 169.652 221.004 169.994 220.334C170.336 219.663 170.814 219.071 171.397 218.596C170.517 219.363 170.667 220.468 171.847 221.086L265.863 275.387C266.611 275.787 267.449 275.987 268.297 275.968Z" fill="#37474F"/>
<path d="M265.825 257.767L202.162 221.067C201.46 220.601 200.876 219.977 200.457 219.246C200.038 218.514 199.794 217.696 199.746 216.854V213.671C199.794 212.829 200.038 212.011 200.457 211.279C200.876 210.548 201.46 209.924 202.162 209.458L242.944 185.921C244.52 184.923 245.908 183.655 247.045 182.176L266.518 155.962C266.989 155.356 267.661 154.938 268.413 154.783C269.165 154.629 269.947 154.748 270.619 155.119L334.282 191.819C334.991 192.281 335.58 192.903 336.003 193.635C336.426 194.367 336.671 195.188 336.716 196.032V216.779C336.668 217.623 336.422 218.443 335.999 219.175C335.577 219.906 334.989 220.529 334.282 220.992L270.619 257.692C269.881 258.079 269.063 258.288 268.231 258.301C267.398 258.314 266.574 258.131 265.825 257.767Z" fill="#263238"/>
<path d="M270.694 249.042L311.476 225.505C313.047 224.5 314.434 223.233 315.577 221.76L335.05 195.546C335.284 195.263 335.451 194.932 335.54 194.576C335.629 194.22 335.637 193.849 335.563 193.489C335.489 193.13 335.336 192.792 335.115 192.499C334.893 192.207 334.608 191.968 334.282 191.801L270.619 155.101C269.947 154.729 269.165 154.61 268.413 154.765C267.661 154.919 266.989 155.337 266.518 155.943L247.045 182.158C246.026 183.616 244.759 184.884 243.3 185.902L202.106 209.289C201.811 209.387 201.554 209.575 201.371 209.827C201.189 210.08 201.091 210.383 201.091 210.694C201.091 211.005 201.189 211.308 201.371 211.56C201.554 211.812 201.811 212 202.106 212.098L265.769 248.817C266.511 249.249 267.346 249.495 268.204 249.534C269.061 249.573 269.916 249.404 270.694 249.042Z" fill="#455A64"/>
<path d="M334.282 191.951L270.619 155.25C269.947 154.879 269.165 154.76 268.413 154.915C267.661 155.069 266.989 155.487 266.518 156.093L247.045 182.307C246.449 183.06 245.784 183.756 245.06 184.386C245.06 184.386 313.498 223.913 313.517 223.895C314.241 223.271 314.905 222.581 315.502 221.835L334.975 195.621C335.198 195.344 335.358 195.023 335.445 194.678C335.531 194.334 335.542 193.975 335.476 193.626C335.41 193.277 335.269 192.946 335.063 192.657C334.857 192.368 334.591 192.127 334.282 191.951Z" fill="#37474F"/>
<path d="M217.741 210.17C218.625 209.718 219.603 209.482 220.596 209.482C221.589 209.482 222.568 209.718 223.452 210.17C223.795 210.287 224.094 210.509 224.305 210.805C224.516 211.1 224.63 211.454 224.63 211.817C224.63 212.181 224.516 212.535 224.305 212.83C224.094 213.126 223.795 213.348 223.452 213.465C222.565 213.908 221.587 214.139 220.596 214.139C219.605 214.139 218.627 213.908 217.741 213.465C217.397 213.348 217.099 213.126 216.887 212.83C216.676 212.535 216.562 212.181 216.562 211.817C216.562 211.454 216.676 211.1 216.887 210.805C217.099 210.509 217.397 210.287 217.741 210.17Z" fill="#54BD95"/>
<path d="M229.088 216.761C229.959 216.321 230.921 216.092 231.896 216.092C232.872 216.092 233.834 216.321 234.705 216.761C235.049 216.878 235.347 217.1 235.558 217.396C235.77 217.691 235.883 218.045 235.883 218.408C235.883 218.772 235.77 219.126 235.558 219.421C235.347 219.717 235.049 219.939 234.705 220.056C233.832 220.487 232.871 220.711 231.896 220.711C230.922 220.711 229.961 220.487 229.088 220.056C228.744 219.939 228.446 219.717 228.234 219.421C228.023 219.126 227.91 218.772 227.91 218.408C227.91 218.045 228.023 217.691 228.234 217.396C228.446 217.1 228.744 216.878 229.088 216.761Z" fill="#54BD95"/>
<path d="M240.491 223.333C241.365 222.905 242.326 222.682 243.3 222.682C244.273 222.682 245.234 222.905 246.108 223.333C246.452 223.45 246.75 223.672 246.962 223.968C247.173 224.263 247.287 224.617 247.287 224.981C247.287 225.344 247.173 225.698 246.962 225.993C246.75 226.289 246.452 226.511 246.108 226.628C245.237 227.065 244.275 227.292 243.3 227.292C242.325 227.292 241.363 227.065 240.491 226.628C240.147 226.511 239.849 226.289 239.638 225.993C239.427 225.698 239.313 225.344 239.313 224.981C239.313 224.617 239.427 224.263 239.638 223.968C239.849 223.672 240.147 223.45 240.491 223.333Z" fill="#263238"/>
<path d="M251.894 229.924C252.781 229.481 253.759 229.25 254.75 229.25C255.741 229.25 256.719 229.481 257.605 229.924C257.949 230.042 258.247 230.264 258.459 230.559C258.67 230.854 258.783 231.209 258.783 231.572C258.783 231.935 258.67 232.289 258.459 232.585C258.247 232.88 257.949 233.102 257.605 233.22C256.721 233.671 255.743 233.907 254.75 233.907C253.757 233.907 252.778 233.671 251.894 233.22C251.551 233.102 251.252 232.88 251.041 232.585C250.83 232.289 250.716 231.935 250.716 231.572C250.716 231.209 250.83 230.854 251.041 230.559C251.252 230.264 251.551 230.042 251.894 229.924Z" fill="#263238"/>
<path d="M226.223 205.226C227.095 204.789 228.056 204.562 229.031 204.562C230.007 204.562 230.968 204.789 231.84 205.226C232.184 205.344 232.482 205.566 232.693 205.861C232.905 206.156 233.018 206.511 233.018 206.874C233.018 207.237 232.905 207.591 232.693 207.887C232.482 208.182 232.184 208.404 231.84 208.522C230.968 208.958 230.007 209.186 229.031 209.186C228.056 209.186 227.095 208.958 226.223 208.522C225.879 208.404 225.581 208.182 225.369 207.887C225.158 207.591 225.045 207.237 225.045 206.874C225.045 206.511 225.158 206.156 225.369 205.861C225.581 205.566 225.879 205.344 226.223 205.226Z" fill="#54BD95"/>
<path d="M240.491 215.787C242.714 215.787 244.517 214.748 244.517 213.465C244.517 212.183 242.714 211.143 240.491 211.143C238.267 211.143 236.465 212.183 236.465 213.465C236.465 214.748 238.267 215.787 240.491 215.787Z" fill="#263238"/>
<path d="M249.048 218.446C249.92 218.009 250.881 217.782 251.857 217.782C252.832 217.782 253.793 218.009 254.665 218.446C255.011 218.558 255.313 218.777 255.527 219.072C255.741 219.366 255.856 219.72 255.856 220.084C255.856 220.448 255.741 220.803 255.527 221.097C255.313 221.391 255.011 221.61 254.665 221.723C253.793 222.159 252.832 222.387 251.857 222.387C250.881 222.387 249.92 222.159 249.048 221.723C248.702 221.61 248.4 221.391 248.186 221.097C247.973 220.803 247.857 220.448 247.857 220.084C247.857 219.72 247.973 219.366 248.186 219.072C248.4 218.777 248.702 218.558 249.048 218.446Z" fill="#54BD95"/>
<path d="M263.316 228.95C265.54 228.95 267.342 227.911 267.342 226.628C267.342 225.346 265.54 224.306 263.316 224.306C261.093 224.306 259.291 225.346 259.291 226.628C259.291 227.911 261.093 228.95 263.316 228.95Z" fill="#263238"/>
<path d="M234.78 200.283C235.667 199.84 236.644 199.609 237.636 199.609C238.627 199.609 239.605 199.84 240.491 200.283C240.835 200.401 241.133 200.623 241.344 200.918C241.556 201.214 241.669 201.568 241.669 201.931C241.669 202.294 241.556 202.648 241.344 202.944C241.133 203.239 240.835 203.461 240.491 203.579C239.607 204.031 238.628 204.266 237.636 204.266C236.643 204.266 235.664 204.031 234.78 203.579C234.436 203.461 234.138 203.239 233.927 202.944C233.716 202.648 233.602 202.294 233.602 201.931C233.602 201.568 233.716 201.214 233.927 200.918C234.138 200.623 234.436 200.401 234.78 200.283Z" fill="#263238"/>
<path d="M246.202 206.874C247.073 206.434 248.035 206.205 249.011 206.205C249.986 206.205 250.948 206.434 251.819 206.874C252.163 206.991 252.461 207.213 252.673 207.509C252.884 207.804 252.997 208.158 252.997 208.521C252.997 208.885 252.884 209.239 252.673 209.534C252.461 209.83 252.163 210.052 251.819 210.169C250.946 210.6 249.985 210.824 249.011 210.824C248.037 210.824 247.076 210.6 246.202 210.169C245.858 210.052 245.56 209.83 245.349 209.534C245.137 209.239 245.024 208.885 245.024 208.521C245.024 208.158 245.137 207.804 245.349 207.509C245.56 207.213 245.858 206.991 246.202 206.874Z" fill="#54BD95"/>
<path d="M257.605 213.465C258.477 213.028 259.439 212.801 260.414 212.801C261.389 212.801 262.351 213.028 263.223 213.465C263.566 213.582 263.865 213.804 264.076 214.1C264.287 214.395 264.401 214.75 264.401 215.113C264.401 215.476 264.287 215.83 264.076 216.126C263.865 216.421 263.566 216.643 263.223 216.76C262.348 217.189 261.388 217.411 260.414 217.411C259.44 217.411 258.48 217.189 257.605 216.76C257.262 216.643 256.963 216.421 256.752 216.126C256.541 215.83 256.427 215.476 256.427 215.113C256.427 214.75 256.541 214.395 256.752 214.1C256.963 213.804 257.262 213.582 257.605 213.465Z" fill="#263238"/>
<path d="M263.372 236.384C264.244 235.947 265.206 235.72 266.181 235.72C267.156 235.72 268.118 235.947 268.99 236.384C269.333 236.501 269.632 236.723 269.843 237.019C270.054 237.314 270.168 237.668 270.168 238.032C270.168 238.395 270.054 238.749 269.843 239.044C269.632 239.34 269.333 239.562 268.99 239.679C268.115 240.108 267.155 240.33 266.181 240.33C265.208 240.33 264.247 240.108 263.372 239.679C263.029 239.562 262.73 239.34 262.519 239.044C262.308 238.749 262.194 238.395 262.194 238.032C262.194 237.668 262.308 237.314 262.519 237.019C262.73 236.723 263.029 236.501 263.372 236.384Z" fill="#54BD95"/>
<path d="M271.93 231.441C272.804 231.012 273.765 230.79 274.738 230.79C275.712 230.79 276.673 231.012 277.547 231.441C277.891 231.558 278.189 231.78 278.4 232.076C278.611 232.371 278.725 232.725 278.725 233.088C278.725 233.452 278.611 233.806 278.4 234.101C278.189 234.397 277.891 234.619 277.547 234.736C276.675 235.173 275.713 235.4 274.738 235.4C273.763 235.4 272.801 235.173 271.93 234.736C271.586 234.619 271.288 234.397 271.076 234.101C270.865 233.806 270.751 233.452 270.751 233.088C270.751 232.725 270.865 232.371 271.076 232.076C271.288 231.78 271.586 231.558 271.93 231.441Z" fill="#263238"/>
<path d="M269.008 220.056C269.892 219.604 270.871 219.368 271.864 219.368C272.856 219.368 273.835 219.604 274.719 220.056C275.063 220.173 275.361 220.395 275.572 220.691C275.784 220.986 275.897 221.341 275.897 221.704C275.897 222.067 275.784 222.421 275.572 222.717C275.361 223.012 275.063 223.234 274.719 223.351C273.833 223.795 272.855 224.026 271.864 224.026C270.872 224.026 269.895 223.795 269.008 223.351C268.664 223.234 268.366 223.012 268.155 222.717C267.944 222.421 267.83 222.067 267.83 221.704C267.83 221.341 267.944 220.986 268.155 220.691C268.366 220.395 268.664 220.173 269.008 220.056Z" fill="#263238"/>
<path d="M246.202 199.328C248.425 199.328 250.228 198.288 250.228 197.006C250.228 195.724 248.425 194.684 246.202 194.684C243.979 194.684 242.176 195.724 242.176 197.006C242.176 198.288 243.979 199.328 246.202 199.328Z" fill="#54BD95"/>
<path d="M254.759 201.93C255.633 201.499 256.594 201.275 257.568 201.275C258.542 201.275 259.503 201.499 260.376 201.93C260.72 202.048 261.019 202.27 261.23 202.565C261.441 202.861 261.555 203.215 261.555 203.578C261.555 203.941 261.441 204.296 261.23 204.591C261.019 204.886 260.72 205.108 260.376 205.226C259.505 205.665 258.543 205.894 257.568 205.894C256.592 205.894 255.63 205.665 254.759 205.226C253.168 204.327 253.168 202.848 254.759 201.93Z" fill="#263238"/>
<path d="M269.008 212.491C271.232 212.491 273.034 211.452 273.034 210.169C273.034 208.887 271.232 207.847 269.008 207.847C266.785 207.847 264.982 208.887 264.982 210.169C264.982 211.452 266.785 212.491 269.008 212.491Z" fill="#54BD95"/>
<path d="M277.659 215.112C278.531 214.676 279.493 214.448 280.468 214.448C281.443 214.448 282.405 214.676 283.276 215.112C283.62 215.23 283.918 215.452 284.13 215.747C284.341 216.043 284.454 216.397 284.454 216.76C284.454 217.123 284.341 217.477 284.13 217.773C283.918 218.068 283.62 218.29 283.276 218.408C282.402 218.836 281.441 219.059 280.468 219.059C279.494 219.059 278.533 218.836 277.659 218.408C277.315 218.29 277.017 218.068 276.806 217.773C276.595 217.477 276.481 217.123 276.481 216.76C276.481 216.397 276.595 216.043 276.806 215.747C277.017 215.452 277.315 215.23 277.659 215.112Z" fill="#263238"/>
<path d="M280.486 226.516C281.358 226.08 282.32 225.852 283.295 225.852C284.27 225.852 285.232 226.08 286.104 226.516C286.45 226.629 286.751 226.848 286.965 227.142C287.179 227.436 287.294 227.791 287.294 228.155C287.294 228.518 287.179 228.873 286.965 229.167C286.751 229.461 286.45 229.681 286.104 229.793C285.232 230.23 284.27 230.457 283.295 230.457C282.32 230.457 281.358 230.23 280.486 229.793C280.14 229.681 279.839 229.461 279.625 229.167C279.411 228.873 279.296 228.518 279.296 228.155C279.296 227.791 279.411 227.436 279.625 227.142C279.839 226.848 280.14 226.629 280.486 226.516Z" fill="#54BD95"/>
<path d="M291.89 225.542C294.113 225.542 295.915 224.503 295.915 223.22C295.915 221.938 294.113 220.899 291.89 220.899C289.666 220.899 287.864 221.938 287.864 223.22C287.864 224.503 289.666 225.542 291.89 225.542Z" fill="#263238"/>
<path d="M268.409 249.622V258.385C267.519 258.428 266.634 258.234 265.844 257.824L202.181 221.105C201.471 220.645 200.88 220.023 200.457 219.291C200.034 218.559 199.791 217.736 199.746 216.892V213.727C199.788 212.976 199.986 212.241 200.328 211.571C200.67 210.9 201.148 210.308 201.731 209.833C200.851 210.6 201.001 211.705 202.181 212.323L265.844 249.042C266.633 249.459 267.518 249.659 268.409 249.622Z" fill="#37474F"/>
<path d="M255.527 181.222C255.839 180.815 256.287 180.535 256.789 180.432C257.291 180.329 257.813 180.41 258.26 180.66L313.61 212.604C313.816 212.719 313.995 212.877 314.135 213.067C314.274 213.258 314.37 213.477 314.416 213.708C314.463 213.94 314.458 214.179 314.403 214.408C314.348 214.638 314.243 214.853 314.097 215.038V215.132C313.78 215.532 313.332 215.807 312.832 215.91C312.332 216.012 311.812 215.936 311.363 215.693L256.032 183.749C255.812 183.636 255.62 183.474 255.471 183.277C255.321 183.079 255.219 182.85 255.17 182.607C255.122 182.364 255.128 182.114 255.19 181.874C255.252 181.634 255.367 181.411 255.527 181.222Z" fill="#263238"/>
<path d="M255.527 181.222C255.839 180.815 256.287 180.535 256.789 180.432C257.291 180.329 257.813 180.41 258.26 180.66L299.454 204.403L297.17 207.492L255.976 183.749C255.76 183.631 255.573 183.466 255.43 183.265C255.286 183.065 255.189 182.836 255.146 182.593C255.103 182.351 255.115 182.101 255.181 181.864C255.246 181.627 255.365 181.407 255.527 181.222Z" fill="#54BD95"/>
<path d="M260.114 175.08C260.426 174.674 260.875 174.393 261.376 174.29C261.878 174.187 262.401 174.268 262.848 174.518L318.179 206.462C318.387 206.575 318.568 206.732 318.709 206.922C318.85 207.112 318.948 207.33 318.996 207.562C319.044 207.794 319.041 208.033 318.987 208.264C318.933 208.494 318.83 208.71 318.684 208.896C318.364 209.298 317.913 209.574 317.41 209.677C316.907 209.779 316.384 209.702 315.932 209.458L260.62 177.533C260.411 177.418 260.23 177.259 260.089 177.067C259.948 176.876 259.85 176.656 259.802 176.423C259.754 176.19 259.757 175.949 259.811 175.717C259.865 175.485 259.968 175.268 260.114 175.08Z" fill="#263238"/>
<path d="M260.114 175.08C260.427 174.674 260.875 174.393 261.377 174.29C261.879 174.187 262.401 174.268 262.848 174.518L276.592 182.457L274.308 185.528L260.564 177.608C260.348 177.489 260.161 177.324 260.018 177.124C259.874 176.924 259.777 176.694 259.734 176.451C259.691 176.209 259.703 175.96 259.768 175.722C259.834 175.485 259.953 175.265 260.114 175.08Z" fill="#54BD95"/>
<path d="M264.683 168.957C264.993 168.547 265.44 168.263 265.942 168.157C266.444 168.05 266.968 168.128 267.417 168.376L322.748 200.32C322.956 200.435 323.137 200.594 323.279 200.786C323.42 200.977 323.518 201.197 323.566 201.43C323.614 201.663 323.611 201.904 323.557 202.136C323.503 202.368 323.4 202.585 323.254 202.773C322.937 203.173 322.489 203.449 321.989 203.551C321.489 203.654 320.969 203.577 320.52 203.335L265.189 171.391C264.981 171.278 264.8 171.121 264.659 170.931C264.518 170.741 264.42 170.523 264.372 170.291C264.324 170.059 264.327 169.82 264.381 169.589C264.434 169.359 264.538 169.143 264.683 168.957Z" fill="#263238"/>
<path d="M264.683 168.957C264.993 168.547 265.439 168.263 265.942 168.157C266.444 168.05 266.967 168.128 267.417 168.376L296.383 184.891L294.099 187.962L265.282 171.391C265.067 171.286 264.877 171.136 264.726 170.95C264.576 170.764 264.468 170.547 264.411 170.314C264.354 170.082 264.348 169.84 264.395 169.605C264.442 169.371 264.541 169.149 264.683 168.957Z" fill="#54BD95"/>
<path d="M269.252 162.815C269.564 162.409 270.011 162.127 270.512 162.021C271.013 161.915 271.535 161.99 271.986 162.234L327.391 194.104C327.598 194.218 327.777 194.376 327.916 194.567C328.055 194.758 328.151 194.977 328.198 195.208C328.244 195.44 328.239 195.679 328.184 195.908C328.129 196.138 328.025 196.353 327.878 196.538C327.566 196.944 327.118 197.224 326.616 197.327C326.114 197.43 325.592 197.35 325.145 197.1L269.814 165.155C269.615 165.046 269.442 164.897 269.305 164.716C269.167 164.536 269.069 164.329 269.016 164.109C268.963 163.889 268.957 163.66 268.998 163.437C269.038 163.214 269.125 163.002 269.252 162.815Z" fill="#263238"/>
<path d="M269.252 162.815C269.564 162.409 270.011 162.127 270.512 162.021C271.013 161.915 271.535 161.99 271.986 162.234L322.224 191.239L319.92 194.31L269.701 165.324C269.486 165.208 269.299 165.044 269.156 164.846C269.012 164.647 268.915 164.419 268.872 164.178C268.829 163.937 268.84 163.689 268.906 163.453C268.972 163.217 269.09 162.999 269.252 162.815Z" fill="#54BD95"/>
</svg>
