<svg width="33" height="33" viewBox="0 0 33 33" fill="none" xmlns="http://www.w3.org/2000/svg">
<path d="M0.227661 16.6895C0.227661 7.8529 7.3911 0.689453 16.2277 0.689453C25.0642 0.689453 32.2277 7.8529 32.2277 16.6895C32.2277 25.526 25.0642 32.6895 16.2277 32.6895C7.3911 32.6895 0.227661 25.526 0.227661 16.6895Z" fill="white"/>
<path d="M19.6667 15.0895H18.4268H17.984V14.5733V12.9733V12.4572H18.4268H19.3567C19.6003 12.4572 19.7995 12.2507 19.7995 11.9411V9.20558C19.7995 8.92171 19.6224 8.68945 19.3567 8.68945H17.7405C15.9915 8.68945 14.7738 10.1346 14.7738 12.2765V14.5217V15.0378H14.331H12.8254C12.5155 15.0378 12.2277 15.3217 12.2277 15.7346V17.5927C12.2277 17.954 12.4712 18.2895 12.8254 18.2895H14.2867H14.7295V18.8056V23.9927C14.7295 24.354 14.973 24.6895 15.3273 24.6895H17.4084C17.5412 24.6895 17.6519 24.612 17.7405 24.5088C17.8291 24.4056 17.8955 24.2249 17.8955 24.0701V18.8314V18.3153H18.3604H19.3567C19.6445 18.3153 19.8659 18.1088 19.9102 17.7991V17.7733V17.7475L20.2202 15.9669C20.2423 15.7862 20.2202 15.5798 20.0873 15.3733C20.0431 15.2443 19.8438 15.1153 19.6667 15.0895Z" fill="#0B0A1A"/>
</svg>
