<svg width="32" height="33" viewBox="0 0 32 33" fill="none" xmlns="http://www.w3.org/2000/svg">
<path d="M16.1138 32.4618C24.8875 32.4618 32 25.3493 32 16.5756C32 7.80193 24.8875 0.689453 16.1138 0.689453C7.34014 0.689453 0.227661 7.80193 0.227661 16.5756C0.227661 25.3493 7.34014 32.4618 16.1138 32.4618Z" fill="white"/>
<path d="M22.2491 9.68945H10.2485C9.68137 9.68945 9.22766 10.1411 9.22766 10.7056V22.6733C9.22766 23.2153 9.68137 23.6895 10.2485 23.6895H22.2037C22.7708 23.6895 23.2245 23.2378 23.2245 22.6733V10.683C23.2699 10.1411 22.8162 9.68945 22.2491 9.68945ZM13.3791 21.5895H11.3147V14.9282H13.3791V21.5895ZM12.3356 14.0024C11.655 14.0024 11.1332 13.4604 11.1332 12.8056C11.1332 12.1507 11.6777 11.6088 12.3356 11.6088C12.9934 11.6088 13.5379 12.1507 13.5379 12.8056C13.5379 13.4604 13.0388 14.0024 12.3356 14.0024ZM21.2055 21.5895H19.1412V18.3604C19.1412 17.5927 19.1185 16.5766 18.0523 16.5766C16.9634 16.5766 16.8046 17.4346 16.8046 18.2927V21.5895H14.7402V14.9282H16.7592V15.854H16.7819C17.0768 15.312 17.7347 14.7701 18.7555 14.7701C20.8653 14.7701 21.2509 16.1249 21.2509 17.9766V21.5895H21.2055Z" fill="#0B0A1A"/>
</svg>
