<svg width="272" height="64" viewBox="0 0 272 64" fill="none" xmlns="http://www.w3.org/2000/svg">
<path d="M32.6937 15.0425C31.475 15.0425 30.4062 15.6331 29.4312 16.7263C28.4656 17.8156 27.6594 19.4 27.125 21.1906C26.3187 23.8625 26.15 26.9844 26.675 29.5156L32.8437 28.6344L38.7406 29.3281C39.2281 26.8344 39.05 23.7969 38.2625 21.1906C37.7281 19.4 36.9219 17.8156 35.9562 16.7263C34.9812 15.6331 33.9125 15.0425 32.6937 15.0425ZM46.1937 18.3313C45.1062 18.3313 44.1406 18.8656 43.2594 19.8781C42.3875 20.8906 41.6469 22.3719 41.1594 24.0406C40.9812 24.6594 40.8312 25.2969 40.7187 25.9438C40.7562 27.1156 40.6719 28.2688 40.475 29.3563C40.475 29.4125 40.475 29.4688 40.4844 29.5344L43.2875 29.8625L37.4844 30.8844L32.8625 30.3406L17.0712 32.5906L24.9031 35.4031L35.1406 33.6594L25.2031 38.7313L14.3581 32.9844L11.6459 33.3688L12.4344 36.3125L9.69031 35.1969L13.2444 39.3406L13.6878 41L17.7969 42.9594L23.7125 41.4125L18.3875 45.3406L14.4341 43.7938L15.4522 47.6L17.7031 48.2563L13.7666 49.8688L22.8969 49.9063L17.9469 51.9594L27.9875 51.2469C34.8687 53.6656 36.4531 53.3469 44.2344 54.0688L37.8406 51.6781L40.1187 50.4969L34.6906 46.7844C41.9937 49.0438 44.8062 48.3313 51.9031 47L47.9469 46.4188L52.8031 43.8875L52.8406 42.6969L55.4187 37.2969L52.9531 39.0406L53.0469 36.2844L47.1219 41.1125L36.5281 37.8875L47.4219 38.6281L53.0562 35.9188L53.1031 34.5969L54.6125 30.7625L51.7437 32.5531L48.2656 32.15L41.0094 32.9656C41.0094 32.9656 43.0812 32.3188 45.0312 31.7281L47.0562 30.3031L51.7906 30.8563C52.0719 28.7 51.8656 26.2063 51.2281 24.0406C50.7406 22.3719 50 20.8906 49.1281 19.8781C48.2469 18.8656 47.2812 18.3313 46.1937 18.3313ZM21.0875 19.3438C19.9531 19.3438 18.9687 19.8594 18.0781 20.7875C17.1894 21.725 16.4478 23.0938 15.9547 24.6313C15.2872 26.7031 15.0941 29.0844 15.4175 31.1188L24.9875 29.7594C24.4906 27.3781 24.5844 24.6875 25.1281 22.175C24.8187 21.65 24.4719 21.1813 24.0969 20.7875C23.2062 19.8594 22.2219 19.3438 21.0875 19.3438ZM27.4812 42.2563L34.3437 43.55L41.6562 42.7063L34.1937 45.5938L27.4812 42.2563Z" fill="#1FAD72"/>
<path d="M74.912 44V21.6H79.296L87.424 34.848L84.576 34.816L92.832 21.6H97.056V44H92.352V36.416C92.352 34.4747 92.3947 32.7253 92.48 31.168C92.5867 29.6107 92.7573 28.0747 92.992 26.56L93.536 28.064L86.976 38.208H84.832L78.432 28.128L78.944 26.56C79.2 27.9893 79.3707 29.4613 79.456 30.976C79.5627 32.4907 79.616 34.304 79.616 36.416V44H74.912ZM102.594 44V27.072H107.138V44H102.594ZM104.866 23.584C103.97 23.584 103.276 23.3707 102.786 22.944C102.295 22.5173 102.049 21.9093 102.049 21.12C102.049 20.3947 102.295 19.808 102.786 19.36C103.298 18.8907 103.991 18.656 104.866 18.656C105.719 18.656 106.391 18.8693 106.882 19.296C107.372 19.7227 107.618 20.3307 107.618 21.12C107.618 21.8667 107.372 22.464 106.882 22.912C106.391 23.36 105.719 23.584 104.866 23.584ZM112.022 44V27.072H116.406L116.534 30.528L115.638 30.912C115.851 30.144 116.267 29.4507 116.886 28.832C117.505 28.192 118.241 27.68 119.094 27.296C119.947 26.912 120.833 26.72 121.75 26.72C123.03 26.72 124.097 26.976 124.95 27.488C125.825 28 126.475 28.7787 126.902 29.824C127.35 30.848 127.574 32.128 127.574 33.664V44H123.03V33.984C123.03 33.216 122.923 32.576 122.71 32.064C122.497 31.552 122.177 31.1787 121.75 30.944C121.323 30.7093 120.779 30.6027 120.118 30.624C119.606 30.624 119.137 30.7093 118.71 30.88C118.283 31.0293 117.899 31.2533 117.558 31.552C117.238 31.8507 116.993 32.192 116.822 32.576C116.651 32.96 116.566 33.3867 116.566 33.856V44H114.294C113.825 44 113.398 44 113.014 44C112.63 44 112.299 44 112.022 44ZM132.312 44V27.072H136.856V44H132.312ZM134.584 23.584C133.688 23.584 132.995 23.3707 132.504 22.944C132.014 22.5173 131.768 21.9093 131.768 21.12C131.768 20.3947 132.014 19.808 132.504 19.36C133.016 18.8907 133.71 18.656 134.584 18.656C135.438 18.656 136.11 18.8693 136.6 19.296C137.091 19.7227 137.336 20.3307 137.336 21.12C137.336 21.8667 137.091 22.464 136.6 22.912C136.11 23.36 135.438 23.584 134.584 23.584ZM141.741 44V27.072H146.125L146.253 30.528L145.357 30.912C145.57 30.144 145.986 29.4507 146.605 28.832C147.223 28.192 147.959 27.68 148.813 27.296C149.666 26.912 150.551 26.72 151.469 26.72C152.749 26.72 153.815 26.976 154.669 27.488C155.543 28 156.194 28.7787 156.621 29.824C157.069 30.848 157.293 32.128 157.293 33.664V44H152.749V33.984C152.749 33.216 152.642 32.576 152.429 32.064C152.215 31.552 151.895 31.1787 151.469 30.944C151.042 30.7093 150.498 30.6027 149.837 30.624C149.325 30.624 148.855 30.7093 148.429 30.88C148.002 31.0293 147.618 31.2533 147.277 31.552C146.957 31.8507 146.711 32.192 146.541 32.576C146.37 32.96 146.285 33.3867 146.285 33.856V44H144.013C143.543 44 143.117 44 142.733 44C142.349 44 142.018 44 141.741 44ZM169.359 51.36C168.036 51.36 166.714 51.168 165.391 50.784C164.09 50.4 163.034 49.888 162.223 49.248L163.823 45.984C164.506 46.4533 165.284 46.8267 166.159 47.104C167.055 47.3813 167.972 47.52 168.911 47.52C170.042 47.52 170.959 47.3493 171.663 47.008C172.388 46.6667 172.922 46.1547 173.263 45.472C173.626 44.8107 173.807 43.968 173.807 42.944V40L174.575 40.192C174.447 40.8533 174.084 41.4827 173.487 42.08C172.911 42.656 172.196 43.1253 171.343 43.488C170.49 43.8507 169.594 44.032 168.655 44.032C167.098 44.032 165.7 43.6693 164.463 42.944C163.247 42.1973 162.287 41.184 161.583 39.904C160.879 38.624 160.527 37.152 160.527 35.488C160.527 33.7813 160.879 32.2667 161.583 30.944C162.287 29.6213 163.236 28.5867 164.431 27.84C165.647 27.0933 167.012 26.72 168.527 26.72C169.167 26.72 169.775 26.7947 170.351 26.944C170.948 27.0933 171.492 27.3067 171.983 27.584C172.495 27.84 172.954 28.128 173.359 28.448C173.764 28.768 174.095 29.12 174.351 29.504C174.607 29.888 174.767 30.272 174.831 30.656L173.871 30.944L173.999 27.072H178.383V42.72C178.383 44.0853 178.17 45.3013 177.743 46.368C177.338 47.456 176.74 48.3627 175.951 49.088C175.183 49.8347 174.244 50.4 173.135 50.784C172.026 51.168 170.767 51.36 169.359 51.36ZM169.487 40.352C170.383 40.352 171.162 40.1493 171.823 39.744C172.506 39.3387 173.028 38.7733 173.391 38.048C173.775 37.3227 173.967 36.48 173.967 35.52C173.967 34.5387 173.775 33.6853 173.391 32.96C173.028 32.2347 172.506 31.6693 171.823 31.264C171.162 30.8373 170.383 30.624 169.487 30.624C168.612 30.624 167.844 30.8373 167.183 31.264C166.522 31.6693 165.999 32.2347 165.615 32.96C165.252 33.6853 165.071 34.528 165.071 35.488C165.071 36.448 165.252 37.3013 165.615 38.048C165.999 38.7733 166.522 39.3387 167.183 39.744C167.844 40.1493 168.612 40.352 169.487 40.352ZM193.287 44V21.6H197.575L209.991 38.368H209.127C208.978 37.28 208.85 36.2027 208.743 35.136C208.636 34.048 208.562 32.896 208.519 31.68C208.498 30.464 208.487 29.1093 208.487 27.616V21.6H213.159V44H208.807L196.167 27.136H197.319C197.468 28.544 197.586 29.7067 197.671 30.624C197.756 31.5413 197.82 32.3093 197.863 32.928C197.906 33.5253 197.938 34.0587 197.959 34.528C197.98 34.9973 197.991 35.488 197.991 36V44H193.287ZM226.367 44.32C224.532 44.32 222.921 43.9467 221.535 43.2C220.169 42.4533 219.103 41.4293 218.335 40.128C217.588 38.8267 217.215 37.344 217.215 35.68C217.215 34.3573 217.428 33.152 217.855 32.064C218.281 30.9547 218.879 30.0053 219.647 29.216C220.415 28.4267 221.321 27.8187 222.367 27.392C223.433 26.944 224.596 26.72 225.855 26.72C227.007 26.72 228.063 26.9333 229.023 27.36C230.004 27.7653 230.847 28.352 231.551 29.12C232.276 29.8667 232.831 30.752 233.215 31.776C233.599 32.8 233.78 33.92 233.759 35.136L233.727 36.544H220.127L219.391 33.728H229.983L229.439 34.304V33.632C229.396 33.0347 229.204 32.512 228.863 32.064C228.543 31.616 228.127 31.264 227.615 31.008C227.103 30.7307 226.537 30.592 225.919 30.592C224.959 30.592 224.148 30.784 223.487 31.168C222.847 31.5307 222.356 32.064 222.015 32.768C221.695 33.4507 221.535 34.304 221.535 35.328C221.535 36.3307 221.748 37.216 222.175 37.984C222.601 38.7307 223.209 39.3067 223.999 39.712C224.809 40.1173 225.759 40.32 226.847 40.32C227.593 40.32 228.276 40.2027 228.895 39.968C229.513 39.7333 230.185 39.328 230.911 38.752L233.055 41.792C232.457 42.3253 231.785 42.784 231.039 43.168C230.292 43.552 229.524 43.84 228.735 44.032C227.945 44.224 227.156 44.32 226.367 44.32ZM242.812 44.32C241.254 44.32 239.857 44.064 238.62 43.552C237.404 43.04 236.412 42.3147 235.644 41.376L238.492 38.944C239.153 39.648 239.878 40.16 240.668 40.48C241.478 40.7787 242.3 40.928 243.132 40.928C243.43 40.928 243.708 40.896 243.964 40.832C244.22 40.7467 244.444 40.64 244.636 40.512C244.828 40.3627 244.966 40.192 245.052 40C245.158 39.808 245.212 39.584 245.212 39.328C245.212 38.8587 245.02 38.496 244.636 38.24C244.465 38.112 244.145 37.9733 243.676 37.824C243.228 37.6533 242.652 37.472 241.948 37.28C240.86 37.0027 239.942 36.6827 239.196 36.32C238.449 35.936 237.841 35.4987 237.372 35.008C236.988 34.6027 236.689 34.1333 236.476 33.6C236.284 33.0667 236.188 32.48 236.188 31.84C236.188 30.816 236.486 29.92 237.084 29.152C237.681 28.384 238.47 27.7867 239.452 27.36C240.454 26.9333 241.542 26.72 242.716 26.72C243.59 26.72 244.433 26.8267 245.244 27.04C246.076 27.2533 246.844 27.5627 247.548 27.968C248.273 28.352 248.902 28.8107 249.436 29.344L247.004 32.064C246.62 31.68 246.182 31.3493 245.692 31.072C245.201 30.7733 244.71 30.5387 244.22 30.368C243.729 30.176 243.281 30.08 242.876 30.08C242.513 30.08 242.182 30.112 241.884 30.176C241.606 30.24 241.372 30.3467 241.18 30.496C240.988 30.624 240.838 30.784 240.732 30.976C240.646 31.168 240.604 31.3813 240.604 31.616C240.604 31.8507 240.657 32.0747 240.764 32.288C240.892 32.48 241.062 32.6613 241.276 32.832C241.489 32.96 241.83 33.1093 242.3 33.28C242.79 33.4507 243.42 33.6427 244.188 33.856C245.212 34.1333 246.076 34.4427 246.78 34.784C247.484 35.1253 248.049 35.52 248.476 35.968C248.86 36.352 249.126 36.8 249.276 37.312C249.446 37.8027 249.532 38.336 249.532 38.912C249.532 39.9573 249.233 40.896 248.636 41.728C248.06 42.5387 247.26 43.1787 246.236 43.648C245.233 44.096 244.092 44.32 242.812 44.32ZM254.435 44V22.784H258.979V44H254.435ZM251.267 31.136V27.072H262.467V31.136H251.267Z" fill="#54BD95"/>
</svg>
