<svg width="272" height="65" viewBox="0 0 272 65" fill="none" xmlns="http://www.w3.org/2000/svg">
<path d="M32.6937 15.7319C31.475 15.7319 30.4062 16.3226 29.4312 17.4157C28.4656 18.5051 27.6594 20.0894 27.125 21.8801C26.3187 24.5519 26.15 27.6738 26.675 30.2051L32.8437 29.3238L38.7406 30.0176C39.2281 27.5238 39.05 24.4863 38.2625 21.8801C37.7281 20.0894 36.9219 18.5051 35.9562 17.4157C34.9812 16.3226 33.9125 15.7319 32.6937 15.7319ZM46.1937 19.0207C45.1062 19.0207 44.1406 19.5551 43.2594 20.5676C42.3875 21.5801 41.6469 23.0613 41.1594 24.7301C40.9812 25.3488 40.8312 25.9863 40.7187 26.6332C40.7562 27.8051 40.6719 28.9582 40.475 30.0457C40.475 30.1019 40.475 30.1582 40.4844 30.2238L43.2875 30.5519L37.4844 31.5738L32.8625 31.0301L17.0712 33.2801L24.9031 36.0926L35.1406 34.3488L25.2031 39.4207L14.3581 33.6738L11.6459 34.0582L12.4344 37.0019L9.69031 35.8863L13.2444 40.0301L13.6878 41.6894L17.7969 43.6488L23.7125 42.1019L18.3875 46.0301L14.4341 44.4832L15.4522 48.2894L17.7031 48.9457L13.7666 50.5582L22.8969 50.5957L17.9469 52.6488L27.9875 51.9363C34.8687 54.3551 36.4531 54.0363 44.2344 54.7582L37.8406 52.3676L40.1187 51.1863L34.6906 47.4738C41.9937 49.7332 44.8062 49.0207 51.9031 47.6894L47.9469 47.1082L52.8031 44.5769L52.8406 43.3863L55.4187 37.9863L52.9531 39.7301L53.0469 36.9738L47.1219 41.8019L36.5281 38.5769L47.4219 39.3176L53.0562 36.6082L53.1031 35.2863L54.6125 31.4519L51.7437 33.2426L48.2656 32.8394L41.0094 33.6551C41.0094 33.6551 43.0812 33.0082 45.0312 32.4176L47.0562 30.9926L51.7906 31.5457C52.0719 29.3894 51.8656 26.8957 51.2281 24.7301C50.7406 23.0613 50 21.5801 49.1281 20.5676C48.2469 19.5551 47.2812 19.0207 46.1937 19.0207ZM21.0875 20.0332C19.9531 20.0332 18.9687 20.5488 18.0781 21.4769C17.1894 22.4144 16.4478 23.7832 15.9547 25.3207C15.2872 27.3926 15.0941 29.7738 15.4175 31.8082L24.9875 30.4488C24.4906 28.0676 24.5844 25.3769 25.1281 22.8644C24.8187 22.3394 24.4719 21.8707 24.0969 21.4769C23.2062 20.5488 22.2219 20.0332 21.0875 20.0332ZM27.4812 42.9457L34.3437 44.2394L41.6562 43.3957L34.1937 46.2832L27.4812 42.9457Z" fill="white"/>
<path d="M74.912 44.6895V22.2895H79.296L87.424 35.5375L84.576 35.5055L92.832 22.2895H97.056V44.6895H92.352V37.1055C92.352 35.1641 92.3947 33.4148 92.48 31.8575C92.5867 30.3001 92.7573 28.7641 92.992 27.2495L93.536 28.7535L86.976 38.8975H84.832L78.432 28.8175L78.944 27.2495C79.2 28.6788 79.3707 30.1508 79.456 31.6655C79.5627 33.1801 79.616 34.9935 79.616 37.1055V44.6895H74.912ZM102.594 44.6895V27.7615H107.138V44.6895H102.594ZM104.866 24.2735C103.97 24.2735 103.276 24.0601 102.786 23.6335C102.295 23.2068 102.049 22.5988 102.049 21.8095C102.049 21.0841 102.295 20.4975 102.786 20.0495C103.298 19.5801 103.991 19.3455 104.866 19.3455C105.719 19.3455 106.391 19.5588 106.882 19.9855C107.372 20.4121 107.618 21.0201 107.618 21.8095C107.618 22.5561 107.372 23.1535 106.882 23.6015C106.391 24.0495 105.719 24.2735 104.866 24.2735ZM112.022 44.6895V27.7615H116.406L116.534 31.2175L115.638 31.6015C115.851 30.8335 116.267 30.1401 116.886 29.5215C117.505 28.8815 118.241 28.3695 119.094 27.9855C119.947 27.6015 120.833 27.4095 121.75 27.4095C123.03 27.4095 124.097 27.6655 124.95 28.1775C125.825 28.6895 126.475 29.4681 126.902 30.5135C127.35 31.5375 127.574 32.8175 127.574 34.3535V44.6895H123.03V34.6735C123.03 33.9055 122.923 33.2655 122.71 32.7535C122.497 32.2415 122.177 31.8681 121.75 31.6335C121.323 31.3988 120.779 31.2921 120.118 31.3135C119.606 31.3135 119.137 31.3988 118.71 31.5695C118.283 31.7188 117.899 31.9428 117.558 32.2415C117.238 32.5401 116.993 32.8815 116.822 33.2655C116.651 33.6495 116.566 34.0761 116.566 34.5455V44.6895H114.294C113.825 44.6895 113.398 44.6895 113.014 44.6895C112.63 44.6895 112.299 44.6895 112.022 44.6895ZM132.312 44.6895V27.7615H136.856V44.6895H132.312ZM134.584 24.2735C133.688 24.2735 132.995 24.0601 132.504 23.6335C132.014 23.2068 131.768 22.5988 131.768 21.8095C131.768 21.0841 132.014 20.4975 132.504 20.0495C133.016 19.5801 133.71 19.3455 134.584 19.3455C135.438 19.3455 136.11 19.5588 136.6 19.9855C137.091 20.4121 137.336 21.0201 137.336 21.8095C137.336 22.5561 137.091 23.1535 136.6 23.6015C136.11 24.0495 135.438 24.2735 134.584 24.2735ZM141.741 44.6895V27.7615H146.125L146.253 31.2175L145.357 31.6015C145.57 30.8335 145.986 30.1401 146.605 29.5215C147.223 28.8815 147.959 28.3695 148.813 27.9855C149.666 27.6015 150.551 27.4095 151.469 27.4095C152.749 27.4095 153.815 27.6655 154.669 28.1775C155.543 28.6895 156.194 29.4681 156.621 30.5135C157.069 31.5375 157.293 32.8175 157.293 34.3535V44.6895H152.749V34.6735C152.749 33.9055 152.642 33.2655 152.429 32.7535C152.215 32.2415 151.895 31.8681 151.469 31.6335C151.042 31.3988 150.498 31.2921 149.837 31.3135C149.325 31.3135 148.855 31.3988 148.429 31.5695C148.002 31.7188 147.618 31.9428 147.277 32.2415C146.957 32.5401 146.711 32.8815 146.541 33.2655C146.37 33.6495 146.285 34.0761 146.285 34.5455V44.6895H144.013C143.543 44.6895 143.117 44.6895 142.733 44.6895C142.349 44.6895 142.018 44.6895 141.741 44.6895ZM169.359 52.0495C168.036 52.0495 166.714 51.8575 165.391 51.4735C164.09 51.0895 163.034 50.5775 162.223 49.9375L163.823 46.6735C164.506 47.1428 165.284 47.5161 166.159 47.7935C167.055 48.0708 167.972 48.2095 168.911 48.2095C170.042 48.2095 170.959 48.0388 171.663 47.6975C172.388 47.3561 172.922 46.8441 173.263 46.1615C173.626 45.5001 173.807 44.6575 173.807 43.6335V40.6895L174.575 40.8815C174.447 41.5428 174.084 42.1721 173.487 42.7695C172.911 43.3455 172.196 43.8148 171.343 44.1775C170.49 44.5401 169.594 44.7215 168.655 44.7215C167.098 44.7215 165.7 44.3588 164.463 43.6335C163.247 42.8868 162.287 41.8735 161.583 40.5935C160.879 39.3135 160.527 37.8415 160.527 36.1775C160.527 34.4708 160.879 32.9561 161.583 31.6335C162.287 30.3108 163.236 29.2761 164.431 28.5295C165.647 27.7828 167.012 27.4095 168.527 27.4095C169.167 27.4095 169.775 27.4841 170.351 27.6335C170.948 27.7828 171.492 27.9961 171.983 28.2735C172.495 28.5295 172.954 28.8175 173.359 29.1375C173.764 29.4575 174.095 29.8095 174.351 30.1935C174.607 30.5775 174.767 30.9615 174.831 31.3455L173.871 31.6335L173.999 27.7615H178.383V43.4095C178.383 44.7748 178.17 45.9908 177.743 47.0575C177.338 48.1455 176.74 49.0521 175.951 49.7775C175.183 50.5241 174.244 51.0895 173.135 51.4735C172.026 51.8575 170.767 52.0495 169.359 52.0495ZM169.487 41.0415C170.383 41.0415 171.162 40.8388 171.823 40.4335C172.506 40.0281 173.028 39.4628 173.391 38.7375C173.775 38.0121 173.967 37.1695 173.967 36.2095C173.967 35.2281 173.775 34.3748 173.391 33.6495C173.028 32.9241 172.506 32.3588 171.823 31.9535C171.162 31.5268 170.383 31.3135 169.487 31.3135C168.612 31.3135 167.844 31.5268 167.183 31.9535C166.522 32.3588 165.999 32.9241 165.615 33.6495C165.252 34.3748 165.071 35.2175 165.071 36.1775C165.071 37.1375 165.252 37.9908 165.615 38.7375C165.999 39.4628 166.522 40.0281 167.183 40.4335C167.844 40.8388 168.612 41.0415 169.487 41.0415ZM193.287 44.6895V22.2895H197.575L209.991 39.0575H209.127C208.978 37.9695 208.85 36.8921 208.743 35.8255C208.636 34.7375 208.562 33.5855 208.519 32.3695C208.498 31.1535 208.487 29.7988 208.487 28.3055V22.2895H213.159V44.6895H208.807L196.167 27.8255H197.319C197.468 29.2335 197.586 30.3961 197.671 31.3135C197.756 32.2308 197.82 32.9988 197.863 33.6175C197.906 34.2148 197.938 34.7481 197.959 35.2175C197.98 35.6868 197.991 36.1775 197.991 36.6895V44.6895H193.287ZM226.367 45.0095C224.532 45.0095 222.921 44.6361 221.535 43.8895C220.169 43.1428 219.103 42.1188 218.335 40.8175C217.588 39.5161 217.215 38.0335 217.215 36.3695C217.215 35.0468 217.428 33.8415 217.855 32.7535C218.281 31.6441 218.879 30.6948 219.647 29.9055C220.415 29.1161 221.321 28.5081 222.367 28.0815C223.433 27.6335 224.596 27.4095 225.855 27.4095C227.007 27.4095 228.063 27.6228 229.023 28.0495C230.004 28.4548 230.847 29.0415 231.551 29.8095C232.276 30.5561 232.831 31.4415 233.215 32.4655C233.599 33.4895 233.78 34.6095 233.759 35.8255L233.727 37.2335H220.127L219.391 34.4175H229.983L229.439 34.9935V34.3215C229.396 33.7241 229.204 33.2015 228.863 32.7535C228.543 32.3055 228.127 31.9535 227.615 31.6975C227.103 31.4201 226.537 31.2815 225.919 31.2815C224.959 31.2815 224.148 31.4735 223.487 31.8575C222.847 32.2201 222.356 32.7535 222.015 33.4575C221.695 34.1401 221.535 34.9935 221.535 36.0175C221.535 37.0201 221.748 37.9055 222.175 38.6735C222.601 39.4201 223.209 39.9961 223.999 40.4015C224.809 40.8068 225.759 41.0095 226.847 41.0095C227.593 41.0095 228.276 40.8921 228.895 40.6575C229.513 40.4228 230.185 40.0175 230.911 39.4415L233.055 42.4815C232.457 43.0148 231.785 43.4735 231.039 43.8575C230.292 44.2415 229.524 44.5295 228.735 44.7215C227.945 44.9135 227.156 45.0095 226.367 45.0095ZM242.812 45.0095C241.254 45.0095 239.857 44.7535 238.62 44.2415C237.404 43.7295 236.412 43.0041 235.644 42.0655L238.492 39.6335C239.153 40.3375 239.878 40.8495 240.668 41.1695C241.478 41.4681 242.3 41.6175 243.132 41.6175C243.43 41.6175 243.708 41.5855 243.964 41.5215C244.22 41.4361 244.444 41.3295 244.636 41.2015C244.828 41.0521 244.966 40.8815 245.052 40.6895C245.158 40.4975 245.212 40.2735 245.212 40.0175C245.212 39.5481 245.02 39.1855 244.636 38.9295C244.465 38.8015 244.145 38.6628 243.676 38.5135C243.228 38.3428 242.652 38.1615 241.948 37.9695C240.86 37.6921 239.942 37.3721 239.196 37.0095C238.449 36.6255 237.841 36.1881 237.372 35.6975C236.988 35.2921 236.689 34.8228 236.476 34.2895C236.284 33.7561 236.188 33.1695 236.188 32.5295C236.188 31.5055 236.486 30.6095 237.084 29.8415C237.681 29.0735 238.47 28.4761 239.452 28.0495C240.454 27.6228 241.542 27.4095 242.716 27.4095C243.59 27.4095 244.433 27.5161 245.244 27.7295C246.076 27.9428 246.844 28.2521 247.548 28.6575C248.273 29.0415 248.902 29.5001 249.436 30.0335L247.004 32.7535C246.62 32.3695 246.182 32.0388 245.692 31.7615C245.201 31.4628 244.71 31.2281 244.22 31.0575C243.729 30.8655 243.281 30.7695 242.876 30.7695C242.513 30.7695 242.182 30.8015 241.884 30.8655C241.606 30.9295 241.372 31.0361 241.18 31.1855C240.988 31.3135 240.838 31.4735 240.732 31.6655C240.646 31.8575 240.604 32.0708 240.604 32.3055C240.604 32.5401 240.657 32.7641 240.764 32.9775C240.892 33.1695 241.062 33.3508 241.276 33.5215C241.489 33.6495 241.83 33.7988 242.3 33.9695C242.79 34.1401 243.42 34.3321 244.188 34.5455C245.212 34.8228 246.076 35.1321 246.78 35.4735C247.484 35.8148 248.049 36.2095 248.476 36.6575C248.86 37.0415 249.126 37.4895 249.276 38.0015C249.446 38.4921 249.532 39.0255 249.532 39.6015C249.532 40.6468 249.233 41.5855 248.636 42.4175C248.06 43.2281 247.26 43.8681 246.236 44.3375C245.233 44.7855 244.092 45.0095 242.812 45.0095ZM254.435 44.6895V23.4735H258.979V44.6895H254.435ZM251.267 31.8255V27.7615H262.467V31.8255H251.267Z" fill="white"/>
</svg>
