<svg width="33" height="33" viewBox="0 0 33 33" fill="none" xmlns="http://www.w3.org/2000/svg">
<path fill-rule="evenodd" clip-rule="evenodd" d="M0.227661 16.6895C0.227661 7.8529 7.3911 0.689453 16.2277 0.689453C25.0642 0.689453 32.2277 7.8529 32.2277 16.6895C32.2277 25.526 25.0642 32.6895 16.2277 32.6895C7.3911 32.6895 0.227661 25.526 0.227661 16.6895Z" fill="white"/>
<path d="M22.447 12.756L23.4277 11.6288C23.7115 11.3235 23.789 11.0887 23.8148 10.9713C23.0406 11.394 22.318 11.5349 21.8535 11.5349H21.6728L21.5696 11.4409C20.9502 10.9478 20.176 10.6895 19.3502 10.6895C17.5438 10.6895 16.1244 12.0515 16.1244 13.6249C16.1244 13.7188 16.1244 13.8597 16.1502 13.9536L16.2277 14.4233L15.6857 14.3998C12.3825 14.3059 9.67282 11.7227 9.23411 11.2765C8.51153 12.4507 8.92444 13.5779 9.36314 14.2824L10.2406 15.5975L8.84702 14.893C8.87282 15.8793 9.28573 16.6542 10.0857 17.2178L10.7825 17.6875L10.0857 17.9458C10.5244 19.1435 11.5051 19.6366 12.2277 19.8245L13.1825 20.0593L12.2793 20.6229C10.8341 21.5623 9.02766 21.4918 8.22766 21.4214C9.85347 22.4546 11.789 22.6895 13.1309 22.6895C14.1373 22.6895 14.8857 22.5955 15.0664 22.5251C22.2922 20.9752 22.6277 15.1043 22.6277 13.9302V13.7658L22.7825 13.6718C23.6599 12.9204 24.0212 12.5212 24.2277 12.2863C24.1502 12.3098 24.047 12.3568 23.9438 12.3803L22.447 12.756Z" fill="#0B0A1A"/>
</svg>
