<svg width="32" height="33" viewBox="0 0 32 33" fill="none" xmlns="http://www.w3.org/2000/svg">
<path d="M16.1138 32.4618C24.8875 32.4618 32 25.3493 32 16.5756C32 7.80193 24.8875 0.689453 16.1138 0.689453C7.34014 0.689453 0.227661 7.80193 0.227661 16.5756C0.227661 25.3493 7.34014 32.4618 16.1138 32.4618Z" fill="white"/>
<path d="M23.8922 12.5696C23.7115 11.8231 23.1696 11.2424 22.4728 11.0489C21.2341 10.6895 16.2277 10.6895 16.2277 10.6895C16.2277 10.6895 11.2212 10.6895 9.9825 11.0489C9.28573 11.2424 8.74379 11.8231 8.56314 12.5696C8.22766 13.9245 8.22766 16.6895 8.22766 16.6895C8.22766 16.6895 8.22766 19.4821 8.56314 20.8093C8.74379 21.5558 9.28573 22.1365 9.9825 22.33C11.2212 22.6895 16.2277 22.6895 16.2277 22.6895C16.2277 22.6895 21.2341 22.6895 22.4728 22.33C23.1696 22.1365 23.7115 21.5558 23.8922 20.8093C24.2277 19.4821 24.2277 16.6895 24.2277 16.6895C24.2277 16.6895 24.2277 13.9245 23.8922 12.5696ZM14.6277 19.2609V14.118L18.7825 16.6895L14.6277 19.2609Z" fill="#0B0A1A"/>
</svg>
